# Wavefront Obj file
# 
# verts: 66 uv-s: 114
mtllib Doorknob.mtl

g pSphere1
#pivot 0.000000 0.000000 0.000000

v 0.923880 0.270598 -0.270598
v 0.923880 0.000000 -0.382683
v 0.923880 -0.270598 -0.270598
v 0.923880 -0.382684 0.000000
v 0.923880 -0.270598 0.270598
v 0.923880 0.000000 0.382683
v 0.923880 0.270598 0.270598
v 0.923880 0.382684 0.000000
v 0.707107 0.500000 -0.500000
v 0.707107 0.000000 -0.707107
v 0.707107 -0.500000 -0.500000
v 0.707107 -0.707107 0.000000
v 0.707107 -0.500000 0.500000
v 0.707107 0.000000 0.707107
v 0.707107 0.500000 0.500000
v 0.707107 0.707107 0.000000
v 0.382683 0.653281 -0.653281
v 0.382683 0.000000 -0.923879
v 0.382683 -0.653281 -0.653281
v 0.382683 -0.923879 0.000000
v 0.382683 -0.653281 0.653281
v 0.382683 0.000000 0.923879
v 0.382683 0.653281 0.653281
v 0.382683 0.923879 0.000000
v 0.000000 0.707107 -0.707107
v 0.000000 0.000000 -1.000000
v 0.000000 -0.707107 -0.707107
v 0.000000 -1.000000 0.000000
v 0.000000 -0.707107 0.707107
v 0.000000 0.000000 1.000000
v 0.000000 0.707107 0.707107
v 0.000000 1.000000 0.000000
v -0.382683 0.653281 -0.653281
v -0.382683 0.000000 -0.923879
v -0.382683 -0.653281 -0.653281
v -0.382683 -0.923879 0.000000
v -0.382683 -0.653281 0.653281
v -0.382683 0.000000 0.923879
v -0.382683 0.653281 0.653281
v -0.382683 0.923879 0.000000
v -0.707107 0.500000 -0.500000
v -0.707107 0.000000 -0.707107
v -0.707107 -0.500000 -0.500000
v -0.707107 -0.707107 0.000000
v -0.707107 -0.500000 0.500000
v -0.707107 0.000000 0.707107
v -0.707107 0.500000 0.500000
v -0.707107 0.707107 0.000000
v -0.923880 0.270598 -0.270598
v -0.923880 0.000000 -0.382683
v -0.923880 -0.270598 -0.270598
v -0.923880 -0.382684 0.000000
v -0.923880 -0.270598 0.270598
v -0.923880 0.000000 0.382683
v -0.923880 0.270598 0.270598
v -0.923880 0.382684 0.000000
v 1.000000 0.000000 0.000000
v -1.571619 0.270598 -0.270598
v -1.571619 0.000000 -0.382683
v -1.571619 0.000000 0.000000
v -1.571619 -0.270598 -0.270598
v -1.571619 -0.382684 0.000000
v -1.571619 -0.270598 0.270598
v -1.571619 0.000000 0.382683
v -1.571619 0.270598 0.270598
v -1.571619 0.382684 0.000000
# 66 positions

vt 0.597223 0.653885
vt 0.545826 0.632596
vt 0.545826 0.570976
vt 0.640794 0.610313
vt 0.494430 0.653885
vt 0.450859 0.610313
vt 0.138922 0.052261
vt 0.190318 0.052261
vt 0.190318 0.093434
vt 0.095350 0.093434
vt 0.241714 0.052261
vt 0.285286 0.093434
vt 0.494430 0.756677
vt 0.545826 0.777966
vt 0.545826 0.839586
vt 0.450859 0.800249
vt 0.597223 0.756677
vt 0.640794 0.800249
vt 0.413627 0.052261
vt 0.465023 0.052261
vt 0.465023 0.093434
vt 0.370055 0.093434
vt 0.516419 0.052261
vt 0.559991 0.093434
vt 0.545826 0.529804
vt 0.669908 0.581200
vt 0.421745 0.581200
vt 0.190318 0.155054
vt 0.066237 0.155054
vt 0.314399 0.155054
vt 0.545826 0.880759
vt 0.421745 0.829362
vt 0.669908 0.829362
vt 0.465023 0.155054
vt 0.340942 0.155054
vt 0.589104 0.155054
vt 0.863636 0.423453
vt 0.739555 0.423453
vt 0.739555 0.350768
vt 0.873859 0.350768
vt 0.615473 0.423453
vt 0.605250 0.350768
vt 0.190318 0.227739
vt 0.056013 0.227739
vt 0.324623 0.227739
vt 0.684132 0.475486
vt 0.808213 0.475486
vt 0.808213 0.548171
vt 0.673909 0.548171
vt 0.932295 0.475486
vt 0.942518 0.548171
vt 0.465023 0.227739
vt 0.330718 0.227739
vt 0.599328 0.227739
vt 0.739555 0.278082
vt 0.863636 0.278082
vt 0.615473 0.278082
vt 0.190318 0.300424
vt 0.066237 0.300424
vt 0.314399 0.300424
vt 0.808213 0.620856
vt 0.684132 0.620856
vt 0.932295 0.620856
vt 0.465023 0.300424
vt 0.340942 0.300424
vt 0.589104 0.300424
vt 0.739555 0.216463
vt 0.834522 0.216463
vt 0.644587 0.216463
vt 0.190318 0.362044
vt 0.095350 0.362044
vt 0.285286 0.362044
vt 0.808213 0.682476
vt 0.713246 0.682476
vt 0.903181 0.682476
vt 0.465023 0.362044
vt 0.370055 0.362044
vt 0.559991 0.362044
vt 0.739555 0.175290
vt 0.790951 0.175290
vt 0.688158 0.175290
vt 0.190318 0.403216
vt 0.138922 0.403216
vt 0.241714 0.403216
vt 0.808213 0.723649
vt 0.756817 0.723649
vt 0.859610 0.723649
vt 0.465023 0.403216
vt 0.413627 0.403216
vt 0.516419 0.403216
vt 0.545826 0.705281
vt 0.473141 0.705281
vt 0.618512 0.705281
vt 0.394986 0.551093
vt 0.416275 0.602489
vt 0.343590 0.602489
vt 0.394986 0.653885
vt 0.343590 0.675174
vt 0.292194 0.653885
vt 0.270905 0.602489
vt 0.292194 0.551093
vt 0.343590 0.529804
vt 0.739555 0.052261
vt 0.790951 0.052261
vt 0.688158 0.052261
vt 0.190318 0.526245
vt 0.138922 0.526245
vt 0.241714 0.526245
vt 0.808213 0.846677
vt 0.756817 0.846677
vt 0.859610 0.846677
vt 0.465023 0.526245
vt 0.413627 0.526245
vt 0.516419 0.526245
# 114 texture coordinates

vn 0.924735 0.269132 -0.269132
vn 0.924735 0.000000 -0.380610
vn 0.709230 0.000000 -0.704978
vn 0.709229 0.498494 -0.498495
vn 0.924735 -0.269132 -0.269132
vn 0.709229 -0.498494 -0.498495
vn 0.924735 -0.380610 0.000000
vn 0.709229 -0.704978 0.000000
vn 0.924735 -0.269132 0.269132
vn 0.709229 -0.498494 0.498495
vn 0.924735 0.000000 0.380610
vn 0.709230 0.000000 0.704978
vn 0.924735 0.269132 0.269132
vn 0.709229 0.498494 0.498495
vn 0.924735 0.380610 0.000000
vn 0.709229 0.704978 0.000000
vn 0.384551 0.000000 -0.923104
vn 0.384551 0.652733 -0.652733
vn 0.384551 -0.652733 -0.652733
vn 0.384551 -0.923104 0.000000
vn 0.384551 -0.652733 0.652733
vn 0.384551 0.000000 0.923104
vn 0.384551 0.652733 0.652733
vn 0.384551 0.923104 0.000000
vn -0.000000 0.000000 -1.000000
vn -0.000000 0.707107 -0.707107
vn -0.000000 -0.707107 -0.707107
vn -0.000000 -1.000000 0.000000
vn -0.000000 -0.707107 0.707107
vn -0.000000 0.000000 1.000000
vn -0.000000 0.707107 0.707107
vn -0.000000 1.000000 0.000000
vn -0.384551 0.000000 -0.923104
vn -0.384551 0.652733 -0.652733
vn -0.384551 -0.652733 -0.652733
vn -0.384551 -0.923104 0.000000
vn -0.384551 -0.652733 0.652733
vn -0.384551 0.000000 0.923104
vn -0.384551 0.652733 0.652733
vn -0.384551 0.923104 0.000000
vn -0.709230 0.000000 -0.704978
vn -0.709229 0.498495 -0.498495
vn -0.709229 -0.498494 -0.498495
vn -0.709229 -0.704978 0.000000
vn -0.709229 -0.498495 0.498495
vn -0.709230 0.000000 0.704978
vn -0.709229 0.498494 0.498495
vn -0.709229 0.704978 0.000000
vn -0.831470 0.000000 -0.555570
vn -0.831469 0.392848 -0.392848
vn -0.831469 -0.392848 -0.392848
vn -0.831469 -0.555571 0.000000
vn -0.831469 -0.392848 0.392848
vn -0.831470 0.000000 0.555570
vn -0.831469 0.392848 0.392848
vn -0.831469 0.555571 0.000000
vn 1.000000 0.000000 0.000000
vn -1.000000 0.000000 0.000000
vn -1.000000 0.000000 0.000000
vn -1.000000 0.000000 0.000000
vn -1.000000 0.000000 0.000000
vn -1.000000 0.000000 0.000000
vn -1.000000 0.000000 0.000000
vn -1.000000 0.000000 0.000000
vn -1.000000 0.000000 0.000000
vn -1.000000 0.000000 0.000000
vn 0.000000 0.707106 -0.707108
vn 0.000000 0.000000 -1.000000
vn 0.000000 0.000000 -1.000000
vn 0.000000 0.707106 -0.707108
vn 0.000000 -0.707106 -0.707108
vn 0.000000 -0.707106 -0.707108
vn 0.000000 -1.000000 0.000000
vn 0.000000 -1.000000 0.000000
vn 0.000000 -0.707106 0.707108
vn 0.000000 -0.707106 0.707108
vn 0.000000 0.000000 1.000000
vn 0.000000 0.000000 1.000000
vn 0.000000 0.707106 0.707108
vn 0.000000 0.707106 0.707108
vn 0.000000 1.000000 0.000000
vn 0.000000 1.000000 0.000000
# 82 normals

usemtl lambert2SG
s 1
f 1/1/1 2/2/2 10/3/3 9/4/4
f 2/2/2 3/5/5 11/6/6 10/3/3
f 3/7/5 4/8/7 12/9/8 11/10/6
f 4/8/7 5/11/9 13/12/10 12/9/8
f 5/13/9 6/14/11 14/15/12 13/16/10
f 6/14/11 7/17/13 15/18/14 14/15/12
f 7/19/13 8/20/15 16/21/16 15/22/14
f 8/20/15 1/23/1 9/24/4 16/21/16
f 9/4/4 10/3/3 18/25/17 17/26/18
f 10/3/3 11/6/6 19/27/19 18/25/17
f 11/10/6 12/9/8 20/28/20 19/29/19
f 12/9/8 13/12/10 21/30/21 20/28/20
f 13/16/10 14/15/12 22/31/22 21/32/21
f 14/15/12 15/18/14 23/33/23 22/31/22
f 15/22/14 16/21/16 24/34/24 23/35/23
f 16/21/16 9/24/4 17/36/18 24/34/24
f 17/37/18 18/38/17 26/39/25 25/40/26
f 18/38/17 19/41/19 27/42/27 26/39/25
f 19/29/19 20/28/20 28/43/28 27/44/27
f 20/28/20 21/30/21 29/45/29 28/43/28
f 21/46/21 22/47/22 30/48/30 29/49/29
f 22/47/22 23/50/23 31/51/31 30/48/30
f 23/35/23 24/34/24 32/52/32 31/53/31
f 24/34/24 17/36/18 25/54/26 32/52/32
f 25/40/26 26/39/25 34/55/33 33/56/34
f 26/39/25 27/42/27 35/57/35 34/55/33
f 27/44/27 28/43/28 36/58/36 35/59/35
f 28/43/28 29/45/29 37/60/37 36/58/36
f 29/49/29 30/48/30 38/61/38 37/62/37
f 30/48/30 31/51/31 39/63/39 38/61/38
f 31/53/31 32/52/32 40/64/40 39/65/39
f 32/52/32 25/54/26 33/66/34 40/64/40
f 33/56/34 34/55/33 42/67/41 41/68/42
f 34/55/33 35/57/35 43/69/43 42/67/41
f 35/59/35 36/58/36 44/70/44 43/71/43
f 36/58/36 37/60/37 45/72/45 44/70/44
f 37/62/37 38/61/38 46/73/46 45/74/45
f 38/61/38 39/63/39 47/75/47 46/73/46
f 39/65/39 40/64/40 48/76/48 47/77/47
f 40/64/40 33/66/34 41/78/42 48/76/48
f 41/68/42 42/67/41 50/79/49 49/80/50
f 42/67/41 43/69/43 51/81/51 50/79/49
f 43/71/43 44/70/44 52/82/52 51/83/51
f 44/70/44 45/72/45 53/84/53 52/82/52
f 45/74/45 46/73/46 54/85/54 53/86/53
f 46/73/46 47/75/47 55/87/55 54/85/54
f 47/77/47 48/76/48 56/88/56 55/89/55
f 48/76/48 41/78/42 49/90/50 56/88/56
f 2/2/2 1/1/1 57/91/57
f 3/5/5 2/2/2 57/91/57
f 4/92/7 3/5/5 57/91/57
f 5/13/9 4/92/7 57/91/57
f 6/14/11 5/13/9 57/91/57
f 7/17/13 6/14/11 57/91/57
f 8/93/15 7/17/13 57/91/57
f 1/1/1 8/93/15 57/91/57
s 2
f 58/94/58 59/95/59 60/96/60
f 59/95/59 61/97/61 60/96/60
f 61/97/61 62/98/62 60/96/60
f 62/98/62 63/99/63 60/96/60
f 63/99/63 64/100/64 60/96/60
f 64/100/64 65/101/65 60/96/60
f 65/101/65 66/102/66 60/96/60
f 66/102/66 58/94/58 60/96/60
s 3
f 49/80/67 50/79/68 59/103/69 58/104/70
f 50/79/68 51/81/71 61/105/72 59/103/69
f 51/83/71 52/82/73 62/106/74 61/107/72
f 52/82/73 53/84/75 63/108/76 62/106/74
f 53/86/75 54/85/77 64/109/78 63/110/76
f 54/85/77 55/87/79 65/111/80 64/109/78
f 55/89/79 56/88/81 66/112/82 65/113/80
f 56/88/81 49/90/67 58/114/70 66/112/82

# 72 faces
