# Wavefront Obj file
# 
# verts: 4 uv-s: 4
mtllib Leaves.mtl

g pPlane1
#pivot 0.000000 0.000000 0.000000

v -8.627738 0.000000 8.627738
v 8.627738 0.000000 8.627738
v -8.627738 0.000000 -8.627738
v 8.627738 0.000000 -8.627738
# 4 positions

vt 0.000000 0.000000
vt 1.000000 0.000000
vt 1.000000 1.000000
vt 0.000000 1.000000
# 4 texture coordinates

vn 0.000000 1.000000 0.000000
vn 0.000000 1.000000 0.000000
vn 0.000000 1.000000 0.000000
vn 0.000000 1.000000 0.000000
# 4 normals

usemtl lambert2SG
f 1/1/1 2/2/2 4/3/3 3/4/4

# 1 faces
