# This file uses centimeters as units for non-parametric coordinates.

mtllib Tarot Card Centred.mtl
g default
v -3.325017 5.953114 0.035266
v -3.453114 5.825018 0.035266
v -3.500000 5.650036 0.035266
v -3.150035 6.000000 0.035266
v -3.500000 5.650036 -0.035266
v -3.453114 5.825018 -0.035266
v -3.325017 5.953114 -0.035266
v -3.150035 6.000000 -0.035266
v 3.453114 5.825018 0.035266
v 3.325017 5.953114 0.035266
v 3.150035 6.000000 0.035266
v 3.500000 5.650036 0.035266
v 3.500000 5.650036 -0.035266
v 3.150035 6.000000 -0.035266
v 3.325017 5.953114 -0.035266
v 3.453114 5.825018 -0.035266
v -3.453114 -5.825018 0.035266
v -3.325017 -5.953114 0.035266
v -3.150035 -6.000000 0.035266
v -3.500000 -5.650035 0.035266
v -3.329398 -5.949659 -0.034580
v -3.453114 -5.825018 -0.035266
v -3.500000 -5.650035 -0.035266
v -3.150035 -6.000000 -0.035266
v 3.325017 -5.953114 0.035266
v 3.453114 -5.825018 0.035266
v 3.500000 -5.650035 0.035266
v 3.150035 -6.000000 0.035266
v 3.453114 -5.825018 -0.035266
v 3.325017 -5.953114 -0.035266
v 3.150035 -6.000000 -0.035266
v 3.500000 -5.650035 -0.035266
v -3.150035 -5.650034 -0.035266
v -3.150035 5.650032 -0.035266
v 3.150035 5.650036 -0.035266
v 3.150035 -5.650032 -0.035266
v 3.150035 -5.650035 0.035266
v -3.150035 -5.650035 0.035266
v -3.150035 5.650036 0.035266
v 3.150035 5.650036 0.035266
vt 0.464652 0.960409
vt 0.546765 0.981553
vt 0.966853 0.978721
vt 0.036981 0.965110
vt 0.541370 0.181394
vt 0.036221 0.195774
vt 0.464664 0.200996
vt 0.961458 0.178562
vt 0.984951 0.201741
vt 0.488086 0.960152
vt 0.488139 0.201282
vt 0.990031 0.955228
vt 0.012092 0.195480
vt 0.518192 0.204887
vt 0.523272 0.958375
vt 0.012896 0.965375
vt 0.526477 0.970021
vt 0.464651 0.983886
vt 0.535076 0.978505
vt 0.476372 0.980604
vt 0.978499 0.975516
vt 0.037004 0.988893
vt 0.986983 0.966917
vt 0.024964 0.985846
vt 0.529724 0.184599
vt 0.015314 0.183577
vt 0.521240 0.193199
vt 0.036197 0.171903
vt 0.981746 0.190094
vt 0.464664 0.177433
vt 0.973147 0.181610
vt 0.484997 0.189470
vt 0.546607 0.958218
vt 0.476697 0.180987
vt 0.484947 0.971918
vt 0.016138 0.977238
vt 0.024140 0.174947
vt 0.541528 0.204730
vt 0.961616 0.201898
vt 0.966695 0.955385
vt 0.408693 0.061052
vt 0.399938 0.061137
vt 0.417446 0.061020
vt 0.426196 0.061045
vt 0.072697 0.062744
vt 0.026908 0.085840
vt 0.081591 0.062693
vt 0.090482 0.062635
vt 0.923896 0.084662
vt 0.980697 0.065948
vt 0.915110 0.084808
vt 0.906337 0.084951
vt 0.592095 0.089310
vt 0.600727 0.089193
vt 0.583465 0.089368
vt 0.574837 0.089365
vt 0.399403 0.009411
vt 0.408435 0.009317
vt 0.417471 0.009276
vt 0.426510 0.009288
vt 0.026253 0.134355
vt 0.017461 0.134219
vt 0.090203 0.013531
vt 0.981541 0.016870
vt 0.990436 0.017043
vt 0.915867 0.133320
vt 0.907074 0.133467
vt 0.601506 0.139851
vt 0.592563 0.139982
vt 0.583617 0.140053
vt 0.574669 0.140065
vt 0.081058 0.014071
vt 0.989585 0.066122
vt 0.924656 0.133172
vt 0.018121 0.085706
vt 0.072432 0.013647
vn -0.007241 0.999974 0.000000
vn -0.007241 0.999974 0.000000
vn 0.007241 0.999974 0.000000
vn 0.007241 0.999974 0.000000
vn -0.007471 -0.999972 -0.000437
vn -0.007454 -0.999972 -0.000436
vn 0.007241 -0.999974 0.000000
vn 0.007241 -0.999974 0.000000
vn 0.999992 -0.004086 0.000000
vn 0.999992 -0.004086 0.000000
vn 0.999992 0.004086 0.000000
vn 0.999992 0.004086 0.000000
vn -0.999992 -0.004086 0.000000
vn -0.999992 -0.004086 0.000000
vn -0.999992 0.004086 0.000000
vn -0.999992 0.004086 0.000000
vn -0.965926 0.258820 0.000000
vn -0.965926 0.258820 0.000000
vn -0.707106 0.707108 0.000000
vn -0.499999 0.866026 0.000000
vn -0.499999 0.866026 0.000000
vn -0.707106 0.707108 0.000000
vn 0.499999 0.866026 0.000000
vn 0.499999 0.866026 0.000000
vn 0.707106 0.707108 0.000000
vn 0.707106 0.707108 0.000000
vn 0.965926 0.258820 0.000000
vn 0.965926 0.258820 0.000000
vn -0.488778 -0.872386 -0.006214
vn -0.511111 -0.859499 -0.005200
vn -0.708402 -0.705794 0.004741
vn -0.708402 -0.705794 0.004741
vn -0.965926 -0.258819 0.000000
vn -0.965926 -0.258819 0.000000
vn 0.965926 -0.258819 0.000000
vn 0.965926 -0.258819 0.000000
vn 0.707106 -0.707108 0.000000
vn 0.499999 -0.866026 0.000000
vn 0.499999 -0.866026 0.000000
vn 0.707106 -0.707108 0.000000
vn -0.000000 0.000000 1.000000
vn -0.000000 0.000000 1.000000
vn -0.000000 0.000000 1.000000
vn 0.000000 0.000000 -1.000000
vn 0.000000 0.000000 -1.000000
vn 0.000000 0.000000 -1.000000
vn -0.000000 -0.000000 -1.000000
vn -0.000000 0.000000 -1.000000
vn -0.000000 0.000000 -1.000000
vn 0.000000 0.000000 -1.000000
vn 0.000000 0.000000 -1.000000
vn 0.000000 0.000000 -1.000000
vn -0.000000 0.000000 -1.000000
vn 0.000000 0.000000 -1.000000
vn 0.000000 0.000000 -1.000000
vn 0.000000 0.000000 -1.000000
vn -0.000000 0.000000 -1.000000
vn -0.000044 0.000000 -1.000000
vn 0.000996 -0.001725 -0.999998
vn -0.000964 -0.001712 -0.999998
vn -0.000000 0.000000 -1.000000
vn 0.000000 0.000000 -1.000000
vn 0.000000 0.000000 -1.000000
vn 0.000000 0.000000 1.000000
vn -0.000000 0.000000 1.000000
vn 0.000000 0.000000 1.000000
vn 0.000000 0.000000 1.000000
vn 0.000000 0.000000 1.000000
vn 0.000000 0.000000 1.000000
vn 0.000000 0.000000 1.000000
vn 0.000000 0.000000 1.000000
vn 0.000000 0.000000 1.000000
vn 0.000000 0.000000 1.000000
vn 0.000000 0.000000 1.000000
vn 0.000000 0.000000 1.000000
vn 0.000000 0.000000 1.000000
vn 0.000000 0.000000 1.000000
vn -0.000000 0.000000 1.000000
vn 0.000000 0.000000 1.000000
vn -0.000000 0.000000 1.000000
s 1
g initialShadingGroup pCube2
f 8/68/1 4/54/2 11/52/3 14/67/4
s 2
f 19/48/5 24/63/6 31/57/7 28/42/8
s 3
f 27/44/9 32/60/10 13/64/11 12/50/12
s 4
f 23/61/13 20/46/14 3/56/15 5/71/16
f 3/56/15 2/55/17 6/70/18 5/71/16
s 1
f 2/55/19 1/53/20 7/69/21 6/70/22
f 1/53/20 4/54/2 8/68/1 7/69/21
f 11/52/3 10/51/23 15/66/24 14/67/4
f 10/51/23 9/49/25 16/74/26 15/66/24
s 3
f 9/73/27 12/50/12 13/64/11 16/65/28
s 2
f 19/48/5 18/47/29 21/72/30 24/63/6
f 18/47/29 17/45/31 22/76/32 21/72/30
s 4
f 17/75/33 20/46/14 23/61/13 22/62/34
s 3
f 27/44/9 26/43/35 29/59/36 32/60/10
s 2
f 26/43/37 25/41/38 30/58/39 29/59/40
f 25/41/38 28/42/8 31/57/7 30/58/39
s 5
f 1/19/41 39/33/42 4/2/43
s 6
f 34/1/44 35/4/45 36/6/46 33/7/47
f 5/10/48 34/1/44 33/7/47 23/11/49
f 32/13/50 36/6/46 35/4/45 13/16/51
f 8/18/52 34/1/44 7/20/53
f 14/22/54 35/4/45 34/1/44 8/18/52
f 15/24/55 35/4/45 14/22/54
f 29/26/56 36/6/46 32/13/50
f 33/7/47 36/6/46 31/28/57 24/30/58
f 22/32/59 33/7/47 21/34/60
f 6/35/61 34/1/44 5/10/48
f 7/20/53 34/1/44 6/35/61
f 13/16/51 35/4/45 16/36/62
f 16/36/62 35/4/45 15/24/55
f 36/6/46 30/37/63 31/28/57
f 29/26/56 30/37/63 36/6/46
f 23/11/49 33/7/47 22/32/59
f 21/34/60 33/7/47 24/30/58
s 5
f 17/27/64 38/38/65 20/14/66
f 20/14/66 38/38/65 39/33/42 3/15/67
f 25/31/68 26/29/69 37/39/70
f 40/40/71 37/39/70 27/9/72 12/12/73
f 10/21/74 40/40/71 9/23/75
f 4/2/43 39/33/42 40/40/71 11/3/76
f 39/33/42 38/38/65 37/39/70 40/40/71
f 28/8/77 37/39/70 38/38/65 19/5/78
f 11/3/76 40/40/71 10/21/74
f 9/23/75 40/40/71 12/12/73
f 3/15/67 39/33/42 2/17/79
f 2/17/79 39/33/42 1/19/41
f 19/5/78 38/38/65 18/25/80
f 18/25/80 38/38/65 17/27/64
f 37/39/70 26/29/69 27/9/72
f 25/31/68 37/39/70 28/8/77
