# Wavefront Obj file
# 
# verts: 16 uv-s: 28
mtllib Ingredient Stand.mtl

g pCube16
#pivot 0.000000 0.000000 0.000000

v -1.650678 0.064658 6.560727
v 1.650678 0.064658 6.560727
v -1.650678 5.820863 6.560727
v 1.650678 5.820863 6.560727
v -1.650678 5.820863 -6.560727
v 1.650678 5.820863 -6.560727
v -1.650678 0.064658 -6.560727
v 1.650678 0.064658 -6.560727
v -1.650678 2.942761 6.560727
v 1.650678 2.942761 6.560727
v 1.650678 2.942761 -6.560727
v -1.650678 2.942761 -6.560727
v 4.540958 0.064658 -6.560727
v 4.540958 0.064658 6.560727
v 4.540958 2.942761 -6.560727
v 4.540958 2.942761 6.560727
# 16 positions

vt 0.747654 0.509289
vt 0.872971 0.509289
vt 0.872971 0.618539
vt 0.747654 0.618539
vt 0.747654 0.743855
vt 0.249576 0.743855
vt 0.249577 0.618538
vt 0.124260 0.618538
vt 0.124260 0.509289
vt 0.249577 0.509288
vt 0.249577 0.400038
vt 0.249577 0.274722
vt 0.747654 0.274722
vt 0.747654 0.400038
vt 0.747654 0.853105
vt 0.249576 0.853105
vt 0.872971 0.400039
vt 0.747654 0.165010
vt 0.249576 0.165010
vt 0.249576 0.055760
vt 0.747655 0.055760
vt 0.124260 0.400039
vt 0.014547 0.509289
vt 0.014549 0.400039
vt 0.747654 0.962817
vt 0.249576 0.962818
vt 0.982683 0.400038
vt 0.982683 0.509289
# 28 texture coordinates

vn 0.000000 0.000000 1.000000
vn 0.000000 0.000000 1.000000
vn 0.000000 0.000000 1.000000
vn 0.000000 0.000000 1.000000
vn 0.000000 1.000000 0.000000
vn 0.000000 1.000000 0.000000
vn 0.000000 1.000000 0.000000
vn 0.000000 1.000000 0.000000
vn 0.000000 0.000000 -1.000000
vn 0.000000 0.000000 -1.000000
vn 0.000000 0.000000 -1.000000
vn 0.000000 0.000000 -1.000000
vn 0.000000 -1.000000 0.000000
vn 0.000000 -1.000000 0.000000
vn 0.000000 -1.000000 0.000000
vn 0.000000 -1.000000 0.000000
vn 1.000000 0.000000 0.000000
vn 1.000000 0.000000 0.000000
vn 1.000000 0.000000 0.000000
vn 1.000000 0.000000 0.000000
vn -1.000000 0.000000 0.000000
vn -1.000000 0.000000 0.000000
vn -1.000000 0.000000 0.000000
vn -1.000000 0.000000 0.000000
vn 0.000000 0.000000 1.000000
vn 0.000000 0.000000 1.000000
vn 1.000000 0.000000 0.000000
vn 1.000000 0.000000 0.000000
vn 1.000000 0.000000 0.000000
vn 1.000000 0.000000 0.000000
vn 0.000000 0.000000 -1.000000
vn 0.000000 0.000000 -1.000000
vn -1.000000 0.000000 0.000000
vn -1.000000 0.000000 0.000000
vn 0.000000 -1.000000 0.000000
vn 0.000000 -1.000000 0.000000
vn 0.000000 0.000000 -1.000000
vn 0.000000 0.000000 -1.000000
vn 0.000000 1.000000 0.000000
vn 0.000000 1.000000 0.000000
vn 0.000000 1.000000 0.000000
vn 0.000000 1.000000 0.000000
vn 0.000000 0.000000 1.000000
vn 0.000000 0.000000 1.000000
# 44 normals

usemtl lambert34SG
s 1
f 9/1/1 10/2/2 4/3/3 3/4/4
f 1/14/25 2/17/26 10/2/2 9/1/1
f 10/2/2 2/17/26 14/27/43 16/28/44
s 2
f 3/4/5 4/5/6 6/6/7 5/7/8
s 3
f 5/7/9 6/8/10 11/9/11 12/10/12
f 12/10/12 11/9/11 8/22/31 7/11/32
f 8/22/31 11/9/11 15/23/37 13/24/38
s 4
f 7/11/13 8/12/14 2/13/15 1/14/16
f 2/13/15 8/12/14 13/19/35 14/18/36
s 5
f 10/15/17 11/16/18 6/6/19 4/5/20
s 6
f 12/10/21 9/1/22 3/4/23 5/7/24
f 7/11/33 1/14/34 9/1/22 12/10/21
s 7
f 14/18/27 13/19/28 15/20/29 16/21/30
s 8
f 11/16/39 10/15/40 16/25/41 15/26/42

# 14 faces
