# Wavefront Obj file
# 
# verts: 87 uv-s: 169
mtllib Potion 3.mtl

g pCylinder10
#pivot 0.000000 0.000000 0.000000

v 0.577298 -0.690603 -0.614871
v 0.603426 -0.725854 -1.082189
v -0.090557 -0.671992 -0.979955
v -0.594603 -0.770340 -1.050151
v -0.853566 -0.750808 -0.500558
v -1.189207 -0.770340 -0.020268
v -0.809008 -0.795890 0.450127
v -0.608641 -0.768743 1.082189
v -0.103772 -0.741637 0.874746
v 0.592619 -0.767218 1.044198
v 0.799459 -0.635376 0.382296
v 1.189207 -0.770340 -0.020268
v 0.124032 0.560324 -0.070105
v 0.073639 0.510388 -0.128360
v 0.003514 0.494217 -0.153491
v -0.067552 0.516144 -0.138767
v -0.120518 0.570293 -0.088130
v -0.141191 0.642156 -0.015150
v -0.124032 0.712476 0.060618
v -0.073639 0.762413 0.118873
v -0.003514 0.778584 0.144004
v 0.067552 0.756657 0.129279
v 0.120518 0.702508 0.078643
v 0.141191 0.630645 0.005663
v 0.000000 -0.550804 -0.020268
v 0.133223 -0.038140 -0.081660
v 0.076916 -0.038140 -0.137966
v 0.000000 -0.038140 -0.158576
v -0.076916 -0.038140 -0.137966
v -0.133223 -0.038140 -0.081660
v -0.153833 -0.038140 -0.004744
v -0.133223 -0.038140 0.072173
v -0.076916 -0.038140 0.128479
v 0.000000 -0.038140 0.149089
v 0.076916 -0.038140 0.128479
v 0.133223 -0.038140 0.072173
v 0.153833 -0.038140 -0.004744
v 0.116448 0.570193 -0.646677
v 0.068040 0.520729 -0.652762
v 0.001400 0.502259 -0.659478
v -0.065615 0.519732 -0.665025
v -0.115048 0.568467 -0.667918
v -0.133654 0.635404 -0.667382
v -0.116448 0.702608 -0.663559
v -0.068040 0.752072 -0.657474
v -0.001400 0.770541 -0.650758
v 0.065615 0.753069 -0.645211
v 0.115048 0.704334 -0.642319
v 0.133654 0.637397 -0.642855
v 0.138453 0.557682 -0.693062
v 0.080897 0.498871 -0.700297
v 0.001665 0.476911 -0.708282
v -0.078014 0.497686 -0.714877
v -0.136788 0.555630 -0.718317
v -0.158910 0.635215 -0.717680
v -0.138453 0.715119 -0.713135
v -0.080897 0.773930 -0.705899
v -0.001665 0.795890 -0.697914
v 0.078014 0.775114 -0.691320
v 0.136788 0.717171 -0.687880
v 0.158910 0.637585 -0.688517
v 0.508697 -0.653821 -0.562074
v 0.531721 -0.684883 -0.973861
v -0.079796 -0.637422 -0.883775
v -0.523947 -0.724083 -0.945630
v -0.752137 -0.706872 -0.461344
v -1.047894 -0.724083 -0.038127
v -0.712873 -0.746597 0.376371
v -0.536316 -0.722676 0.933325
v -0.091441 -0.698791 0.750532
v 0.522199 -0.721332 0.899849
v 0.704459 -0.605157 0.316600
v 1.047894 -0.724083 -0.038127
v 0.000000 -0.530635 -0.038127
v 0.323808 -0.260007 -0.211399
v 0.186951 -0.331918 -0.348256
v 0.000000 -0.260007 -0.398350
v -0.186951 -0.331918 -0.348256
v -0.323808 -0.260007 -0.211399
v -0.373903 -0.331918 -0.024448
v -0.323808 -0.260007 0.162504
v -0.186951 -0.331918 0.299361
v 0.000000 -0.260007 0.349455
v 0.186951 -0.331918 0.299361
v 0.323808 -0.260007 0.162504
v 0.373903 -0.331918 -0.024448
v -0.016176 -0.341862 -0.036759
# 87 positions

vt 0.248319 0.921486
vt 0.247605 0.943046
vt 0.099109 0.936904
vt 0.086252 0.915618
vt 0.246697 0.964599
vt 0.102656 0.957247
vt 0.246944 0.705806
vt 0.247677 0.727365
vt 0.097521 0.730007
vt 0.102784 0.710154
vt 0.248340 0.748930
vt 0.083474 0.750301
vt 0.248853 0.770490
vt 0.064507 0.771319
vt 0.249169 0.792066
vt 0.045784 0.792647
vt 0.249279 0.813631
vt 0.032391 0.813606
vt 0.249254 0.835204
vt 0.027996 0.833784
vt 0.249178 0.856780
vt 0.033876 0.853459
vt 0.249038 0.878345
vt 0.048419 0.873409
vt 0.248783 0.899921
vt 0.067646 0.894179
vt 0.902873 0.747985
vt 0.879240 0.783100
vt 0.806176 0.802233
vt 0.843987 0.723557
vt 0.807837 0.693597
vt 0.761945 0.724076
vt 0.713410 0.745685
vt 0.719291 0.800224
vt 0.706297 0.858876
vt 0.754977 0.867242
vt 0.800817 0.913294
vt 0.848717 0.870932
vt 0.899363 0.858200
vt 0.463421 0.084808
vt 0.574147 0.031498
vt 0.421087 0.330411
vt 0.400546 0.326482
vt 0.664772 0.192304
vt 0.437326 0.343576
vt 0.678301 0.536396
vt 0.648291 0.668945
vt 0.431044 0.413093
vt 0.443830 0.396598
vt 0.491925 0.699117
vt 0.412557 0.422821
vt 0.348114 0.753610
vt 0.391785 0.424326
vt 0.221641 0.657713
vt 0.372291 0.417013
vt 0.064761 0.583252
vt 0.357609 0.402176
vt 0.091905 0.442528
vt 0.351167 0.382377
vt 0.032288 0.263929
vt 0.353030 0.361567
vt 0.189562 0.166143
vt 0.363464 0.343390
vt 0.246703 0.026351
vt 0.380189 0.330808
vt 0.491618 0.776189
vt 0.509503 0.755726
vt 0.664687 0.761511
vt 0.662259 0.781937
vt 0.517855 0.734761
vt 0.667540 0.741141
vt 0.516826 0.992354
vt 0.511905 0.970455
vt 0.667665 0.966699
vt 0.666559 0.987239
vt 0.496427 0.948362
vt 0.668072 0.946134
vt 0.474414 0.926629
vt 0.667531 0.925572
vt 0.451712 0.905486
vt 0.666140 0.905050
vt 0.434380 0.884553
vt 0.664248 0.884568
vt 0.427026 0.863217
vt 0.662331 0.864089
vt 0.431587 0.841240
vt 0.660872 0.843571
vt 0.446841 0.818992
vt 0.660255 0.823011
vt 0.468761 0.797164
vt 0.660709 0.802447
vt 0.891510 0.665969
vt 0.860993 0.641421
vt 0.874923 0.614401
vt 0.911246 0.643646
vt 0.825514 0.624744
vt 0.832724 0.594556
vt 0.788929 0.945710
vt 0.827567 0.943991
vt 0.834714 0.974279
vt 0.788769 0.976325
vt 0.864345 0.932069
vt 0.878457 0.960096
vt 0.896469 0.910554
vt 0.916674 0.934503
vt 0.921520 0.881114
vt 0.946499 0.899484
vt 0.937946 0.846065
vt 0.966083 0.857805
vt 0.945178 0.807982
vt 0.974748 0.812522
vt 0.943458 0.769151
vt 0.972780 0.766353
vt 0.933461 0.731492
vt 0.960973 0.721575
vt 0.915919 0.696583
vt 0.940194 0.680061
vt 0.888786 0.083213
vt 0.870431 0.110486
vt 0.813685 0.125346
vt 0.843052 0.064242
vt 0.814974 0.040972
vt 0.779333 0.064644
vt 0.741637 0.081428
vt 0.746204 0.123786
vt 0.736112 0.169340
vt 0.773920 0.175836
vt 0.809524 0.211604
vt 0.846724 0.178703
vt 0.886060 0.168814
vt 0.895707 0.232938
vt 0.960002 0.232938
vt 0.857494 0.300623
vt 0.828671 0.287374
vt 0.956501 0.327901
vt 0.862043 0.332198
vt 0.983885 0.390600
vt 0.868112 0.362989
vt 0.926576 0.447574
vt 0.848073 0.386512
vt 0.886306 0.512552
vt 0.830476 0.411846
vt 0.807407 0.507512
vt 0.800141 0.411086
vt 0.723676 0.526669
vt 0.770205 0.415920
vt 0.697224 0.461564
vt 0.751236 0.392553
vt 0.619871 0.410936
vt 0.728352 0.373065
vt 0.655661 0.328004
vt 0.732508 0.343245
vt 0.635461 0.256828
vt 0.734097 0.313325
vt 0.738575 0.219538
vt 0.760282 0.298648
vt 0.825321 0.373694
vt 0.809215 0.385168
vt 0.799229 0.348390
vt 0.835218 0.356599
vt 0.789390 0.385400
vt 0.771235 0.377212
vt 0.760942 0.360087
vt 0.758940 0.340127
vt 0.768674 0.322530
vt 0.785034 0.310726
vt 0.805867 0.310726
vt 0.823876 0.319498
vt 0.833581 0.336879
# 169 texture coordinates

vn 0.828049 0.394278 -0.398597
vn 0.540830 0.450846 -0.710099
vn 0.646928 -0.531103 -0.547187
vn 0.931787 -0.245207 -0.267669
vn -0.007701 0.459077 -0.888363
vn 0.014272 -0.698216 -0.715745
vn -0.458260 0.461201 -0.759796
vn -0.627635 -0.541188 -0.559634
vn -0.775187 0.436845 -0.456345
vn -0.923880 -0.262842 -0.278138
vn -0.892717 0.450231 0.018644
vn -0.999863 0.003978 -0.016084
vn -0.803791 0.410486 0.430607
vn -0.930773 0.273576 0.242523
vn -0.458060 0.444832 0.769614
vn -0.645854 0.555846 0.523362
vn 0.004209 0.407582 0.913159
vn -0.012423 0.713880 0.700158
vn 0.401552 0.452223 0.796398
vn 0.628435 0.550890 0.549173
vn 0.777560 0.446196 0.443069
vn 0.923176 0.277669 0.265793
vn 0.889375 0.455267 -0.041751
vn 0.999796 0.019921 -0.003263
vn 0.585848 -0.592355 -0.553080
vn 0.802760 -0.498238 -0.327620
vn 0.030050 -0.999470 -0.012513
vn 0.026107 -0.360655 -0.932334
vn -0.351660 -0.461970 -0.814198
vn -0.780137 -0.433221 -0.451337
vn -0.851113 -0.524932 -0.007293
vn -0.767174 -0.489476 0.414556
vn -0.281792 -0.594321 0.753244
vn 0.056442 -0.478878 0.876065
vn 0.501265 -0.512465 0.697218
vn 0.800982 -0.344146 0.489890
vn 0.859334 -0.507450 0.063561
vn 0.471553 -0.850376 0.233448
vn 0.839704 -0.487666 0.238914
vn -0.023995 -0.972754 0.230594
vn -0.500696 -0.834734 0.229178
vn -0.842670 -0.488033 0.227444
vn -0.973948 -0.016792 0.226151
vn -0.854530 0.466877 0.227604
vn -0.504274 0.831579 0.232775
vn -0.016426 0.970648 0.239943
vn 0.472803 0.846179 0.245843
vn 0.832857 0.494947 0.247743
vn 0.969527 0.008123 0.244851
vn 0.411430 -0.780738 0.470290
vn 0.748125 -0.459395 0.478817
vn -0.033299 -0.887023 0.460524
vn -0.463975 -0.761708 0.452247
vn -0.774392 -0.446909 0.447872
vn -0.893393 -0.023057 0.448684
vn -0.791469 0.408722 0.454449
vn -0.486195 0.740813 0.463477
vn -0.047731 0.879695 0.473136
vn 0.408095 0.776071 0.480804
vn 0.749790 0.450444 0.484680
vn 0.875061 -0.005845 0.483977
vn 0.545823 -0.436673 -0.715118
vn 0.782590 -0.428667 -0.451439
vn 0.030050 -0.999470 -0.012513
vn 0.020955 -0.340645 -0.939958
vn -0.385619 -0.395188 -0.833741
vn -0.788778 -0.415979 -0.452537
vn -0.897863 -0.440193 -0.008484
vn -0.785210 -0.452172 0.423067
vn -0.372210 -0.464665 0.803459
vn 0.006642 -0.432540 0.901590
vn 0.515719 -0.433895 0.738762
vn 0.813775 -0.323174 0.483041
vn 0.899723 -0.436352 0.009714
vn 0.185582 0.960569 -0.207042
vn 0.228966 0.967082 -0.111031
vn -0.030262 0.984295 -0.173918
vn -0.171467 0.956995 -0.234009
vn -0.182105 0.977689 -0.104699
vn -0.301286 0.953060 0.030046
vn -0.222329 0.968435 0.112714
vn -0.144520 0.956891 0.251941
vn 0.005350 0.968991 0.247037
vn 0.113300 0.954929 0.274360
vn 0.179547 0.979659 0.089616
vn 0.297487 0.953222 -0.053563
vn 0.002471 0.999995 0.001881
# 87 normals

usemtl lambert19SG
f 26/1/1 27/2/2 14/3/3 13/4/4
f 27/2/2 28/5/5 15/6/6 14/3/3
f 28/7/5 29/8/7 16/9/8 15/10/6
f 29/8/7 30/11/9 17/12/10 16/9/8
f 30/11/9 31/13/11 18/14/12 17/12/10
f 31/13/11 32/15/13 19/16/14 18/14/12
f 32/15/13 33/17/15 20/18/16 19/16/14
f 33/17/15 34/19/17 21/20/18 20/18/16
f 34/19/17 35/21/19 22/22/20 21/20/18
f 35/21/19 36/23/21 23/24/22 22/22/20
f 36/23/21 37/25/23 24/26/24 23/24/22
f 37/25/23 26/1/1 13/4/4 24/26/24
f 2/27/25 1/28/26 25/29/27
f 3/30/28 2/27/25 25/29/27
f 4/31/29 3/30/28 25/29/27
f 5/32/30 4/31/29 25/29/27
f 6/33/31 5/32/30 25/29/27
f 7/34/32 6/33/31 25/29/27
f 8/35/33 7/34/32 25/29/27
f 9/36/34 8/35/33 25/29/27
f 10/37/35 9/36/34 25/29/27
f 11/38/36 10/37/35 25/29/27
f 12/39/37 11/38/36 25/29/27
f 1/28/26 12/39/37 25/29/27
f 1/40/26 2/41/25 27/42/2 26/43/1
f 2/41/25 3/44/28 28/45/5 27/42/2
f 3/46/28 4/47/29 29/48/7 28/49/5
f 4/47/29 5/50/30 30/51/9 29/48/7
f 5/50/30 6/52/31 31/53/11 30/51/9
f 6/52/31 7/54/32 32/55/13 31/53/11
f 7/54/32 8/56/33 33/57/15 32/55/13
f 8/56/33 9/58/34 34/59/17 33/57/15
f 9/58/34 10/60/35 35/61/19 34/59/17
f 10/60/35 11/62/36 36/63/21 35/61/19
f 11/62/36 12/64/37 37/65/23 36/63/21
f 12/64/37 1/40/26 26/43/1 37/65/23
f 13/66/4 14/67/3 39/68/38 38/69/39
f 14/67/3 15/70/6 40/71/40 39/68/38
f 15/72/6 16/73/8 41/74/41 40/75/40
f 16/73/8 17/76/10 42/77/42 41/74/41
f 17/76/10 18/78/12 43/79/43 42/77/42
f 18/78/12 19/80/14 44/81/44 43/79/43
f 19/80/14 20/82/16 45/83/45 44/81/44
f 20/82/16 21/84/18 46/85/46 45/83/45
f 21/84/18 22/86/20 47/87/47 46/85/46
f 22/86/20 23/88/22 48/89/48 47/87/47
f 23/88/22 24/90/24 49/91/49 48/89/48
f 24/90/24 13/66/4 38/69/39 49/91/49
f 38/92/39 39/93/38 51/94/50 50/95/51
f 39/93/38 40/96/40 52/97/52 51/94/50
f 40/98/40 41/99/41 53/100/53 52/101/52
f 41/99/41 42/102/42 54/103/54 53/100/53
f 42/102/42 43/104/43 55/105/55 54/103/54
f 43/104/43 44/106/44 56/107/56 55/105/55
f 44/106/44 45/108/45 57/109/57 56/107/56
f 45/108/45 46/110/46 58/111/58 57/109/57
f 46/110/46 47/112/47 59/113/59 58/111/58
f 47/112/47 48/114/48 60/115/60 59/113/59
f 48/114/48 49/116/49 61/117/61 60/115/60
f 49/116/49 38/92/39 50/95/51 61/117/61
f 63/118/62 62/119/63 74/120/64
f 64/121/65 63/118/62 74/120/64
f 65/122/66 64/121/65 74/120/64
f 66/123/67 65/122/66 74/120/64
f 67/124/68 66/123/67 74/120/64
f 68/125/69 67/124/68 74/120/64
f 69/126/70 68/125/69 74/120/64
f 70/127/71 69/126/70 74/120/64
f 71/128/72 70/127/71 74/120/64
f 72/129/73 71/128/72 74/120/64
f 73/130/74 72/129/73 74/120/64
f 62/119/63 73/130/74 74/120/64
f 62/131/63 63/132/62 76/133/75 75/134/76
f 63/132/62 64/135/65 77/136/77 76/133/75
f 64/135/65 65/137/66 78/138/78 77/136/77
f 65/137/66 66/139/67 79/140/79 78/138/78
f 66/139/67 67/141/68 80/142/80 79/140/79
f 67/141/68 68/143/69 81/144/81 80/142/80
f 68/143/69 69/145/70 82/146/82 81/144/81
f 69/145/70 70/147/71 83/148/83 82/146/82
f 70/147/71 71/149/72 84/150/84 83/148/83
f 71/149/72 72/151/73 85/152/85 84/150/84
f 72/151/73 73/153/74 86/154/86 85/152/85
f 73/153/74 62/155/63 75/156/76 86/154/86
f 80/157/80 81/158/81 87/159/87
f 80/157/80 87/159/87 79/160/79
f 87/159/87 81/158/81 82/161/82
f 87/159/87 82/161/82 83/162/83
f 87/159/87 83/162/83 84/163/84
f 87/159/87 84/163/84 85/164/85
f 87/159/87 85/164/85 86/165/86
f 87/159/87 86/165/86 75/166/76
f 87/159/87 75/166/76 76/167/75
f 87/159/87 76/167/75 77/168/77
f 87/159/87 77/168/77 78/169/78
f 87/159/87 78/169/78 79/160/79

# 96 faces
