# Wavefront Obj file
# 
# verts: 50 uv-s: 84
mtllib Balcony.mtl

g pCube7
#pivot 0.000000 0.000000 0.000000

v -3.279152 -0.255891 5.801601
v 3.279152 -0.255891 5.801601
v -3.279152 0.255893 5.801601
v 3.279152 0.255893 5.801601
v -3.279152 0.255893 -5.095311
v 3.279152 0.255893 -5.095311
v -3.279152 -0.255891 -5.095311
v 3.279152 -0.255891 -5.095311
v 0.000000 -0.255891 5.336139
v 0.000000 -0.255891 -5.095311
v 0.000000 0.255893 -5.095311
v 0.000000 0.255893 5.336139
v -3.279152 0.255893 1.586446
v 0.000000 0.255893 1.586446
v 3.279152 0.255893 1.586446
v 3.279152 -0.255891 1.586446
v 0.000000 -0.255891 1.586446
v -3.279152 -0.255891 1.586446
v 11.803487 0.255893 1.586446
v 11.803487 -0.255891 1.586446
v 11.803487 -0.255891 -5.095311
v 11.803487 0.255893 -5.095311
v -11.803489 -0.255891 -5.095311
v -11.803489 -0.255891 1.586446
v -11.803489 0.255893 1.586446
v -11.803489 0.255893 -5.095311
v -3.279152 -0.255891 0.798179
v 0.000000 -0.255891 0.798179
v 3.279152 -0.255891 0.798179
v 11.803487 -0.255891 0.798179
v 11.803487 0.255893 0.798179
v 3.279152 0.255893 0.798179
v 0.000000 0.255893 0.798179
v -3.279152 0.255893 0.798179
v -11.803489 0.255893 0.798179
v -11.803489 -0.255891 0.798179
v 11.803487 3.017199 0.798179
v 3.279152 3.017199 0.798179
v 3.279152 3.017199 1.586446
v 11.803487 3.017199 1.586446
v -3.279152 3.017199 1.586446
v -3.279152 3.017199 0.798179
v -11.803489 3.017199 0.798179
v -11.803489 3.017199 1.586446
v 0.000000 -1.483152 5.336139
v 0.000000 -1.483152 1.586446
v 3.279152 -1.483152 1.586446
v 3.279152 -1.483152 5.801601
v -3.279152 -1.483152 1.586446
v -3.279152 -1.483152 5.801601
# 50 positions

vt 0.922265 0.551628
vt 0.871413 0.500355
vt 0.896911 0.474974
vt 0.947168 0.525457
vt 0.968103 0.547592
vt 0.942276 0.571834
vt 0.938841 0.568364
vt 0.964730 0.544085
vt 0.789578 0.815120
vt 0.738580 0.761745
vt 0.765268 0.736246
vt 0.816266 0.789621
vt 0.845634 0.820358
vt 0.818946 0.845857
vt 0.815481 0.842231
vt 0.842169 0.816732
vt 0.968386 0.703074
vt 0.915010 0.754072
vt 0.911546 0.750446
vt 0.964922 0.699448
vt 0.666041 0.985014
vt 0.719417 0.934016
vt 0.722881 0.937642
vt 0.669506 0.988640
vt 0.788793 0.867730
vt 0.792258 0.871356
vt 0.711892 0.787244
vt 0.762890 0.840619
vt 0.914324 0.594017
vt 0.917794 0.597420
vt 0.845882 0.525542
vt 0.895871 0.576285
vt 0.655586 0.195082
vt 0.637107 0.213452
vt 0.586538 0.162579
vt 0.605019 0.144209
vt 0.749897 0.377833
vt 0.733092 0.360972
vt 0.758184 0.335433
vt 0.776238 0.353161
vt 0.707412 0.385877
vt 0.724969 0.404114
vt 0.535744 0.212991
vt 0.586254 0.263923
vt 0.567752 0.282269
vt 0.517242 0.231340
vt 0.185586 0.129537
vt 0.134588 0.076161
vt 0.203965 0.009875
vt 0.254963 0.063250
vt 0.834645 0.669959
vt 0.885643 0.723335
vt 0.533585 0.354863
vt 0.464208 0.421149
vt 0.460744 0.417523
vt 0.530120 0.351236
vt 0.081212 0.127159
vt 0.132210 0.180535
vt 0.062834 0.246821
vt 0.011836 0.193445
vt 0.407368 0.468521
vt 0.410832 0.472147
vt 0.341455 0.538433
vt 0.337991 0.534807
vt 0.693514 0.906906
vt 0.642516 0.853530
vt 0.939019 0.672337
vt 0.739365 0.709135
vt 0.808742 0.642849
vt 0.712677 0.734634
vt 0.685990 0.760133
vt 0.616613 0.826419
vt 0.640138 0.957904
vt 0.181960 0.133001
vt 0.457117 0.420987
vt 0.258589 0.059786
vt 0.533746 0.347772
vt 0.135836 0.177070
vt 0.410994 0.465056
vt 0.059208 0.250286
vt 0.334365 0.538272
vt 0.611715 0.238686
vt 0.776669 0.317063
vt 0.688910 0.404230
# 84 texture coordinates

vn 0.000000 0.000000 1.000000
vn 0.000000 0.000000 1.000000
vn -0.140537 0.000000 0.990075
vn -0.140537 0.000000 0.990075
vn 0.000000 1.000000 0.000000
vn 0.000000 1.000000 0.000000
vn 0.000000 1.000000 0.000000
vn 0.000000 1.000000 0.000000
vn 0.000000 0.000000 -1.000000
vn 0.000000 0.000000 -1.000000
vn 0.000000 0.000000 -1.000000
vn 0.000000 0.000000 -1.000000
vn 0.000000 -1.000000 0.000000
vn 0.000000 -1.000000 0.000000
vn 0.000000 -1.000000 0.000000
vn 0.000000 -1.000000 0.000000
vn 1.000000 0.000000 0.000000
vn 1.000000 0.000000 0.000000
vn 1.000000 0.000000 0.000000
vn 1.000000 0.000000 0.000000
vn -1.000000 0.000000 0.000000
vn -1.000000 0.000000 0.000000
vn -1.000000 0.000000 0.000000
vn -1.000000 0.000000 0.000000
vn 0.000000 -1.000000 0.000000
vn 0.000000 -1.000000 0.000000
vn 0.000000 0.000000 -1.000000
vn 0.000000 0.000000 -1.000000
vn 0.000000 1.000000 0.000000
vn 0.000000 1.000000 0.000000
vn 0.140537 0.000000 0.990075
vn 0.140537 0.000000 0.990075
vn 0.000000 1.000000 0.000000
vn 0.000000 1.000000 0.000000
vn 0.000000 1.000000 0.000000
vn 1.000000 0.000000 0.000000
vn 1.000000 0.000000 0.000000
vn 1.000000 0.000000 0.000000
vn 1.000000 0.000000 0.000000
vn 0.000000 -1.000000 0.000000
vn 0.000000 -1.000000 0.000000
vn 0.000000 -1.000000 0.000000
vn 0.000000 -1.000000 0.000000
vn 0.000000 -1.000000 0.000000
vn 0.000000 -1.000000 0.000000
vn -1.000000 0.000000 0.000000
vn -1.000000 0.000000 0.000000
vn -1.000000 0.000000 0.000000
vn -1.000000 0.000000 0.000000
vn 0.000000 0.000000 1.000000
vn 0.000000 0.000000 1.000000
vn 0.000000 0.000000 1.000000
vn 0.000000 0.000000 1.000000
vn 0.000000 -1.000000 0.000000
vn 0.000000 -1.000000 0.000000
vn 0.000000 0.000000 -1.000000
vn 0.000000 0.000000 -1.000000
vn 0.000000 1.000000 0.000000
vn 0.000000 1.000000 0.000000
vn 0.000000 1.000000 0.000000
vn 0.000000 1.000000 0.000000
vn 0.000000 -1.000000 0.000000
vn 0.000000 -1.000000 0.000000
vn 0.000000 0.000000 1.000000
vn 0.000000 0.000000 1.000000
vn 0.000000 0.000000 1.000000
vn 0.000000 0.000000 1.000000
vn 0.000000 1.000000 0.000000
vn 0.000000 1.000000 0.000000
vn 0.000000 1.000000 0.000000
vn 0.000000 1.000000 0.000000
vn 0.000000 0.000000 -1.000000
vn 0.000000 0.000000 -1.000000
vn 0.000000 -1.000000 0.000000
vn 0.000000 -1.000000 0.000000
vn 0.000000 -1.000000 0.000000
vn 0.000000 -1.000000 0.000000
vn 1.000000 0.000000 0.000000
vn 1.000000 0.000000 0.000000
vn 0.000000 1.000000 0.000000
vn 0.000000 1.000000 0.000000
vn 0.000000 1.000000 0.000000
vn 0.000000 1.000000 0.000000
vn 0.000000 1.000000 0.000000
vn 0.000000 1.000000 0.000000
vn 0.000000 1.000000 0.000000
vn -1.000000 0.000000 0.000000
vn -1.000000 0.000000 0.000000
vn 0.000000 -1.000000 0.000000
vn 0.000000 0.000000 -1.000000
vn 0.000000 0.000000 -1.000000
vn 0.000000 0.000000 -1.000000
vn 0.000000 0.000000 -1.000000
vn -1.000000 0.000000 0.000000
vn -1.000000 0.000000 0.000000
vn -1.000000 0.000000 0.000000
vn -1.000000 0.000000 0.000000
vn 0.000000 0.000000 1.000000
vn 0.000000 0.000000 1.000000
vn 1.000000 0.000000 0.000000
vn 1.000000 0.000000 0.000000
vn 1.000000 0.000000 0.000000
vn 1.000000 0.000000 0.000000
vn 1.000000 0.000000 0.000000
vn 1.000000 0.000000 0.000000
vn 0.000000 0.000000 -1.000000
vn 0.000000 0.000000 -1.000000
vn 0.000000 0.000000 -1.000000
vn 0.000000 0.000000 -1.000000
vn -1.000000 0.000000 0.000000
vn -1.000000 0.000000 0.000000
vn 0.000000 0.000000 1.000000
vn 0.000000 0.000000 1.000000
vn 0.000000 0.000000 -1.000000
vn 0.000000 0.000000 -1.000000
vn 0.000000 0.000000 -1.000000
vn 0.000000 0.000000 -1.000000
vn 1.000000 0.000000 0.000000
vn 1.000000 0.000000 0.000000
vn -0.140537 0.000000 0.990075
vn -0.140537 0.000000 0.990075
vn -0.140537 0.000000 0.990075
vn 0.000000 0.000000 -1.000000
vn 0.000000 0.000000 -1.000000
vn 0.140537 0.000000 0.990075
vn 0.140537 0.000000 0.990075
vn 0.140537 0.000000 0.990075
vn -1.000000 0.000000 0.000000
vn -1.000000 0.000000 0.000000
# 129 normals

usemtl lambert7SG
s 1
f 12/1/1 9/2/2 2/3/3 4/4/4
f 1/31/31 9/2/2 12/1/1 3/32/32
s 2
f 32/5/5 33/6/6 14/7/7 15/8/8
f 13/29/29 14/7/7 33/6/6 34/30/30
f 3/32/33 12/1/34 14/7/7 13/29/29
f 15/8/8 14/7/7 12/1/34 4/4/35
f 6/11/80 32/68/5 31/69/81 22/51/82
f 11/10/83 33/70/6 32/68/5 6/11/80
f 34/71/30 33/70/6 11/10/83 5/27/84
f 35/72/85 34/71/30 5/27/84 26/66/86
s 3
f 10/9/9 11/10/10 6/11/11 8/12/12
f 5/27/27 11/10/10 10/9/9 7/28/28
f 8/12/12 6/11/11 22/51/56 21/52/57
f 5/27/27 7/28/28 23/65/72 26/66/73
s 4
f 16/13/13 17/14/14 28/15/15 29/16/16
f 27/25/25 28/15/15 17/14/14 18/26/26
f 16/13/13 29/16/16 30/19/54 20/18/55
f 36/22/62 27/25/25 18/26/26 24/23/63
f 7/28/74 10/9/75 28/15/15 27/25/25
f 29/16/16 28/15/15 10/9/75 8/12/76
f 30/19/54 29/16/16 8/12/76 21/52/77
f 7/28/74 27/25/25 36/22/62 23/65/89
s 5
f 19/17/17 20/18/18 30/19/19 31/20/20
f 31/20/20 30/19/19 21/52/78 22/67/79
f 19/50/17 31/76/20 37/77/100 40/56/101
s 6
f 35/21/21 36/22/22 24/23/23 25/24/24
f 23/65/87 36/22/22 35/21/21 26/73/88
f 35/80/21 25/59/24 44/64/110 43/81/111
s 7
f 2/33/36 16/34/37 15/35/38 4/36/39
f 16/34/37 2/33/36 48/83/118 47/39/119
s 8
f 45/37/40 46/38/41 47/39/42 48/40/43
f 49/41/44 46/38/41 45/37/40 50/42/45
s 9
f 13/43/46 18/44/47 1/45/48 3/46/49
f 1/45/48 18/44/47 49/41/128 50/84/129
s 10
f 15/47/50 16/48/51 20/49/52 19/50/53
f 15/47/50 19/50/53 40/56/98 39/55/99
s 11
f 37/53/58 38/54/59 39/55/60 40/56/61
s 12
f 18/57/64 13/58/65 25/59/66 24/60/67
f 25/59/66 13/58/65 41/61/112 44/64/113
s 13
f 41/61/68 42/62/69 43/63/70 44/64/71
s 14
f 31/69/90 32/68/91 38/54/92 37/53/93
s 15
f 32/74/94 15/47/95 39/55/96 38/75/97
s 16
f 13/58/102 34/78/103 42/79/104 41/61/105
s 17
f 34/71/106 35/72/107 43/63/108 42/62/109
s 18
f 17/82/114 16/34/115 47/39/116 46/38/117
f 18/44/123 17/82/114 46/38/117 49/41/124
s 19
f 2/3/3 9/2/120 45/37/121 48/40/122
s 20
f 9/2/125 1/31/31 50/42/126 45/37/127

# 48 faces
