# Wavefront Obj file
# 
# verts: 56 uv-s: 76
mtllib Book Closed.mtl

g pCube5
#pivot 0.000000 0.000000 0.000000

v -0.233200 -0.842182 0.659518
v 0.233200 -0.842182 0.659518
v -0.223959 0.915947 0.592484
v 0.223959 0.915947 0.592484
v -0.187263 0.842182 -0.500000
v 0.187263 0.842182 -0.500000
v -0.212060 -0.842182 -0.542951
v 0.212060 -0.842182 -0.542951
v -0.149810 -0.842182 0.500000
v -0.149810 -0.842182 -0.500000
v -0.149810 0.842182 -0.500000
v -0.149810 0.842182 0.500000
v 0.153555 -0.842182 0.500000
v 0.153555 0.842182 0.500000
v 0.153555 0.842182 -0.500000
v 0.153555 -0.842182 -0.500000
v -0.187263 0.767175 0.500000
v -0.149810 0.767176 0.500000
v 0.153555 0.767175 0.500000
v 0.187263 0.767175 0.500000
v 0.187263 0.767176 -0.500000
v 0.153555 0.767176 -0.500000
v -0.149810 0.767175 -0.500000
v -0.187263 0.767176 -0.500000
v -0.187263 -0.765087 0.500000
v -0.149810 -0.765087 0.500000
v 0.153555 -0.765087 0.500000
v 0.187263 -0.765087 0.500000
v 0.187263 -0.765087 -0.500000
v 0.153555 -0.765087 -0.500000
v -0.149810 -0.765087 -0.500000
v -0.187263 -0.765087 -0.500000
v -0.187263 0.842182 0.409730
v -0.149810 0.842182 0.409730
v 0.153555 0.842182 0.409730
v 0.187263 0.842182 0.409730
v 0.187263 0.767175 0.409730
v 0.187263 -0.765087 0.409730
v 0.187263 -0.842182 0.409730
v 0.153555 -0.842182 0.409730
v -0.149810 -0.842182 0.409730
v -0.187263 -0.842182 0.409730
v -0.187263 -0.765087 0.409730
v -0.187263 0.767175 0.409730
v -0.187263 -0.842182 -0.455996
v -0.149810 -0.842182 -0.455996
v 0.153555 -0.842182 -0.455996
v 0.187263 -0.842182 -0.455996
v 0.187263 -0.765087 -0.455996
v 0.187263 0.767176 -0.455996
v 0.187263 0.842182 -0.455996
v 0.153555 0.842182 -0.455996
v -0.149810 0.842182 -0.455996
v -0.187263 0.842182 -0.455996
v -0.187263 0.767176 -0.455996
v -0.187263 -0.765087 -0.455996
# 56 positions

vt 0.435470 0.572201
vt 0.426896 0.563795
vt 0.582450 0.407608
vt 0.590579 0.416092
vt 0.766273 0.606396
vt 0.613377 0.747226
vt 0.456020 0.585869
vt 0.603849 0.437163
vt 0.782857 0.622901
vt 0.629395 0.765099
vt 0.621357 0.756118
vt 0.774525 0.614586
vt 0.372281 0.204596
vt 0.222942 0.365409
vt 0.061307 0.192607
vt 0.207568 0.055948
vt 0.620569 0.378881
vt 0.611591 0.372719
vt 0.775018 0.232217
vt 0.783371 0.240469
vt 0.242966 0.778273
vt 0.234915 0.769623
vt 0.391185 0.595847
vt 0.397166 0.604869
vt 0.040757 0.209256
vt 0.201061 0.373811
vt 0.603152 0.775032
vt 0.610538 0.783673
vt 0.445233 0.607985
vt 0.595943 0.766614
vt 0.411045 0.584930
vt 0.418192 0.622714
vt 0.600911 0.393127
vt 0.638963 0.400757
vt 0.784654 0.591100
vt 0.623462 0.427829
vt 0.800565 0.606926
vt 0.792481 0.598932
vt 0.379672 0.184566
vt 0.221884 0.037507
vt 0.218791 0.414913
vt 0.241682 0.396169
vt 0.405320 0.222116
vt 0.421675 0.201049
vt 0.444757 0.196720
vt 0.640653 0.053085
vt 0.967532 0.781677
vt 0.949991 0.797966
vt 0.794165 0.943026
vt 0.774899 0.961312
vt 0.072742 0.613056
vt 0.214327 0.437905
vt 0.175631 0.408189
vt 0.233758 0.387390
vt 0.396115 0.214554
vt 0.412201 0.158243
vt 0.441205 0.186810
vt 0.634437 0.042617
vt 0.958313 0.806868
vt 0.991729 0.779726
vt 0.802508 0.951915
vt 0.771563 0.985350
vt 0.062594 0.606546
vt 0.204477 0.434049
vt 0.012502 0.202536
vt 0.053276 0.184063
vt 0.198999 0.047915
vt 0.214883 0.009332
vt 0.655314 0.022486
vt 0.650162 0.046206
vt 0.784076 0.224774
vt 0.791926 0.233029
vt 0.226963 0.778190
vt 0.234963 0.786478
vt 0.065271 0.622167
vt 0.041290 0.625941
# 76 texture coordinates

vn 0.184595 -0.092173 0.978483
vn 0.002625 -0.001310 0.999996
vn -0.002531 -0.001138 0.999996
vn -0.194422 -0.087373 0.977019
vn 0.000000 1.000000 0.000000
vn 0.000000 1.000000 0.000000
vn 0.004510 0.999988 -0.001871
vn -0.004374 0.999989 -0.001633
vn 0.000000 0.000000 -1.000000
vn 0.000000 0.000000 -1.000000
vn 0.000000 0.000000 -1.000000
vn 0.000000 0.000000 -1.000000
vn 0.000000 -1.000000 0.000000
vn 0.000000 -1.000000 0.000000
vn 0.000000 -1.000000 0.000000
vn 0.000000 -1.000000 0.000000
vn 0.999452 -0.025455 -0.021151
vn 1.000000 -0.000531 -0.000441
vn 1.000000 0.000000 0.000000
vn 1.000000 0.000000 0.000000
vn -1.000000 0.000000 0.000000
vn -1.000000 0.000000 0.000000
vn -1.000000 -0.000531 -0.000441
vn -0.999452 -0.025455 -0.021151
vn 0.000000 -1.000000 0.000000
vn 0.000000 -1.000000 0.000000
vn 0.000000 0.000000 -1.000000
vn 0.000000 0.000000 -1.000000
vn 0.089744 0.995269 -0.037235
vn 0.000000 1.000000 0.000000
vn 0.059656 -0.029788 0.997774
vn 0.511292 -0.255302 0.820610
vn -0.063343 -0.028466 0.997586
vn -0.541951 -0.243551 0.804346
vn 0.000000 1.000000 0.000000
vn -0.095846 0.994753 -0.035790
vn 0.000000 0.000000 -1.000000
vn 0.000000 0.000000 -1.000000
vn 0.000000 -1.000000 0.000000
vn 0.000000 -1.000000 0.000000
vn 0.092320 0.044849 0.994719
vn 0.003922 0.001905 0.999991
vn -0.003686 0.001612 0.999992
vn -0.095558 0.041780 0.994547
vn 1.000000 0.000701 -0.000598
vn 1.000000 0.000245 0.000429
vn -0.026476 0.011576 -0.999582
vn -0.001990 0.000870 -0.999998
vn 0.002046 0.000994 -0.999997
vn 0.024759 0.012028 -0.999621
vn -1.000000 0.000245 0.000429
vn -1.000000 0.000701 -0.000598
vn 0.743317 0.361106 0.563101
vn 0.310295 0.150742 0.938613
vn -0.320164 0.139984 0.936963
vn -0.767843 0.335721 0.545627
vn 0.998925 0.035255 -0.030110
vn 0.999796 0.010006 0.017530
vn -0.081550 0.035656 -0.996031
vn -0.415210 0.181541 -0.891428
vn 0.078776 0.038270 -0.996157
vn 0.388528 0.188748 -0.901898
vn -0.999796 0.010006 0.017530
vn -0.998925 0.035255 -0.030110
vn 0.434137 0.882656 -0.180123
vn 0.149379 0.986836 -0.061977
vn -0.157539 0.985759 -0.058827
vn -0.462634 0.869555 -0.172753
vn 0.999827 -0.014318 -0.011897
vn 0.987639 -0.120557 -0.100173
vn 0.999834 0.013849 -0.011828
vn 0.979045 0.154856 -0.132255
vn 0.000000 -1.000000 0.000000
vn 0.000000 -1.000000 0.000000
vn 0.000000 -1.000000 0.000000
vn 0.000000 -1.000000 0.000000
vn -0.979045 0.154856 -0.132255
vn -0.999834 0.013849 -0.011828
vn -0.999827 -0.014318 -0.011897
vn -0.987639 -0.120557 -0.100173
vn 0.000000 -1.000000 0.000000
vn 0.000000 -1.000000 0.000000
vn 0.000000 -1.000000 0.000000
vn 0.000000 -1.000000 0.000000
vn 0.977048 0.105596 0.185003
vn 0.999905 0.006849 0.012000
vn 1.000000 0.000000 0.000000
vn 1.000000 0.000000 0.000000
vn 0.000000 1.000000 0.000000
vn 0.000000 1.000000 0.000000
vn 0.000000 1.000000 0.000000
vn 0.000000 1.000000 0.000000
vn -1.000000 0.000000 0.000000
vn -1.000000 0.000000 0.000000
vn -0.999905 0.006849 0.012000
vn -0.977048 0.105596 0.185003
# 96 normals

usemtl lambert21SG
s 1
f 12/1/1 18/2/2 19/3/3 14/4/4
f 17/31/31 18/2/2 12/1/1 3/32/32
f 14/4/4 19/3/3 20/33/33 4/34/34
f 25/41/41 26/42/42 18/2/2 17/31/31
f 19/3/3 18/2/2 26/42/42 27/43/43
f 20/33/33 19/3/3 27/43/43 28/44/44
f 1/53/53 9/54/54 26/42/42 25/41/41
f 27/43/43 26/42/42 9/54/54 13/55/55
f 28/44/44 27/43/43 13/55/55 2/56/56
s 2
f 52/5/5 53/6/6 34/7/7 35/8/8
f 33/29/29 34/7/7 53/6/6 54/30/30
f 51/35/35 52/5/5 35/8/8 36/36/36
f 3/32/65 12/1/66 34/7/7 33/29/29
f 35/8/8 34/7/7 12/1/66 14/4/67
f 36/36/36 35/8/8 14/4/67 4/34/68
f 15/12/89 52/5/5 51/35/35 6/38/90
f 11/11/91 53/6/6 52/5/5 15/12/89
f 54/30/30 53/6/6 11/11/91 5/27/92
s 3
f 22/9/9 23/10/10 11/11/11 15/12/12
f 5/27/27 11/11/11 23/10/10 24/28/28
f 21/37/37 22/9/9 15/12/12 6/38/38
f 29/47/47 30/48/48 22/9/9 21/37/37
f 30/48/48 31/49/49 23/10/10 22/9/9
f 24/28/28 23/10/10 31/49/49 32/50/50
f 16/59/59 30/48/48 29/47/47 8/60/60
f 10/61/61 31/49/49 30/48/48 16/59/59
f 32/50/50 31/49/49 10/61/61 7/62/62
s 4
f 40/13/13 41/14/14 46/15/15 47/16/16
f 45/25/25 46/15/15 41/14/14 42/26/26
f 39/39/39 40/13/13 47/16/16 48/40/40
f 13/55/73 40/13/13 39/39/39 2/56/74
f 9/54/75 41/14/14 40/13/13 13/55/73
f 42/26/26 41/14/14 9/54/75 1/53/76
f 7/65/81 10/66/82 46/15/15 45/25/25
f 47/16/16 46/15/15 10/66/82 16/67/83
f 48/40/40 47/16/16 16/67/83 8/68/84
s 5
f 36/17/17 37/18/18 50/19/19 51/20/20
f 37/18/18 38/45/45 49/46/46 50/19/19
f 38/45/45 39/57/57 48/58/58 49/46/46
f 20/33/69 37/18/18 36/17/17 4/34/70
f 28/44/71 38/45/45 37/18/18 20/33/69
f 2/56/72 39/57/57 38/45/45 28/44/71
f 49/46/46 48/58/58 8/69/85 29/70/86
f 50/19/19 49/46/46 29/70/86 21/71/87
f 51/20/20 50/19/19 21/71/87 6/72/88
s 6
f 54/21/21 55/22/22 44/23/23 33/24/24
f 55/22/22 56/51/51 43/52/52 44/23/23
f 56/51/51 45/63/63 42/64/64 43/52/52
f 43/52/52 42/64/64 1/53/77 25/41/78
f 44/23/23 43/52/52 25/41/78 17/31/79
f 33/24/24 44/23/23 17/31/79 3/32/80
f 24/73/93 55/22/22 54/21/21 5/74/94
f 32/75/95 56/51/51 55/22/22 24/73/93
f 7/76/96 45/63/63 56/51/51 32/75/95

# 54 faces
