# Wavefront Obj file
# 
# verts: 86 uv-s: 165
mtllib Crystal Stand.mtl

g pCylinder14
#pivot 0.000000 0.000000 0.000000

v 1.530727 0.008801 -0.883766
v 0.883766 0.008801 -1.530727
v 0.000000 0.008801 -1.767532
v -0.883766 0.008801 -1.530727
v -1.530727 0.008801 -0.883766
v -1.767532 0.008801 0.000000
v -1.530727 0.008801 0.883766
v -0.883766 0.008801 1.530727
v 0.000000 0.008801 1.767532
v 0.883766 0.008801 1.530727
v 1.530727 0.008801 0.883766
v 1.767532 0.008801 0.000000
v 1.872042 5.985205 -1.080823
v 1.080823 5.985205 -1.872042
v 0.000000 5.985205 -2.161646
v -1.080823 5.985205 -1.872042
v -1.872042 5.985205 -1.080823
v -2.161646 5.985205 0.000000
v -1.872042 5.985205 1.080823
v -1.080823 5.985205 1.872042
v 0.000000 5.985205 2.161646
v 1.080823 5.985205 1.872042
v 1.872042 5.985205 1.080823
v 2.161646 5.985205 0.000000
v 0.000000 0.008801 0.000000
v 0.000000 5.985205 0.000000
v 1.872042 5.417044 -1.080823
v 1.080823 5.417044 -1.872042
v 0.000000 5.417044 -2.161646
v -1.080823 5.417044 -1.872042
v -1.872042 5.417044 -1.080823
v -2.161646 5.417044 0.000000
v -1.872042 5.417044 1.080823
v -1.080823 5.417044 1.872042
v 0.000000 5.417044 2.161646
v 1.080823 5.417044 1.872042
v 1.872042 5.417044 1.080823
v 2.161646 5.417044 0.000000
v 0.866025 5.293652 -0.500000
v 0.500000 5.293652 -0.866025
v 0.000000 5.293652 -1.000000
v -0.500000 5.293652 -0.866025
v -0.866025 5.293652 -0.500000
v -1.000000 5.293652 0.000000
v -0.866025 5.293652 0.500000
v -0.500000 5.293652 0.866025
v 0.000000 5.293652 1.000000
v 0.500000 5.293652 0.866025
v 0.866025 5.293652 0.500000
v 1.000000 5.293652 0.000000
v 1.530727 0.617762 -0.883766
v 0.883766 0.617762 -1.530727
v 0.000000 0.617762 -1.767532
v -0.883766 0.617762 -1.530727
v -1.530727 0.617762 -0.883766
v -1.767532 0.617762 0.000000
v -1.530727 0.617762 0.883766
v -0.883766 0.617762 1.530727
v 0.000000 0.617762 1.767532
v 0.883766 0.617762 1.530727
v 1.530727 0.617762 0.883766
v 1.767532 0.617762 0.000000
v 0.582774 0.727300 -0.336465
v 0.672929 0.727300 0.000000
v 0.582774 0.727300 0.336465
v 0.336465 0.727300 0.582774
v 0.000000 0.727300 0.672929
v -0.336465 0.727300 0.582774
v -0.582774 0.727300 0.336465
v -0.672929 0.727300 0.000000
v -0.582774 0.727300 -0.336465
v -0.336465 0.727300 -0.582774
v 0.000000 0.727300 -0.672929
v 0.336465 0.727300 -0.582774
v 0.709909 2.892719 -0.409866
v 0.819732 2.892719 0.000000
v 0.709909 2.892719 0.409866
v 0.409866 2.892719 0.709909
v 0.000000 2.892719 0.819732
v -0.409866 2.892719 0.709909
v -0.709909 2.892719 0.409866
v -0.819732 2.892719 0.000000
v -0.709909 2.892719 -0.409866
v -0.409866 2.892719 -0.709909
v 0.000000 2.892719 -0.819732
v 0.409866 2.892719 -0.709909
# 86 positions

vt 0.928017 0.154040
vt 0.929188 0.179689
vt 0.916350 0.180426
vt 0.914823 0.154499
vt 0.930524 0.204469
vt 0.918247 0.205217
vt 0.931543 0.228273
vt 0.919928 0.228729
vt 0.931718 0.250499
vt 0.920869 0.250701
vt 0.931416 0.271224
vt 0.921427 0.271173
vt 0.930703 0.290014
vt 0.921520 0.289866
vt 0.930131 0.307379
vt 0.921497 0.307262
vt 0.929846 0.323922
vt 0.921432 0.323835
vt 0.926365 0.058883
vt 0.926625 0.081244
vt 0.915135 0.081342
vt 0.915001 0.058982
vt 0.927020 0.104077
vt 0.915124 0.104148
vt 0.927511 0.128071
vt 0.914823 0.128070
vt 0.511796 0.765945
vt 0.549861 0.804333
vt 0.459798 0.856045
vt 0.459798 0.752012
vt 0.407800 0.765945
vt 0.369735 0.804010
vt 0.355802 0.856008
vt 0.369735 0.908006
vt 0.407800 0.946071
vt 0.459798 0.960004
vt 0.511796 0.946071
vt 0.549861 0.908006
vt 0.563794 0.856331
vt 0.245479 0.714283
vt 0.283544 0.752348
vt 0.193517 0.804346
vt 0.297476 0.804346
vt 0.283544 0.856344
vt 0.245479 0.894409
vt 0.193481 0.908342
vt 0.141483 0.894409
vt 0.103418 0.856344
vt 0.089485 0.804346
vt 0.103418 0.752348
vt 0.141806 0.714283
vt 0.193803 0.700350
vt 0.836147 0.455054
vt 0.808485 0.471029
vt 0.757413 0.419958
vt 0.817441 0.385294
vt 0.792497 0.498674
vt 0.722751 0.479999
vt 0.792513 0.530612
vt 0.722760 0.549315
vt 0.808485 0.558284
vt 0.757416 0.609340
vt 0.836136 0.574235
vt 0.817452 0.644011
vt 0.868070 0.574239
vt 0.886757 0.643999
vt 0.895725 0.558284
vt 0.946797 0.609339
vt 0.911707 0.530625
vt 0.981458 0.549307
vt 0.911700 0.498684
vt 0.981455 0.479998
vt 0.895733 0.471025
vt 0.946804 0.419951
vt 0.868068 0.455061
vt 0.886771 0.385294
vt 0.746207 0.086660
vt 0.756994 0.047588
vt 0.798645 0.072014
vt 0.794626 0.086660
vt 0.785112 0.019134
vt 0.809310 0.061181
vt 0.824215 0.008349
vt 0.824177 0.057231
vt 0.863057 0.019262
vt 0.838856 0.061231
vt 0.891449 0.047601
vt 0.849615 0.071993
vt 0.902274 0.086665
vt 0.853731 0.086617
vt 0.891445 0.125712
vt 0.849658 0.101377
vt 0.863059 0.154059
vt 0.838842 0.112099
vt 0.824221 0.164972
vt 0.824126 0.116056
vt 0.785098 0.154182
vt 0.809397 0.112155
vt 0.757002 0.125731
vt 0.798579 0.101306
vt 0.970465 0.157506
vt 0.970168 0.178285
vt 0.956543 0.178305
vt 0.956220 0.157517
vt 0.969864 0.198333
vt 0.956892 0.198319
vt 0.969595 0.217185
vt 0.957153 0.217189
vt 0.969505 0.235608
vt 0.957264 0.235594
vt 0.969452 0.253783
vt 0.957299 0.253782
vt 0.969479 0.271979
vt 0.957277 0.271961
vt 0.969668 0.290409
vt 0.957068 0.290422
vt 0.969817 0.309696
vt 0.956957 0.309712
vt 0.968712 0.087154
vt 0.968806 0.103378
vt 0.957796 0.103386
vt 0.957865 0.087162
vt 0.969088 0.120112
vt 0.957540 0.120121
vt 0.969595 0.137908
vt 0.957061 0.137918
vt 0.163457 0.638478
vt 0.117003 0.634912
vt 0.134126 0.344510
vt 0.190993 0.348710
vt 0.209752 0.643713
vt 0.247724 0.355015
vt 0.255827 0.650620
vt 0.304211 0.363419
vt 0.301615 0.659186
vt 0.360363 0.373906
vt 0.347071 0.669410
vt 0.416094 0.386458
vt 0.392121 0.681270
vt 0.471305 0.401058
vt 0.436717 0.694747
vt 0.525903 0.417680
vt 0.480806 0.709825
vt 0.579805 0.436288
vt 0.524322 0.726465
vt 0.632911 0.456851
vt 0.567231 0.744639
vt 0.685116 0.479331
vt 0.070446 0.633002
vt 0.023854 0.632746
vt 0.020367 0.342442
vt 0.077217 0.342419
vt 0.150860 0.022049
vt 0.219990 0.026962
vt 0.288884 0.034491
vt 0.357443 0.044616
vt 0.425570 0.057316
vt 0.493172 0.072574
vt 0.560150 0.090369
vt 0.626408 0.110681
vt 0.691847 0.133491
vt 0.756367 0.158779
vt 0.819868 0.186524
vt 0.012261 0.020182
vt 0.081566 0.019782
# 165 texture coordinates

vn 0.866026 0.000000 -0.499999
vn 0.499999 0.000000 -0.866026
vn 0.499999 0.000000 -0.866026
vn 0.866026 0.000000 -0.499999
vn 0.000000 0.000000 -1.000000
vn 0.000000 0.000000 -1.000000
vn -0.499999 0.000000 -0.866026
vn -0.499999 0.000000 -0.866026
vn -0.866026 0.000000 -0.499999
vn -0.866026 0.000000 -0.499999
vn -1.000000 0.000000 0.000000
vn -1.000000 0.000000 0.000000
vn -0.866026 0.000000 0.499999
vn -0.866026 0.000000 0.499999
vn -0.499999 0.000000 0.866026
vn -0.499999 0.000000 0.866026
vn 0.000000 0.000000 1.000000
vn 0.000000 0.000000 1.000000
vn 0.499999 0.000000 0.866026
vn 0.499999 0.000000 0.866026
vn 0.866026 0.000000 0.499999
vn 0.866026 0.000000 0.499999
vn 1.000000 0.000000 0.000000
vn 1.000000 0.000000 0.000000
vn 0.000000 -1.000000 0.000000
vn 0.000000 -1.000000 0.000000
vn 0.000000 -1.000000 0.000000
vn 0.000000 -1.000000 0.000000
vn 0.000000 -1.000000 0.000000
vn 0.000000 -1.000000 0.000000
vn 0.000000 -1.000000 0.000000
vn 0.000000 -1.000000 0.000000
vn 0.000000 -1.000000 0.000000
vn 0.000000 -1.000000 0.000000
vn 0.000000 -1.000000 0.000000
vn 0.000000 -1.000000 0.000000
vn 0.000000 -1.000000 0.000000
vn 0.000000 1.000000 0.000000
vn 0.000000 1.000000 0.000000
vn 0.000000 1.000000 0.000000
vn 0.000000 1.000000 0.000000
vn 0.000000 1.000000 0.000000
vn 0.000000 1.000000 0.000000
vn 0.000000 1.000000 0.000000
vn 0.000000 1.000000 0.000000
vn 0.000000 1.000000 0.000000
vn 0.000000 1.000000 0.000000
vn 0.000000 1.000000 0.000000
vn 0.000000 1.000000 0.000000
vn 0.000000 1.000000 0.000000
vn 0.077294 -0.994008 -0.077294
vn 0.077294 -0.994008 -0.077294
vn 0.077294 -0.994008 -0.077294
vn 0.077294 -0.994008 -0.077294
vn 0.028291 -0.994008 -0.105585
vn 0.028291 -0.994008 -0.105585
vn 0.028291 -0.994008 -0.105585
vn 0.028291 -0.994008 -0.105585
vn -0.028291 -0.994008 -0.105585
vn -0.028291 -0.994008 -0.105585
vn -0.028291 -0.994008 -0.105585
vn -0.028291 -0.994008 -0.105585
vn -0.077294 -0.994008 -0.077294
vn -0.077294 -0.994008 -0.077294
vn -0.077294 -0.994008 -0.077294
vn -0.077294 -0.994008 -0.077294
vn -0.105585 -0.994008 -0.028291
vn -0.105585 -0.994008 -0.028291
vn -0.105585 -0.994008 -0.028291
vn -0.105585 -0.994008 -0.028291
vn -0.105585 -0.994008 0.028291
vn -0.105585 -0.994008 0.028291
vn -0.105585 -0.994008 0.028291
vn -0.105585 -0.994008 0.028291
vn -0.077294 -0.994008 0.077294
vn -0.077294 -0.994008 0.077294
vn -0.077294 -0.994008 0.077294
vn -0.077294 -0.994008 0.077294
vn -0.028291 -0.994008 0.105585
vn -0.028291 -0.994008 0.105585
vn -0.028291 -0.994008 0.105585
vn -0.028291 -0.994008 0.105585
vn 0.028291 -0.994008 0.105585
vn 0.028291 -0.994008 0.105585
vn 0.028291 -0.994008 0.105585
vn 0.028291 -0.994008 0.105585
vn 0.077294 -0.994008 0.077294
vn 0.077294 -0.994008 0.077294
vn 0.077294 -0.994008 0.077294
vn 0.077294 -0.994008 0.077294
vn 0.105585 -0.994008 0.028291
vn 0.105585 -0.994008 0.028291
vn 0.105585 -0.994008 0.028291
vn 0.105585 -0.994008 0.028291
vn 0.105585 -0.994008 -0.028291
vn 0.105585 -0.994008 -0.028291
vn 0.105585 -0.994008 -0.028291
vn 0.105585 -0.994008 -0.028291
vn 0.072867 0.994676 -0.072867
vn 0.072867 0.994676 -0.072867
vn 0.072867 0.994676 -0.072867
vn 0.072867 0.994676 -0.072867
vn 0.026671 0.994676 -0.099538
vn 0.026671 0.994676 -0.099538
vn 0.026671 0.994676 -0.099538
vn 0.026671 0.994676 -0.099538
vn -0.026671 0.994676 -0.099538
vn -0.026671 0.994676 -0.099538
vn -0.026671 0.994676 -0.099538
vn -0.026671 0.994676 -0.099538
vn -0.072867 0.994676 -0.072867
vn -0.072867 0.994676 -0.072867
vn -0.072867 0.994676 -0.072867
vn -0.072867 0.994676 -0.072867
vn -0.099538 0.994676 -0.026671
vn -0.099538 0.994676 -0.026671
vn -0.099538 0.994676 -0.026671
vn -0.099538 0.994676 -0.026671
vn -0.099538 0.994676 0.026671
vn -0.099538 0.994676 0.026671
vn -0.099538 0.994676 0.026671
vn -0.099538 0.994676 0.026671
vn -0.072867 0.994676 0.072867
vn -0.072867 0.994676 0.072867
vn -0.072867 0.994676 0.072867
vn -0.072867 0.994676 0.072867
vn -0.026671 0.994676 0.099538
vn -0.026671 0.994676 0.099538
vn -0.026671 0.994676 0.099538
vn -0.026671 0.994676 0.099538
vn 0.026671 0.994676 0.099538
vn 0.026671 0.994676 0.099538
vn 0.026671 0.994676 0.099538
vn 0.026671 0.994676 0.099538
vn 0.072867 0.994676 0.072867
vn 0.072867 0.994676 0.072867
vn 0.072867 0.994676 0.072867
vn 0.072867 0.994676 0.072867
vn 0.099538 0.994676 0.026671
vn 0.099538 0.994676 0.026671
vn 0.099538 0.994676 0.026671
vn 0.099538 0.994676 0.026671
vn 0.099538 0.994676 -0.026671
vn 0.099538 0.994676 -0.026671
vn 0.099538 0.994676 -0.026671
vn 0.099538 0.994676 -0.026671
vn 0.866025 0.000000 -0.500000
vn 0.500000 0.000000 -0.866025
vn 0.500000 0.000000 -0.866025
vn 0.866025 0.000000 -0.500000
vn 0.000000 0.000000 -1.000000
vn 0.000000 0.000000 -1.000000
vn -0.500000 0.000000 -0.866025
vn -0.500000 0.000000 -0.866025
vn -0.866025 0.000000 -0.500000
vn -0.866025 0.000000 -0.500000
vn -1.000000 0.000000 0.000000
vn -1.000000 0.000000 0.000000
vn -0.866025 0.000000 0.500000
vn -0.866025 0.000000 0.500000
vn -0.500000 0.000000 0.866025
vn -0.500000 0.000000 0.866025
vn 0.000000 0.000000 1.000000
vn 0.000000 0.000000 1.000000
vn 0.500000 0.000000 0.866025
vn 0.500000 0.000000 0.866025
vn 0.866025 0.000000 0.500000
vn 0.866025 0.000000 0.500000
vn 1.000000 0.000000 0.000000
vn 1.000000 0.000000 0.000000
vn 0.997710 -0.067639 0.000000
vn 0.864042 -0.067639 -0.498855
vn 0.863824 -0.071256 -0.498729
vn 0.997458 -0.071256 0.000000
vn 0.864042 -0.067639 0.498855
vn 0.863824 -0.071256 0.498729
vn 0.498855 -0.067639 0.864042
vn 0.498729 -0.071256 0.863824
vn 0.000000 -0.067639 0.997710
vn 0.000000 -0.071256 0.997458
vn -0.498855 -0.067639 0.864042
vn -0.498729 -0.071256 0.863824
vn -0.864042 -0.067639 0.498855
vn -0.863824 -0.071256 0.498729
vn -0.997710 -0.067639 0.000000
vn -0.997458 -0.071256 0.000000
vn -0.864042 -0.067639 -0.498855
vn -0.863824 -0.071256 -0.498729
vn -0.498855 -0.067639 -0.864042
vn -0.498729 -0.071256 -0.863824
vn 0.000000 -0.067639 -0.997710
vn 0.000000 -0.071256 -0.997458
vn 0.498855 -0.067639 -0.864042
vn 0.498729 -0.071256 -0.863824
vn 0.863595 -0.074872 -0.498597
vn 0.997193 -0.074872 0.000000
vn 0.863595 -0.074872 0.498597
vn 0.498597 -0.074872 0.863595
vn 0.000000 -0.074872 0.997193
vn -0.498597 -0.074872 0.863595
vn -0.863595 -0.074872 0.498597
vn -0.997193 -0.074872 0.000000
vn -0.863595 -0.074872 -0.498597
vn -0.498597 -0.074872 -0.863595
vn 0.000000 -0.074872 -0.997193
vn 0.498597 -0.074872 -0.863595
# 206 normals

usemtl lambert32SG
s 1
f 27/1/1 28/2/2 14/3/3 13/4/4
f 28/2/2 29/5/5 15/6/6 14/3/3
f 29/5/5 30/7/7 16/8/8 15/6/6
f 30/7/7 31/9/9 17/10/10 16/8/8
f 31/9/9 32/11/11 18/12/12 17/10/10
f 32/11/11 33/13/13 19/14/14 18/12/12
f 33/13/13 34/15/15 20/16/16 19/14/14
f 34/15/15 35/17/17 21/18/18 20/16/16
f 35/19/17 36/20/19 22/21/20 21/22/18
f 36/20/19 37/23/21 23/24/22 22/21/20
f 37/23/21 38/25/23 24/26/24 23/24/22
f 38/25/23 27/1/1 13/4/4 24/26/24
s 2
f 2/27/25 1/28/26 25/29/27
f 3/30/28 2/27/25 25/29/27
f 4/31/29 3/30/28 25/29/27
f 5/32/30 4/31/29 25/29/27
f 6/33/31 5/32/30 25/29/27
f 7/34/32 6/33/31 25/29/27
f 8/35/33 7/34/32 25/29/27
f 9/36/34 8/35/33 25/29/27
f 10/37/35 9/36/34 25/29/27
f 11/38/36 10/37/35 25/29/27
f 12/39/37 11/38/36 25/29/27
f 1/28/26 12/39/37 25/29/27
s 3
f 13/40/38 14/41/39 26/42/40
f 14/41/39 15/43/41 26/42/40
f 15/43/41 16/44/42 26/42/40
f 16/44/42 17/45/43 26/42/40
f 17/45/43 18/46/44 26/42/40
f 18/46/44 19/47/45 26/42/40
f 19/47/45 20/48/46 26/42/40
f 20/48/46 21/49/47 26/42/40
f 21/49/47 22/50/48 26/42/40
f 22/50/48 23/51/49 26/42/40
f 23/51/49 24/52/50 26/42/40
f 24/52/50 13/40/38 26/42/40
s 4
f 39/53/51 40/54/52 28/55/53 27/56/54
s 5
f 40/54/55 41/57/56 29/58/57 28/55/58
s 6
f 41/57/59 42/59/60 30/60/61 29/58/62
s 7
f 42/59/63 43/61/64 31/62/65 30/60/66
s 8
f 43/61/67 44/63/68 32/64/69 31/62/70
s 9
f 44/63/71 45/65/72 33/66/73 32/64/74
s 10
f 45/65/75 46/67/76 34/68/77 33/66/78
s 11
f 46/67/79 47/69/80 35/70/81 34/68/82
s 12
f 47/69/83 48/71/84 36/72/85 35/70/86
s 13
f 48/71/87 49/73/88 37/74/89 36/72/90
s 14
f 49/73/91 50/75/92 38/76/93 37/74/94
s 15
f 50/75/95 39/53/96 27/56/97 38/76/98
s 16
f 51/77/99 52/78/100 74/79/101 63/80/102
s 17
f 52/78/103 53/81/104 73/82/105 74/79/106
s 18
f 53/81/107 54/83/108 72/84/109 73/82/110
s 19
f 54/83/111 55/85/112 71/86/113 72/84/114
s 20
f 55/85/115 56/87/116 70/88/117 71/86/118
s 21
f 56/87/119 57/89/120 69/90/121 70/88/122
s 22
f 57/89/123 58/91/124 68/92/125 69/90/126
s 23
f 58/91/127 59/93/128 67/94/129 68/92/130
s 24
f 59/93/131 60/95/132 66/96/133 67/94/134
s 25
f 60/95/135 61/97/136 65/98/137 66/96/138
s 26
f 61/97/139 62/99/140 64/100/141 65/98/142
s 27
f 62/99/143 51/77/144 63/80/145 64/100/146
s 28
f 1/101/147 2/102/148 52/103/149 51/104/150
f 2/102/148 3/105/151 53/106/152 52/103/149
f 3/105/151 4/107/153 54/108/154 53/106/152
f 4/107/153 5/109/155 55/110/156 54/108/154
f 5/109/155 6/111/157 56/112/158 55/110/156
f 6/111/157 7/113/159 57/114/160 56/112/158
f 7/113/159 8/115/161 58/116/162 57/114/160
f 8/115/161 9/117/163 59/118/164 58/116/162
f 9/119/163 10/120/165 60/121/166 59/122/164
f 10/120/165 11/123/167 61/124/168 60/121/166
f 11/123/167 12/125/169 62/126/170 61/124/168
f 12/125/169 1/101/147 51/104/150 62/126/170
s 29
f 64/127/171 63/128/172 75/129/173 76/130/174
f 65/131/175 64/127/171 76/130/174 77/132/176
f 66/133/177 65/131/175 77/132/176 78/134/178
f 67/135/179 66/133/177 78/134/178 79/136/180
f 68/137/181 67/135/179 79/136/180 80/138/182
f 69/139/183 68/137/181 80/138/182 81/140/184
f 70/141/185 69/139/183 81/140/184 82/142/186
f 71/143/187 70/141/185 82/142/186 83/144/188
f 72/145/189 71/143/187 83/144/188 84/146/190
f 73/147/191 72/145/189 84/146/190 85/148/192
f 74/149/193 73/150/191 85/151/192 86/152/194
f 63/128/172 74/149/193 86/152/194 75/129/173
f 76/130/174 75/129/173 39/153/195 50/154/196
f 77/132/176 76/130/174 50/154/196 49/155/197
f 78/134/178 77/132/176 49/155/197 48/156/198
f 79/136/180 78/134/178 48/156/198 47/157/199
f 80/138/182 79/136/180 47/157/199 46/158/200
f 81/140/184 80/138/182 46/158/200 45/159/201
f 82/142/186 81/140/184 45/159/201 44/160/202
f 83/144/188 82/142/186 44/160/202 43/161/203
f 84/146/190 83/144/188 43/161/203 42/162/204
f 85/148/192 84/146/190 42/162/204 41/163/205
f 86/152/194 85/151/192 41/164/205 40/165/206
f 75/129/173 86/152/194 40/165/206 39/153/195

# 96 faces
