# Wavefront Obj file
# 
# verts: 84 uv-s: 124
mtllib Hallway Railing 2.mtl

g pPipe7
#pivot 0.000000 0.000000 0.000000

v 10.392292 0.910278 0.000000
v 9.883657 2.508110 -3.211395
v 8.407541 4.265289 -6.108436
v 6.108438 6.394329 -8.407542
v 3.211396 7.665083 -9.883659
v -3.211395 7.665083 -9.883660
v -6.108438 6.394329 -8.407545
v -8.407543 4.265289 -6.108439
v -9.883661 2.508110 -3.211397
v -10.392296 0.910278 -0.000001
v -9.883661 0.095157 3.211396
v -8.407547 -0.411345 6.108439
v 8.407545 -0.411345 6.108440
v 9.883661 0.095157 3.211397
v 10.392292 1.732967 0.000000
v 9.883657 3.330799 -3.211395
v 8.407541 5.087978 -6.108436
v 6.108438 7.217018 -8.407542
v 3.211396 8.487772 -9.883659
v -3.211395 8.487772 -9.883660
v -6.108438 7.217018 -8.407545
v -8.407543 5.087978 -6.108439
v -9.883661 3.330799 -3.211397
v -10.392296 1.732967 -0.000001
v -9.883661 0.917847 3.211396
v -8.407547 0.411345 6.108439
v 8.407545 0.411345 6.108440
v 9.883661 0.917847 3.211397
v 11.295969 1.732967 0.000000
v 10.743105 3.330799 -3.490647
v 9.138630 5.087978 -6.639606
v 6.639605 7.217018 -9.138633
v 3.490646 8.487772 -10.743107
v -3.490648 8.487772 -10.743107
v -6.639606 7.217018 -9.138633
v -9.138634 5.087978 -6.639606
v -10.743111 3.330799 -3.490647
v -11.295973 1.732967 0.000000
v -10.743111 0.917847 3.490648
v -9.138636 0.411345 6.639607
v 9.138636 0.411345 6.639610
v 10.743113 0.917847 3.490649
v 11.295969 0.910278 0.000000
v 10.743105 2.508110 -3.490647
v 9.138630 4.265289 -6.639606
v 6.639605 6.394329 -9.138633
v 3.490646 7.665083 -10.743107
v -3.490648 7.665083 -10.743107
v -6.639606 6.394329 -9.138633
v -9.138634 4.265289 -6.639606
v -10.743111 2.508110 -3.490647
v -11.295973 0.910278 0.000000
v -10.743111 0.095157 3.490648
v -9.138636 -0.411345 6.639607
v 9.138636 -0.411345 6.639610
v 10.743113 0.095157 3.490649
v 11.295969 -1.304821 0.000000
v 10.743105 -1.304805 -3.490647
v 10.392292 -1.304821 0.000000
v 9.883657 -1.304805 -3.211395
v 9.138630 -1.304790 -6.639606
v 8.407541 -1.304790 -6.108436
v 6.639605 -1.304768 -9.138633
v 6.108438 -1.304768 -8.407542
v 3.490646 -1.304756 -10.743107
v 3.211396 -1.304756 -9.883659
v 9.138636 -1.304835 6.639610
v 10.743113 -1.304831 3.490649
v 8.407545 -1.304835 6.108440
v 9.883661 -1.304831 3.211397
v -3.490648 -1.304756 -10.743107
v -6.639606 -1.304768 -9.138633
v -3.211395 -1.304756 -9.883660
v -6.108438 -1.304768 -8.407545
v -9.138634 -1.304790 -6.639606
v -8.407543 -1.304790 -6.108439
v -10.743111 -1.304805 -3.490647
v -9.883661 -1.304805 -3.211397
v -11.295973 -1.304821 0.000000
v -10.392296 -1.304821 -0.000001
v -10.743111 -1.304831 3.490648
v -9.883661 -1.304831 3.211396
v -9.138636 -1.304835 6.639607
v -8.407547 -1.304835 6.108439
# 84 positions

vt 0.745143 0.593121
vt 0.726238 0.729827
vt 0.725555 0.659541
vt 0.744460 0.522834
vt 0.763915 0.442800
vt 0.763232 0.372513
vt 0.782379 0.260709
vt 0.781696 0.190423
vt 0.801555 0.151946
vt 0.800872 0.081660
vt 0.398392 0.696775
vt 0.418607 0.805350
vt 0.418596 0.875640
vt 0.398381 0.767065
vt 0.378187 0.514869
vt 0.378177 0.585159
vt 0.357978 0.364735
vt 0.357967 0.435025
vt 0.337767 0.228215
vt 0.337756 0.298505
vt 0.317545 0.158569
vt 0.317535 0.228859
vt 0.297320 0.115291
vt 0.297309 0.185580
vt 0.706684 0.799664
vt 0.686873 0.843133
vt 0.686190 0.772847
vt 0.706001 0.729378
vt 0.284543 0.576167
vt 0.306492 0.712858
vt 0.301000 0.714126
vt 0.278992 0.577088
vt 0.262565 0.425340
vt 0.256994 0.426153
vt 0.240550 0.242220
vt 0.235012 0.243158
vt 0.218396 0.133015
vt 0.212852 0.133980
vt 0.617629 0.831353
vt 0.595807 0.940594
vt 0.590240 0.939702
vt 0.612080 0.830489
vt 0.639698 0.648766
vt 0.634120 0.648027
vt 0.661715 0.498543
vt 0.656157 0.497693
vt 0.683706 0.362265
vt 0.678205 0.361065
vt 0.705514 0.293116
vt 0.700254 0.291097
vt 0.727052 0.250281
vt 0.722195 0.247453
vt 0.328245 0.781974
vt 0.349797 0.824693
vt 0.344966 0.827564
vt 0.323008 0.784048
vt 0.300965 0.784779
vt 0.279015 0.647739
vt 0.257001 0.497008
vt 0.235004 0.313774
vt 0.213002 0.204811
vt 0.590095 0.868991
vt 0.612093 0.760094
vt 0.634131 0.577545
vt 0.656183 0.427405
vt 0.678192 0.290558
vt 0.700125 0.220593
vt 0.721988 0.176847
vt 0.344792 0.897958
vt 0.322909 0.854475
vt 0.278588 0.971851
vt 0.300325 0.971964
vt 0.300176 0.977492
vt 0.278601 0.977393
vt 0.256740 0.972107
vt 0.256918 0.977644
vt 0.234823 0.972798
vt 0.235398 0.978310
vt 0.212896 0.974573
vt 0.214663 0.980157
vt 0.612097 0.102055
vt 0.590151 0.100547
vt 0.591868 0.095023
vt 0.612625 0.096593
vt 0.634022 0.102482
vt 0.634179 0.096961
vt 0.655866 0.102494
vt 0.655861 0.096956
vt 0.677568 0.102198
vt 0.677399 0.096662
vt 0.699156 0.101451
vt 0.698613 0.095934
vt 0.720673 0.099590
vt 0.718999 0.094020
vt 0.321950 0.972616
vt 0.343490 0.974481
vt 0.341834 0.979969
vt 0.321433 0.978087
vt 0.291686 0.185580
vt 0.291697 0.115290
vt 0.680567 0.772902
vt 0.681250 0.843188
vt 0.424220 0.875641
vt 0.424230 0.805351
vt 0.806495 0.081605
vt 0.807178 0.151891
vt 0.748309 0.918876
vt 0.728077 0.919074
vt 0.768540 0.918678
vt 0.788771 0.918480
vt 0.809002 0.918282
vt 0.814625 0.918228
vt 0.687615 0.919469
vt 0.681992 0.919523
vt 0.707846 0.919272
vt 0.418724 0.038977
vt 0.424348 0.038978
vt 0.398492 0.038973
vt 0.378260 0.038968
vt 0.358028 0.038964
vt 0.337796 0.038959
vt 0.317564 0.038955
vt 0.297332 0.038952
vt 0.291708 0.038951
# 124 texture coordinates

vn -0.951057 0.000000 0.309017
vn -1.000000 0.000000 0.000001
vn -1.000000 0.000000 0.000001
vn -0.951057 0.000000 0.309017
vn -0.809017 0.000000 0.587785
vn -0.809017 0.000000 0.587785
vn -0.587786 0.000000 0.809017
vn -0.587786 0.000000 0.809017
vn -0.453991 0.000000 0.891007
vn -0.453991 0.000000 0.891007
vn 0.587785 0.000000 0.809017
vn 0.453990 0.000000 0.891007
vn 0.453990 0.000000 0.891007
vn 0.587785 0.000000 0.809017
vn 0.809017 0.000000 0.587785
vn 0.809017 0.000000 0.587785
vn 0.951057 0.000000 0.309017
vn 0.951057 0.000000 0.309017
vn 1.000000 0.000000 0.000000
vn 1.000000 0.000000 0.000000
vn 0.951057 0.000000 -0.309017
vn 0.951057 0.000000 -0.309017
vn 0.891007 0.000000 -0.453990
vn 0.891007 0.000000 -0.453990
vn -0.951057 0.000000 -0.309016
vn -0.891007 0.000000 -0.453990
vn -0.891007 0.000000 -0.453990
vn -0.951057 0.000000 -0.309016
vn 0.138076 0.898651 0.416368
vn 0.015151 0.944596 0.327885
vn 0.015151 0.944596 0.327885
vn 0.138076 0.898651 0.416368
vn 0.293449 0.870858 0.394327
vn 0.293449 0.870858 0.394327
vn 0.346749 0.898396 0.269536
vn 0.346749 0.898396 0.269536
vn 0.312521 0.936469 0.159237
vn 0.312521 0.936469 0.159237
vn -0.346748 0.898396 0.269537
vn -0.312520 0.936469 0.159238
vn -0.312520 0.936469 0.159238
vn -0.346748 0.898396 0.269537
vn -0.293448 0.870858 0.394328
vn -0.293448 0.870858 0.394328
vn -0.138075 0.898651 0.416368
vn -0.138075 0.898651 0.416368
vn -0.015151 0.944596 0.327885
vn -0.015151 0.944596 0.327885
vn 0.051860 0.982042 0.181393
vn 0.051860 0.982042 0.181393
vn 0.067032 0.989040 0.131558
vn 0.067032 0.989040 0.131558
vn -0.051860 0.982042 0.181393
vn -0.067032 0.989040 0.131558
vn -0.067032 0.989040 0.131558
vn -0.051860 0.982042 0.181393
vn 0.951056 0.000000 -0.309017
vn 1.000000 0.000000 -0.000001
vn 1.000000 0.000000 -0.000001
vn 0.951056 0.000000 -0.309017
vn 0.809017 0.000000 -0.587785
vn 0.809017 0.000000 -0.587785
vn 0.587785 0.000000 -0.809017
vn 0.587785 0.000000 -0.809017
vn 0.453991 0.000000 -0.891007
vn 0.453991 0.000000 -0.891007
vn -0.587785 0.000000 -0.809017
vn -0.453991 0.000000 -0.891007
vn -0.453991 0.000000 -0.891007
vn -0.587785 0.000000 -0.809017
vn -0.809017 0.000000 -0.587785
vn -0.809017 0.000000 -0.587785
vn -0.951057 0.000000 -0.309017
vn -0.951057 0.000000 -0.309017
vn -1.000000 0.000000 -0.000000
vn -1.000000 0.000000 -0.000000
vn -0.951057 0.000000 0.309017
vn -0.951057 0.000000 0.309017
vn -0.891007 0.000000 0.453991
vn -0.891007 0.000000 0.453991
vn 0.951057 0.000000 0.309016
vn 0.891006 0.000000 0.453991
vn 0.891006 0.000000 0.453991
vn 0.951057 0.000000 0.309016
vn -0.000001 -1.000000 -0.000004
vn -0.000000 -1.000000 -0.000004
vn -0.000000 -1.000000 -0.000004
vn -0.000001 -1.000000 -0.000004
vn -0.000003 -1.000000 -0.000004
vn -0.000003 -1.000000 -0.000004
vn -0.000004 -1.000000 -0.000003
vn -0.000004 -1.000000 -0.000003
vn -0.000003 -1.000000 -0.000002
vn -0.000003 -1.000000 -0.000002
vn 0.000004 -1.000000 -0.000003
vn 0.000003 -1.000000 -0.000002
vn 0.000003 -1.000000 -0.000002
vn 0.000004 -1.000000 -0.000003
vn 0.000003 -1.000000 -0.000004
vn 0.000003 -1.000000 -0.000004
vn 0.000001 -1.000000 -0.000004
vn 0.000001 -1.000000 -0.000004
vn 0.000000 -1.000000 -0.000004
vn 0.000000 -1.000000 -0.000004
vn -0.000001 -1.000000 -0.000002
vn -0.000001 -1.000000 -0.000002
vn -0.000001 -1.000000 -0.000001
vn -0.000001 -1.000000 -0.000001
vn 0.000001 -1.000000 -0.000002
vn 0.000001 -1.000000 -0.000001
vn 0.000001 -1.000000 -0.000001
vn 0.000001 -1.000000 -0.000002
vn 0.587786 0.000000 0.809016
vn 0.587786 0.000000 0.809016
vn 0.587786 0.000000 0.809016
vn 0.587786 0.000000 0.809016
vn -0.587786 0.000000 0.809016
vn -0.587786 0.000000 0.809016
vn -0.587786 0.000000 0.809016
vn -0.587786 0.000000 0.809016
vn 0.951056 0.000000 -0.309019
vn 0.951056 0.000000 -0.309019
vn 0.951056 0.000000 -0.309019
vn 0.951056 0.000000 -0.309019
vn -0.951057 0.000000 -0.309016
vn -0.951057 0.000000 -0.309016
vn -0.951057 0.000000 -0.309016
vn -0.951057 0.000000 -0.309016
vn 0.987688 0.000000 -0.156434
vn 0.987688 0.000000 -0.156434
vn 0.987688 0.000000 -0.156434
vn 0.987688 0.000000 -0.156434
vn -0.987688 0.000000 0.156434
vn -0.987688 0.000000 0.156434
vn -0.987688 0.000000 0.156434
vn -0.987688 0.000000 0.156434
vn 0.891007 0.000000 -0.453991
vn 0.891007 0.000000 -0.453991
vn 0.891007 0.000000 -0.453991
vn 0.891007 0.000000 -0.453991
vn -0.891007 0.000000 0.453990
vn -0.891007 0.000000 0.453990
vn -0.891007 0.000000 0.453990
vn -0.891007 0.000000 0.453990
vn 0.707107 0.000000 -0.707107
vn 0.707107 0.000000 -0.707107
vn 0.707107 0.000000 -0.707107
vn 0.707107 0.000000 -0.707107
vn -0.707107 0.000000 0.707106
vn -0.707107 0.000000 0.707106
vn -0.707107 0.000000 0.707106
vn -0.707107 0.000000 0.707106
vn 0.453991 0.000000 -0.891007
vn 0.453991 0.000000 -0.891007
vn 0.453991 0.000000 -0.891007
vn -0.453991 0.000000 0.891007
vn -0.453991 0.000000 0.891007
vn -0.453991 0.000000 0.891007
vn -0.951057 0.000000 -0.309016
vn -0.951057 0.000000 -0.309016
vn 0.891006 0.000000 0.453991
vn 0.891006 0.000000 0.453991
vn 0.891006 0.000000 0.453991
vn -0.587786 0.000000 0.809016
vn -0.587786 0.000000 0.809016
vn -0.891007 0.000000 -0.453990
vn -0.891007 0.000000 -0.453990
vn -0.891007 0.000000 -0.453990
vn 0.987689 0.000000 0.156432
vn 0.987689 0.000000 0.156432
vn 0.987689 0.000000 0.156432
vn 0.987689 0.000000 0.156432
vn -0.987689 0.000000 -0.156433
vn -0.987689 0.000000 -0.156433
vn -0.987689 0.000000 -0.156433
vn -0.987689 0.000000 -0.156433
vn -0.453991 0.000000 -0.891007
vn -0.453991 0.000000 -0.891007
vn -0.453991 0.000000 -0.891007
vn 0.951056 0.000000 -0.309019
vn 0.951056 0.000000 -0.309019
vn 0.453990 0.000000 0.891007
vn 0.453990 0.000000 0.891007
vn 0.453990 0.000000 0.891007
vn -0.707107 0.000000 -0.707107
vn -0.707107 0.000000 -0.707107
vn -0.707107 0.000000 -0.707107
vn -0.707107 0.000000 -0.707107
vn 0.707107 0.000000 0.707107
vn 0.707107 0.000000 0.707107
vn 0.707107 0.000000 0.707107
vn 0.707107 0.000000 0.707107
vn -0.891006 0.000000 -0.453991
vn -0.891006 0.000000 -0.453991
vn -0.891006 0.000000 -0.453991
vn -0.891006 0.000000 -0.453991
vn 0.891006 0.000000 0.453991
vn 0.891006 0.000000 0.453991
vn 0.891006 0.000000 0.453991
vn 0.891006 0.000000 0.453991
vn -0.987688 0.000000 -0.156434
vn -0.987688 0.000000 -0.156434
vn -0.987688 0.000000 -0.156434
vn -0.987688 0.000000 -0.156434
vn 0.987688 0.000000 0.156434
vn 0.987688 0.000000 0.156434
vn 0.987688 0.000000 0.156434
vn 0.987688 0.000000 0.156434
vn -0.987688 0.000000 0.156434
vn -0.987688 0.000000 0.156434
vn -0.987688 0.000000 0.156434
vn -0.987688 0.000000 0.156434
vn 0.987688 0.000000 -0.156434
vn 0.987688 0.000000 -0.156434
vn 0.987688 0.000000 -0.156434
vn 0.987688 0.000000 -0.156434
vn -0.891007 0.000000 0.453991
vn -0.891007 0.000000 0.453991
vn -0.891007 0.000000 0.453991
vn 0.891007 0.000000 -0.453990
vn 0.891007 0.000000 -0.453990
vn 0.891007 0.000000 -0.453990
vn 0.587786 0.000000 0.809017
vn 0.587786 0.000000 0.809017
# 224 normals

usemtl lambert5SG
s 1
f 2/1/1 1/2/2 15/3/3 16/4/4
f 3/5/5 2/1/1 16/4/4 17/6/6
f 4/7/7 3/5/5 17/6/6 18/8/8
f 5/9/9 4/7/7 18/8/8 19/10/10
f 14/25/25 13/26/26 27/27/27 28/28/28
f 1/2/2 14/25/25 28/28/28 15/3/3
s 2
f 7/11/11 6/12/12 20/13/13 21/14/14
f 8/15/15 7/11/11 21/14/14 22/16/16
f 9/17/17 8/15/15 22/16/16 23/18/18
f 10/19/19 9/17/17 23/18/18 24/20/20
f 11/21/21 10/19/19 24/20/20 25/22/22
f 12/23/23 11/21/21 25/22/22 26/24/24
s 3
f 16/29/29 15/30/30 29/31/31 30/32/32
f 17/33/33 16/29/29 30/32/32 31/34/34
f 18/35/35 17/33/33 31/34/34 32/36/36
f 19/37/37 18/35/35 32/36/36 33/38/38
f 28/53/53 27/54/54 41/55/55 42/56/56
f 15/30/30 28/53/53 42/56/56 29/31/31
s 4
f 21/39/39 20/40/40 34/41/41 35/42/42
f 22/43/43 21/39/39 35/42/42 36/44/44
f 23/45/45 22/43/43 36/44/44 37/46/46
f 24/47/47 23/45/45 37/46/46 38/48/48
f 25/49/49 24/47/47 38/48/48 39/50/50
f 26/51/51 25/49/49 39/50/50 40/52/52
s 5
f 30/32/57 29/31/58 43/57/59 44/58/60
f 31/34/61 30/32/57 44/58/60 45/59/62
f 32/36/63 31/34/61 45/59/62 46/60/64
f 33/38/65 32/36/63 46/60/64 47/61/66
f 42/56/81 41/55/82 55/69/83 56/70/84
f 29/31/58 42/56/81 56/70/84 43/57/59
s 6
f 35/42/67 34/41/68 48/62/69 49/63/70
f 36/44/71 35/42/67 49/63/70 50/64/72
f 37/46/73 36/44/71 50/64/72 51/65/74
f 38/48/75 37/46/73 51/65/74 52/66/76
f 39/50/77 38/48/75 52/66/76 53/67/78
f 40/52/79 39/50/77 53/67/78 54/68/80
s 7
f 58/71/85 57/72/86 59/73/87 60/74/88
f 61/75/89 58/71/85 60/74/88 62/76/90
f 63/77/91 61/75/89 62/76/90 64/78/92
f 65/79/93 63/77/91 64/78/92 66/80/94
f 68/95/109 67/96/110 69/97/111 70/98/112
f 57/72/86 68/95/109 70/98/112 59/73/87
s 8
f 72/81/95 71/82/96 73/83/97 74/84/98
f 75/85/99 72/81/95 74/84/98 76/86/100
f 77/87/101 75/85/99 76/86/100 78/88/102
f 79/89/103 77/87/101 78/88/102 80/90/104
f 81/91/105 79/89/103 80/90/104 82/92/106
f 83/93/107 81/91/105 82/92/106 84/94/108
s 9
f 40/99/113 54/100/114 12/23/115 26/24/116
f 12/23/115 54/100/114 83/124/223 84/123/224
s 10
f 41/101/117 27/27/118 13/26/119 55/102/120
f 55/102/120 13/26/119 69/113/164 67/114/165
s 11
f 34/103/121 20/13/122 6/12/123 48/104/124
f 48/104/124 6/12/123 73/116/180 71/117/181
s 12
f 33/105/125 47/106/126 5/9/127 19/10/128
f 5/9/127 47/106/126 65/112/159 66/111/160
s 13
f 44/58/129 43/57/130 57/72/131 58/71/132
s 14
f 1/2/133 2/1/134 60/107/135 59/108/136
s 15
f 45/59/137 44/58/138 58/71/139 61/75/140
s 16
f 2/1/141 3/5/142 62/109/143 60/107/144
s 17
f 46/60/145 45/59/146 61/75/147 63/77/148
s 18
f 3/5/149 4/7/150 64/110/151 62/109/152
s 19
f 47/61/66 46/60/153 63/77/154 65/79/155
s 20
f 4/7/156 5/9/9 66/111/157 64/110/158
s 21
f 56/70/161 55/69/83 67/96/162 68/95/163
s 22
f 13/26/26 14/25/166 70/115/167 69/113/168
s 23
f 43/57/169 56/70/170 68/95/171 57/72/172
s 24
f 14/25/173 1/2/174 59/108/175 70/115/176
s 25
f 49/63/177 48/62/69 71/82/178 72/81/179
s 26
f 6/12/12 7/11/182 74/118/183 73/116/184
s 27
f 50/64/185 49/63/186 72/81/187 75/85/188
s 28
f 7/11/189 8/15/190 76/119/191 74/118/192
s 29
f 51/65/193 50/64/194 75/85/195 77/87/196
s 30
f 8/15/197 9/17/198 78/120/199 76/119/200
s 31
f 52/66/201 51/65/202 77/87/203 79/89/204
s 32
f 9/17/205 10/19/206 80/121/207 78/120/208
s 33
f 53/67/209 52/66/210 79/89/211 81/91/212
s 34
f 10/19/213 11/21/214 82/122/215 80/121/216
s 35
f 54/68/80 53/67/217 81/91/218 83/93/219
s 36
f 11/21/220 12/23/23 84/123/221 82/122/222

# 80 faces
