# Wavefront Obj file
# 
# verts: 112 uv-s: 228
mtllib Stairs.mtl

g pPipe8
#pivot 0.000000 0.000000 0.000000

v 5.571171 -0.026128 -4.242592
v 3.505268 -0.026128 -3.926290
v 1.641589 -0.026128 -3.008352
v 0.162565 -0.026128 -1.578630
v -0.787027 -0.026128 0.222927
v -1.114234 -0.026128 2.219967
v -0.787027 -0.026128 4.217008
v 0.162565 -0.026128 6.018563
v 5.571171 7.734535 -4.242592
v 3.505268 7.132830 -3.926290
v 1.641589 6.125895 -3.008352
v 0.162565 5.018135 -1.578630
v -0.787027 3.679534 0.222927
v -1.114234 2.590653 2.219967
v -0.787027 1.389294 4.217008
v 0.162565 0.230755 6.018563
v 5.571171 7.734535 -8.550961
v 2.127998 7.132830 -8.023797
v -0.978132 6.125895 -6.493897
v -3.443173 5.018135 -4.111028
v -5.025826 3.679534 -1.108434
v -5.571171 2.590653 2.219967
v -5.025826 1.389294 5.548368
v -3.443174 0.230755 8.550961
v 5.571171 -0.026128 -8.550961
v 2.127998 -0.026128 -8.023797
v -0.978132 -0.026128 -6.493897
v -3.443173 -0.026128 -4.111028
v -5.025826 -0.026128 -1.108434
v -5.571171 -0.026128 2.219967
v -5.025826 -0.026128 5.548368
v -3.443174 -0.026128 8.550961
v -0.779478 -0.026128 4.231328
v -0.779478 0.832457 4.231328
v -5.013246 0.832457 5.572234
v -5.013246 -0.026128 5.572234
v -1.111672 -0.026128 2.235595
v -1.111672 1.990996 2.235595
v -5.566904 1.990996 2.246013
v -5.566904 -0.026128 2.246013
v -0.789434 -0.026128 0.237617
v -0.789434 3.192355 0.237617
v -5.029838 3.192355 -1.083952
v -5.029838 -0.026128 -1.083952
v 0.157034 -0.026128 -1.568133
v 0.157034 4.281237 -1.568133
v -3.452392 4.281237 -4.093535
v -3.452392 -0.026128 -4.093535
v 1.627115 -0.026128 -2.994361
v 1.627115 5.619837 -2.994361
v -1.002256 5.619837 -6.470579
v -1.002256 -0.026128 -6.470579
v 3.493095 -0.026128 -3.920296
v 3.493095 6.727598 -3.920296
v 2.107710 6.727598 -8.013803
v 2.107710 -0.026128 -8.013803
v -0.308457 -0.026128 5.124945
v -4.228210 -0.026128 7.061598
v -4.228210 0.832457 7.061598
v -0.308457 0.832457 5.124945
v -0.949349 -0.026128 3.226301
v -5.296365 -0.026128 3.897191
v -5.296365 1.990996 3.897191
v -0.949349 1.990996 3.226301
v -0.951833 -0.026128 1.228791
v -5.300504 -0.026128 0.568008
v -5.300504 3.192355 0.568008
v -0.951833 3.192355 1.228791
v -0.314997 -0.026128 -0.672605
v -4.239109 -0.026128 -2.600984
v -4.239109 4.281237 -2.600984
v -0.314997 4.281237 -0.672605
v 0.894840 -0.026128 -2.286495
v -2.222714 -0.026128 -5.290804
v -2.222714 5.619837 -5.290804
v 0.894840 5.619837 -2.286495
v 2.567342 -0.026128 -3.464324
v 0.564789 -0.026128 -7.253849
v 0.564789 6.727598 -7.253849
v 2.567342 6.727598 -3.464324
v 4.538220 -0.026128 -4.084442
v 4.538220 7.734534 -4.084442
v 3.849585 7.734534 -8.287381
v 3.849585 -0.026128 -8.287381
v -0.289857 -0.026128 5.160233
v -4.197211 -0.026128 7.120410
v -4.197211 0.230755 7.120410
v -0.289857 0.230755 5.160233
v -0.943848 -0.026128 3.259875
v -5.287196 -0.026128 3.953147
v -5.287196 1.389294 3.953147
v -0.943848 1.389294 3.259875
v -0.956307 -0.026128 1.256098
v -5.307961 -0.026128 0.613520
v -5.307961 2.590653 0.613520
v -0.956307 2.590653 1.256098
v -0.338205 -0.026127 -0.628574
v -4.277789 -0.026127 -2.527601
v -4.277789 3.679534 -2.527601
v -0.338205 3.679534 -0.628574
v 0.859823 -0.026128 -2.252645
v -2.281076 -0.026128 -5.234388
v -2.281076 5.018135 -5.234388
v 0.859823 5.018135 -2.252645
v 2.543455 -0.026128 -3.452557
v 0.524976 -0.026128 -7.234243
v 0.524976 6.125895 -7.234243
v 2.543455 6.125895 -3.452557
v 4.518116 -0.026128 -4.081363
v 3.816079 -0.026128 -8.282250
v 3.816079 7.132832 -8.282250
v 4.518116 7.132832 -4.081363
# 112 positions

vt 0.880457 0.779181
vt 0.890294 0.021057
vt 0.890581 0.021060
vt 0.879917 0.842905
vt 0.851703 0.735887
vt 0.860983 0.020676
vt 0.875638 0.020866
vt 0.866358 0.736077
vt 0.823676 0.618193
vt 0.831434 0.020293
vt 0.846040 0.020482
vt 0.838282 0.618383
vt 0.796072 0.476055
vt 0.801991 0.019911
vt 0.816656 0.020101
vt 0.810737 0.476245
vt 0.768044 0.360361
vt 0.772467 0.019528
vt 0.787109 0.019718
vt 0.782687 0.360551
vt 0.740187 0.232756
vt 0.742959 0.019145
vt 0.757594 0.019335
vt 0.754822 0.232946
vt 0.712276 0.109685
vt 0.713455 0.018762
vt 0.728089 0.018952
vt 0.726909 0.109875
vt 0.208858 0.920340
vt 0.244264 0.871065
vt 0.294836 0.907401
vt 0.259430 0.956677
vt 0.145588 0.858047
vt 0.194342 0.821926
vt 0.202879 0.833424
vt 0.159816 0.877211
vt 0.062454 0.720547
vt 0.119857 0.700886
vt 0.124503 0.714383
vt 0.070197 0.743042
vt 0.020354 0.541372
vt 0.081011 0.539816
vt 0.081391 0.554143
vt 0.020988 0.565249
vt 0.030751 0.383444
vt 0.089084 0.400147
vt 0.085161 0.413908
vt 0.024213 0.406379
vt 0.093273 0.224999
vt 0.143813 0.258576
vt 0.135913 0.270499
vt 0.080107 0.244871
vt 0.197672 0.096255
vt 0.235727 0.143514
vt 0.224600 0.152497
vt 0.179126 0.111227
vt 0.355752 0.016946
vt 0.358733 0.775129
vt 0.358505 0.838855
vt 0.355273 0.016948
vt 0.404606 0.016754
vt 0.407420 0.732020
vt 0.382994 0.732116
vt 0.380181 0.016850
vt 0.453859 0.016560
vt 0.456211 0.614506
vt 0.431865 0.614602
vt 0.429514 0.016656
vt 0.502935 0.016367
vt 0.504729 0.472546
vt 0.480286 0.472643
vt 0.478492 0.016463
vt 0.552145 0.016174
vt 0.553486 0.357033
vt 0.529080 0.357129
vt 0.527740 0.016270
vt 0.601330 0.015980
vt 0.602170 0.229607
vt 0.577776 0.229703
vt 0.576936 0.016076
vt 0.650506 0.015787
vt 0.650863 0.106717
vt 0.626472 0.106813
vt 0.626114 0.015883
vt 0.666704 0.640250
vt 0.635666 0.568530
vt 0.636219 0.568292
vt 0.667036 0.640107
vt 0.635920 0.659744
vt 0.584358 0.601021
vt 0.607479 0.580761
vt 0.649793 0.647589
vt 0.612454 0.688008
vt 0.545248 0.648126
vt 0.560926 0.621800
vt 0.621861 0.672212
vt 0.598918 0.722015
vt 0.522689 0.704806
vt 0.529491 0.674804
vt 0.603000 0.704014
vt 0.596540 0.758642
vt 0.518725 0.765849
vt 0.515928 0.735261
vt 0.594862 0.740289
vt 0.605597 0.794190
vt 0.533821 0.825096
vt 0.521713 0.796883
vt 0.598333 0.777262
vt 0.625195 0.825193
vt 0.566482 0.876768
vt 0.546252 0.853680
vt 0.613056 0.811340
vt 0.263902 0.042703
vt 0.286863 0.029304
vt 0.317826 0.082364
vt 0.294865 0.095763
vt 0.728323 0.018955
vt 0.726378 0.168846
vt 0.185844 0.195147
vt 0.140352 0.153861
vt 0.626313 0.165787
vt 0.625724 0.015884
vt 0.545928 0.853310
vt 0.612862 0.811118
vt 0.757825 0.019338
vt 0.754229 0.296451
vt 0.109983 0.326882
vt 0.054154 0.301244
vt 0.577641 0.293213
vt 0.576551 0.016078
vt 0.521523 0.796438
vt 0.598219 0.776995
vt 0.787326 0.019720
vt 0.782234 0.412145
vt 0.078947 0.463943
vt 0.017977 0.456412
vt 0.528921 0.408726
vt 0.527378 0.016271
vt 0.515886 0.734808
vt 0.594837 0.740017
vt 0.816828 0.020103
vt 0.809896 0.554285
vt 0.095158 0.629153
vt 0.034737 0.640263
vt 0.480306 0.550686
vt 0.478205 0.016464
vt 0.529571 0.674452
vt 0.603047 0.703803
vt 0.846329 0.020486
vt 0.837875 0.671978
vt 0.148909 0.760722
vt 0.094579 0.789396
vt 0.431595 0.668199
vt 0.429032 0.016658
vt 0.561236 0.621280
vt 0.622047 0.671900
vt 0.875831 0.020869
vt 0.865993 0.778993
vt 0.232760 0.862852
vt 0.189684 0.906653
vt 0.382841 0.775034
vt 0.379859 0.016851
vt 0.607783 0.580495
vt 0.649975 0.647429
vt 0.625674 0.825740
vt 0.567281 0.877680
vt 0.651469 0.015783
vt 0.651576 0.042989
vt 0.246177 0.057193
vt 0.284230 0.104457
vt 0.712524 0.045958
vt 0.712877 0.018754
vt 0.605844 0.794763
vt 0.534231 0.826052
vt 0.602156 0.015977
vt 0.602746 0.165880
vt 0.127733 0.173126
vt 0.178273 0.206706
vt 0.740518 0.169030
vt 0.742463 0.019138
vt 0.596586 0.759147
vt 0.518802 0.766692
vt 0.552818 0.016171
vt 0.553908 0.293306
vt 0.047892 0.323575
vt 0.106225 0.340280
vt 0.768468 0.296636
vt 0.772064 0.019523
vt 0.598718 0.722900
vt 0.522354 0.706281
vt 0.504137 0.016363
vt 0.505680 0.408817
vt 0.018754 0.479110
vt 0.079413 0.477562
vt 0.796178 0.412326
vt 0.801270 0.019901
vt 0.612004 0.688763
vt 0.544499 0.649385
vt 0.455023 0.016556
vt 0.457125 0.550777
vt 0.042269 0.661627
vt 0.099677 0.641971
vt 0.823804 0.554465
vt 0.830736 0.020284
vt 0.635562 0.660058
vt 0.583761 0.601543
vt 0.405237 0.016751
vt 0.407799 0.668293
vt 0.108515 0.808010
vt 0.157271 0.771890
vt 0.852152 0.672163
vt 0.860605 0.020671
vt 0.905332 0.021252
vt 0.894668 0.843096
vt 0.306542 0.915812
vt 0.278942 0.970696
vt 0.333919 0.838952
vt 0.330687 0.017045
vt 0.664655 0.556090
vt 0.684098 0.632786
vt 0.586713 0.899857
vt 0.637333 0.839046
vt 0.675003 0.042897
vt 0.674896 0.015691
vt 0.698822 0.018572
vt 0.698469 0.045776
vt 0.968194 0.022067
vt 0.957530 0.843912
# 228 texture coordinates

vn 0.151376 0.000000 0.988476
vn 0.151376 0.000000 0.988476
vn 0.151375 0.000000 0.988476
vn 0.151375 0.000000 0.988476
vn 0.441874 0.000000 0.897077
vn 0.441874 0.000000 0.897077
vn 0.441792 0.000000 0.897118
vn 0.441792 0.000000 0.897118
vn 0.695023 0.000000 0.718987
vn 0.695023 0.000000 0.718987
vn 0.695016 0.000000 0.718994
vn 0.695016 0.000000 0.718994
vn 0.884635 0.000000 0.466283
vn 0.884635 0.000000 0.466283
vn 0.884666 0.000000 0.466225
vn 0.884666 0.000000 0.466225
vn 0.986842 0.000000 0.161688
vn 0.986842 0.000000 0.161688
vn 0.986841 0.000000 0.161692
vn 0.986841 0.000000 0.161692
vn 0.986842 0.000000 -0.161690
vn 0.986842 0.000000 -0.161690
vn 0.986834 0.000000 -0.161734
vn 0.986834 0.000000 -0.161734
vn 0.884635 0.000000 -0.466283
vn 0.884635 0.000000 -0.466283
vn 0.884623 0.000000 -0.466307
vn 0.884623 0.000000 -0.466307
vn -0.681736 0.722848 0.112814
vn -0.681736 0.722848 0.112814
vn -0.681736 0.722848 0.112814
vn -0.681736 0.722848 0.112814
vn -0.605835 0.727624 0.321756
vn -0.605835 0.727624 0.321756
vn -0.655044 0.722570 0.220932
vn -0.655044 0.722570 0.220932
vn -0.461811 0.744049 0.482826
vn -0.461811 0.744049 0.482826
vn -0.549562 0.725455 0.414363
vn -0.549562 0.725455 0.414363
vn -0.292009 0.744839 0.599954
vn -0.292009 0.744839 0.599954
vn -0.401542 0.714595 0.572816
vn -0.401542 0.714595 0.572816
vn -0.101504 0.728422 0.677568
vn -0.101504 0.728422 0.677568
vn -0.206844 0.721215 0.661108
vn -0.206844 0.721215 0.661108
vn 0.105453 0.733203 0.671783
vn 0.105453 0.733203 0.671783
vn 0.000812 0.719282 0.694717
vn 0.000812 0.719282 0.694717
vn 0.300955 0.737572 0.604494
vn 0.300955 0.737572 0.604494
vn 0.208602 0.720455 0.661385
vn 0.208602 0.720455 0.661385
vn -0.151353 0.000000 -0.988480
vn -0.151353 0.000000 -0.988480
vn -0.151352 0.000000 -0.988480
vn -0.151352 0.000000 -0.988480
vn -0.441822 0.000000 -0.897103
vn -0.441822 0.000000 -0.897103
vn -0.441884 0.000000 -0.897072
vn -0.441884 0.000000 -0.897072
vn -0.695020 0.000000 -0.718990
vn -0.695020 0.000000 -0.718990
vn -0.695010 0.000000 -0.719000
vn -0.695010 0.000000 -0.719000
vn -0.884633 0.000000 -0.466287
vn -0.884633 0.000000 -0.466287
vn -0.884649 0.000000 -0.466258
vn -0.884649 0.000000 -0.466258
vn -0.986841 0.000000 -0.161693
vn -0.986841 0.000000 -0.161693
vn -0.986839 0.000000 -0.161706
vn -0.986839 0.000000 -0.161706
vn -0.986841 0.000000 0.161694
vn -0.986841 0.000000 0.161694
vn -0.986843 0.000000 0.161683
vn -0.986843 0.000000 0.161683
vn -0.884635 0.000000 0.466284
vn -0.884635 0.000000 0.466284
vn -0.884633 0.000000 0.466289
vn -0.884633 0.000000 0.466289
vn 0.000000 -1.000000 0.000000
vn 0.000000 -1.000000 0.000000
vn 0.000000 -1.000000 0.000000
vn 0.000000 -1.000000 0.000000
vn 0.000000 -1.000000 0.000000
vn 0.000000 -1.000000 0.000000
vn 0.000000 -1.000000 0.000000
vn 0.000000 -1.000000 0.000000
vn 0.000000 -1.000000 0.000000
vn 0.000000 -1.000000 0.000000
vn 0.000000 -1.000000 0.000000
vn 0.000000 -1.000000 0.000000
vn -0.000003 -1.000000 0.000006
vn -0.000003 -1.000000 0.000006
vn 0.000000 -1.000000 0.000000
vn 0.000000 -1.000000 0.000000
vn 0.000000 -1.000000 0.000000
vn 0.000000 -1.000000 0.000000
vn 0.000000 -1.000000 0.000000
vn 0.000000 -1.000000 0.000000
vn 0.000000 -1.000000 0.000000
vn 0.000000 -1.000000 0.000000
vn 0.000000 -1.000000 0.000000
vn 0.000000 -1.000000 0.000000
vn 0.000000 -1.000000 0.000000
vn 0.000000 -1.000000 0.000000
vn 0.000000 -1.000000 0.000000
vn 0.000000 -1.000000 0.000000
vn 0.574738 0.000000 0.818337
vn 0.574738 0.000000 0.818337
vn 0.574738 0.000000 0.818337
vn 0.574738 0.000000 0.818337
vn 0.948043 0.000000 -0.318141
vn 0.948043 0.000000 -0.318141
vn 0.208602 0.720455 0.661385
vn 0.208602 0.720455 0.661385
vn -0.948050 0.000000 0.318122
vn -0.948050 0.000000 0.318122
vn 0.000000 -1.000000 0.000000
vn 0.000000 -1.000000 0.000000
vn 1.000000 0.000000 -0.000045
vn 1.000000 0.000000 -0.000045
vn 0.000812 0.719282 0.694717
vn 0.000812 0.719282 0.694717
vn -1.000000 0.000000 -0.000007
vn -1.000000 0.000000 -0.000007
vn 0.000000 -1.000000 0.000000
vn 0.000000 -1.000000 0.000000
vn 0.948050 0.000000 0.318122
vn 0.948050 0.000000 0.318122
vn -0.206844 0.721215 0.661108
vn -0.206844 0.721215 0.661108
vn -0.948045 0.000000 -0.318136
vn -0.948045 0.000000 -0.318136
vn 0.000000 -1.000000 -0.000000
vn 0.000000 -1.000000 -0.000000
vn 0.799913 0.000000 0.600116
vn 0.799913 0.000000 0.600116
vn -0.401542 0.714595 0.572816
vn -0.401542 0.714595 0.572816
vn -0.799890 0.000000 -0.600147
vn -0.799890 0.000000 -0.600147
vn 0.000000 -1.000000 0.000000
vn 0.000000 -1.000000 0.000000
vn 0.575363 0.000000 0.817898
vn 0.575363 0.000000 0.817898
vn -0.549562 0.725455 0.414363
vn -0.549562 0.725455 0.414363
vn -0.575358 0.000000 -0.817902
vn -0.575358 0.000000 -0.817902
vn 0.000000 -1.000000 0.000000
vn 0.000000 -1.000000 0.000000
vn 0.300032 0.000000 0.953929
vn 0.300032 0.000000 0.953929
vn -0.655044 0.722569 0.220932
vn -0.655044 0.722569 0.220932
vn -0.300129 0.000000 -0.953899
vn -0.300129 0.000000 -0.953899
vn 0.000000 -1.000000 0.000000
vn 0.000000 -1.000000 0.000000
vn 0.000000 -1.000000 0.000000
vn 0.000000 -1.000000 0.000000
vn -0.884635 0.000000 0.466284
vn -0.884635 0.000000 0.466284
vn 0.300955 0.737572 0.604494
vn 0.300955 0.737572 0.604494
vn 0.884635 0.000000 -0.466284
vn 0.884635 0.000000 -0.466284
vn 0.000000 -1.000000 0.000000
vn 0.000000 -1.000000 0.000000
vn -0.986841 0.000000 0.161694
vn -0.986841 0.000000 0.161694
vn 0.105453 0.733203 0.671783
vn 0.105453 0.733203 0.671783
vn 0.986842 0.000000 -0.161689
vn 0.986842 0.000000 -0.161689
vn 0.000000 -1.000000 0.000000
vn 0.000000 -1.000000 0.000000
vn -0.986841 0.000000 -0.161693
vn -0.986841 0.000000 -0.161693
vn -0.101504 0.728422 0.677568
vn -0.101504 0.728422 0.677568
vn 0.986842 0.000000 0.161689
vn 0.986842 0.000000 0.161689
vn -0.000003 -1.000000 0.000006
vn -0.000003 -1.000000 0.000006
vn -0.884633 0.000000 -0.466287
vn -0.884633 0.000000 -0.466287
vn -0.292009 0.744839 0.599954
vn -0.292009 0.744839 0.599954
vn 0.884636 0.000000 0.466282
vn 0.884636 0.000000 0.466282
vn 0.000000 -1.000000 0.000000
vn 0.000000 -1.000000 0.000000
vn -0.695020 0.000000 -0.718990
vn -0.695020 0.000000 -0.718990
vn -0.461811 0.744049 0.482826
vn -0.461811 0.744049 0.482826
vn 0.695023 0.000000 0.718988
vn 0.695023 0.000000 0.718988
vn 0.000000 -1.000000 0.000000
vn 0.000000 -1.000000 0.000000
vn -0.441822 0.000000 -0.897103
vn -0.441822 0.000000 -0.897103
vn -0.605835 0.727624 0.321756
vn -0.605835 0.727624 0.321756
vn 0.441873 0.000000 0.897078
vn 0.441873 0.000000 0.897078
vn 0.151342 0.000000 0.988482
vn 0.151342 0.000000 0.988482
vn -0.000001 1.000000 0.000000
vn -0.000001 1.000000 0.000000
vn -0.151340 0.000000 -0.988482
vn -0.151340 0.000000 -0.988482
vn 0.000000 -1.000000 0.000000
vn 0.000000 -1.000000 0.000000
vn 0.000000 -1.000000 0.000000
vn 0.000000 -1.000000 0.000000
vn -0.884634 0.000000 0.466286
vn -0.884634 0.000000 0.466286
vn 0.000000 1.000000 0.000000
vn 0.000000 1.000000 0.000000
vn 0.884634 0.000000 -0.466287
vn 0.884634 0.000000 -0.466287
vn 1.000000 0.000000 0.000000
vn 1.000000 0.000000 0.000000
vn 1.000000 0.000000 0.000000
vn 1.000000 0.000000 0.000000
# 232 normals

usemtl lambert6SG
s 1
f 112/1/1 109/2/2 81/3/3 82/4/4
f 80/5/5 77/6/6 53/7/7 54/8/8
f 76/9/9 73/10/10 49/11/11 50/12/12
f 72/13/13 69/14/14 45/15/15 46/16/16
f 68/17/17 65/18/18 41/19/19 42/20/20
f 64/21/21 61/22/22 37/23/23 38/24/24
f 60/25/25 57/26/26 33/27/27 34/28/28
f 34/28/28 33/27/27 7/117/117 15/118/118
f 38/24/24 37/23/23 6/125/125 14/126/126
f 42/20/20 41/19/19 5/133/133 13/134/134
f 46/16/16 45/15/15 4/141/141 12/142/142
f 50/12/12 49/11/11 3/149/149 11/150/150
f 54/8/8 53/7/7 2/157/157 10/158/158
f 88/171/171 85/172/172 57/26/26 60/25/25
f 92/179/179 89/180/180 61/22/22 64/21/21
f 96/187/187 93/188/188 65/18/18 68/17/17
f 100/195/195 97/196/196 69/14/14 72/13/13
f 104/203/203 101/204/204 73/10/10 76/9/9
f 108/211/211 105/212/212 77/6/6 80/5/5
f 82/4/4 81/3/3 1/213/213 9/214/214
f 8/225/227 85/172/172 88/171/171 16/226/228
f 7/117/117 89/180/180 92/179/179 15/118/118
f 6/125/125 93/188/188 96/187/187 14/126/126
f 5/133/133 97/196/196 100/195/195 13/134/134
f 4/141/141 101/204/204 104/203/203 12/142/142
f 3/149/149 105/212/212 108/211/211 11/150/150
f 2/157/157 109/2/2 112/1/1 10/158/158
s 2
f 111/29/29 112/30/30 82/31/31 83/32/32
f 79/33/33 80/34/34 54/35/35 55/36/36
f 75/37/37 76/38/38 50/39/39 51/40/40
f 71/41/41 72/42/42 46/43/43 47/44/44
f 67/45/45 68/46/46 42/47/47 43/48/48
f 63/49/49 64/50/50 38/51/51 39/52/52
f 59/53/53 60/54/54 34/55/55 35/56/56
f 35/56/56 34/55/55 15/119/119 23/120/120
f 39/52/52 38/51/51 14/127/127 22/128/128
f 43/48/48 42/47/47 13/135/135 21/136/136
f 47/44/44 46/43/43 12/143/143 20/144/144
f 51/40/40 50/39/39 11/151/151 19/152/152
f 55/36/36 54/35/35 10/159/159 18/160/160
f 87/169/169 88/170/170 60/54/54 59/53/53
f 91/177/177 92/178/178 64/50/50 63/49/49
f 95/185/185 96/186/186 68/46/46 67/45/45
f 99/193/193 100/194/194 72/42/42 71/41/41
f 103/201/201 104/202/202 76/38/38 75/37/37
f 107/209/209 108/210/210 80/34/34 79/33/33
f 83/32/32 82/31/31 9/215/215 17/216/216
f 16/116/225 88/170/170 87/169/169 24/113/226
f 15/119/119 92/178/178 91/177/177 23/120/120
f 14/127/127 96/186/186 95/185/185 22/128/128
f 13/135/135 100/194/194 99/193/193 21/136/136
f 12/143/143 104/202/202 103/201/201 20/144/144
f 11/151/151 108/210/210 107/209/209 19/152/152
f 10/159/159 112/30/30 111/29/29 18/160/160
s 3
f 110/57/57 111/58/58 83/59/59 84/60/60
f 78/61/61 79/62/62 55/63/63 56/64/64
f 74/65/65 75/66/66 51/67/67 52/68/68
f 70/69/69 71/70/70 47/71/71 48/72/72
f 66/73/73 67/74/74 43/75/75 44/76/76
f 62/77/77 63/78/78 39/79/79 40/80/80
f 58/81/81 59/82/82 35/83/83 36/84/84
f 36/84/84 35/83/83 23/121/121 31/122/122
f 40/80/80 39/79/79 22/129/129 30/130/130
f 44/76/76 43/75/75 21/137/137 29/138/138
f 48/72/72 47/71/71 20/145/145 28/146/146
f 52/68/68 51/67/67 19/153/153 27/154/154
f 56/64/64 55/63/63 18/161/161 26/162/162
f 86/167/167 87/168/168 59/82/82 58/81/81
f 90/175/175 91/176/176 63/78/78 62/77/77
f 94/183/183 95/184/184 67/74/74 66/73/73
f 98/191/191 99/192/192 71/70/70 70/69/69
f 102/199/199 103/200/200 75/66/66 74/65/65
f 106/207/207 107/208/208 79/62/62 78/61/61
f 84/60/60 83/59/59 17/217/217 25/218/218
f 24/223/223 87/168/168 86/167/167 32/224/224
f 23/121/121 91/176/176 90/175/175 31/122/122
f 22/129/129 95/184/184 94/183/183 30/130/130
f 21/137/137 99/192/192 98/191/191 29/138/138
f 20/145/145 103/200/200 102/199/199 28/146/146
f 19/153/153 107/208/208 106/207/207 27/154/154
f 18/161/161 111/58/58 110/57/57 26/162/162
s 4
f 109/85/85 110/86/86 84/87/87 81/88/88
f 77/89/89 78/90/90 56/91/91 53/92/92
f 73/93/93 74/94/94 52/95/95 49/96/96
f 69/97/97 70/98/98 48/99/99 45/100/100
f 65/101/101 66/102/102 44/103/103 41/104/104
f 61/105/105 62/106/106 40/107/107 37/108/108
f 57/109/109 58/110/110 36/111/111 33/112/112
f 33/112/112 36/111/111 31/123/123 7/124/124
f 37/108/108 40/107/107 30/131/131 6/132/132
f 41/104/104 44/103/103 29/139/139 5/140/140
f 45/100/100 48/99/99 28/147/147 4/148/148
f 49/96/96 52/95/95 27/155/155 3/156/156
f 53/92/92 56/91/91 26/163/163 2/164/164
f 85/165/165 86/166/166 58/110/110 57/109/109
f 89/173/173 90/174/174 62/106/106 61/105/105
f 93/181/181 94/182/182 66/102/102 65/101/101
f 97/189/189 98/190/190 70/98/98 69/97/97
f 101/197/197 102/198/198 74/94/94 73/93/93
f 105/205/205 106/206/206 78/90/90 77/89/89
f 81/88/88 84/87/87 25/219/219 1/220/220
f 32/221/221 86/166/166 85/165/165 8/222/222
f 31/123/123 90/174/174 89/173/173 7/124/124
f 30/131/131 94/182/182 93/181/181 6/132/132
f 29/139/139 98/190/190 97/189/189 5/140/140
f 28/147/147 102/198/198 101/197/197 4/148/148
f 27/155/155 106/206/206 105/205/205 3/156/156
f 26/163/163 110/86/86 109/85/85 2/164/164
s 5
f 24/113/113 32/114/114 8/115/115 16/116/116
s 6
f 9/214/229 1/213/230 25/227/231 17/228/232

# 110 faces
