# Wavefront Obj file
# 
# verts: 80 uv-s: 132
mtllib Tarot Doorbnob.mtl

g pSphere12
#pivot 0.000000 0.000000 0.000000

v 1.202575 0.270598 -0.270598
v 1.202575 0.000000 -0.382683
v 1.202575 -0.270598 -0.270598
v 1.202575 -0.382683 0.000000
v 1.202575 -0.270598 0.270598
v 1.202575 0.000000 0.382683
v 1.202575 0.270598 0.270598
v 1.202575 0.382683 0.000000
v 0.985803 0.609803 -0.349405
v 0.985803 0.000000 -0.707107
v 0.993175 -0.722335 -0.331618
v 1.054860 -0.571719 0.000000
v 0.985803 -0.500000 0.500000
v 0.985803 0.000000 0.707107
v 0.985803 0.500000 0.500000
v 0.985803 0.499551 0.000000
v 0.661380 0.653281 -0.653281
v 0.661380 0.000000 -0.923879
v 0.661380 -0.653281 -0.653281
v 0.661380 -0.923879 0.000000
v 0.661380 -0.653281 0.653281
v 0.661380 0.000000 0.923879
v 0.661380 0.653281 0.653281
v 0.661380 0.923879 0.000000
v 0.278696 0.707107 -0.707107
v 0.278696 0.000000 -1.000000
v 0.278696 -0.707107 -0.707107
v 0.278696 -1.000000 0.000000
v 0.278696 -0.707107 0.707107
v 0.278696 0.000000 1.000000
v 0.278696 0.707107 0.707107
v 0.278696 1.000000 0.000000
v -0.103988 0.653281 -0.653281
v -0.103988 0.000000 -0.923879
v -0.103988 -0.653281 -0.653281
v -0.103988 -0.923879 0.000000
v -0.103988 -0.653281 0.653281
v -0.103988 0.000000 0.923879
v -0.103988 0.653281 0.653281
v -0.103988 0.923879 0.000000
v -0.428411 0.500000 -0.500000
v -0.428411 0.000000 -0.707107
v -0.428411 -0.500000 -0.500000
v -0.428411 -0.707107 0.000000
v -0.428411 -0.500000 0.500000
v -0.428411 0.000000 0.707107
v -0.428411 0.500000 0.500000
v -0.428411 0.707107 0.000000
v -0.657547 0.263167 -0.263167
v -0.657547 0.000000 -0.372174
v -0.657547 -0.263167 -0.263167
v -0.657547 -0.372174 0.000000
v -0.657547 -0.263167 0.263167
v -0.657547 0.000000 0.372174
v -0.657547 0.263167 0.263167
v -0.657547 0.372174 0.000000
v 1.278696 0.000000 0.000000
v 1.236977 -0.270598 -0.270598
v 1.236977 -0.382683 0.000000
v 1.114355 -0.522327 0.000000
v 1.114355 -0.724337 -0.338520
v 1.236977 -0.270598 0.270598
v 1.114355 -0.500000 0.500000
v 1.236977 0.000000 0.382683
v 1.114355 0.000000 0.707107
v 1.236977 0.270598 0.270598
v 1.114355 0.500000 0.500000
v 1.236977 0.382683 0.000000
v 1.226724 0.454231 0.000000
v 1.236977 0.270598 -0.270598
v 1.114355 0.609803 -0.349405
v -1.278696 0.255735 -0.255735
v -1.278696 0.000000 -0.361665
v -1.278696 -0.255736 -0.255735
v -1.278696 -0.361665 0.000000
v -1.278696 -0.255736 0.255735
v -1.278696 0.000000 0.361665
v -1.278696 0.255735 0.255735
v -1.278696 0.361665 0.000000
v -1.278696 0.000000 0.000000
# 80 positions

vt 0.610570 0.391260
vt 0.708926 0.418985
vt 0.696442 0.490586
vt 0.556084 0.463296
vt 0.796331 0.436797
vt 0.827228 0.519667
vt 0.507831 0.268437
vt 0.382334 0.244511
vt 0.373972 0.163871
vt 0.512009 0.061310
vt 0.264406 0.293662
vt 0.156908 0.187232
vt 0.212978 0.410601
vt 0.061890 0.403307
vt 0.252887 0.531945
vt 0.135622 0.627518
vt 0.364054 0.594938
vt 0.360063 0.626216
vt 0.487473 0.561871
vt 0.505237 0.721948
vt 0.691888 0.546038
vt 0.582178 0.551181
vt 0.776953 0.554283
vt 0.870297 0.535454
vt 0.839381 0.572927
vt 0.900400 0.577059
vt 0.882874 0.600182
vt 0.931570 0.607754
vt 0.915361 0.626015
vt 0.957201 0.635332
vt 0.941788 0.650872
vt 0.983526 0.652767
vt 0.965447 0.675454
vt 0.995793 0.673177
vt 0.993735 0.700448
vt 0.694241 0.590605
vt 0.594193 0.612924
vt 0.770443 0.589418
vt 0.828121 0.600880
vt 0.870578 0.620551
vt 0.902937 0.642014
vt 0.929107 0.664397
vt 0.952450 0.688586
vt 0.978821 0.718124
vt 0.702140 0.630286
vt 0.620156 0.664869
vt 0.768123 0.621662
vt 0.820413 0.626922
vt 0.860616 0.640527
vt 0.891905 0.657789
vt 0.917162 0.677470
vt 0.938750 0.700510
vt 0.959687 0.731393
vt 0.715965 0.668457
vt 0.658357 0.706252
vt 0.769574 0.654778
vt 0.815023 0.654551
vt 0.851771 0.662521
vt 0.881033 0.675287
vt 0.904413 0.691598
vt 0.923142 0.711955
vt 0.936867 0.739490
vt 0.739757 0.710799
vt 0.708151 0.737106
vt 0.777081 0.696486
vt 0.812544 0.691264
vt 0.843170 0.692906
vt 0.868299 0.699681
vt 0.888117 0.710473
vt 0.902576 0.724711
vt 0.910133 0.741913
vt 0.781035 0.253555
vt 0.938210 0.375865
vt 0.993347 0.220021
vt 0.912091 0.063150
vt 0.731052 0.010880
vt 0.557758 0.111480
vt 0.505019 0.283176
vt 0.379528 0.259254
vt 0.363825 0.131700
vt 0.479499 0.019509
vt 0.563735 0.049964
vt 0.522406 0.264855
vt 0.388106 0.258362
vt 0.270179 0.307512
vt 0.148944 0.131728
vt 0.371320 0.130247
vt 0.278140 0.299702
vt 0.226713 0.416642
vt 0.010564 0.380739
vt 0.105583 0.164664
vt 0.227234 0.405913
vt 0.267139 0.527261
vt 0.082365 0.645032
vt 0.008636 0.420824
vt 0.260284 0.518883
vt 0.371459 0.581882
vt 0.335958 0.730412
vt 0.123227 0.682210
vt 0.360167 0.580440
vt 0.483591 0.547373
vt 0.502091 0.565264
vt 0.559863 0.734626
vt 0.489341 0.775723
vt 0.336073 0.730430
vt 0.506247 0.956325
vt 0.506247 0.938601
vt 0.557486 0.955465
vt 0.549257 0.974558
vt 0.514722 0.911345
vt 0.568530 0.934569
vt 0.526230 0.883622
vt 0.581870 0.912111
vt 0.540159 0.855817
vt 0.596940 0.888475
vt 0.555930 0.828130
vt 0.613328 0.863985
vt 0.573056 0.800709
vt 0.630659 0.838895
vt 0.591144 0.773701
vt 0.648608 0.813428
vt 0.609758 0.747219
vt 0.666816 0.787864
vt 0.309551 0.967870
vt 0.228024 0.999042
vt 0.231160 0.885044
vt 0.148334 0.963436
vt 0.117162 0.881909
vt 0.152768 0.802218
vt 0.234295 0.771046
vt 0.313986 0.806653
vt 0.345158 0.888180
# 132 texture coordinates

vn 0.936116 0.198903 -0.290042
vn 0.918138 0.009330 -0.396151
vn 0.725470 0.012354 -0.688143
vn 0.701874 0.508446 -0.498854
vn 0.940270 -0.186003 -0.285124
vn 0.647322 -0.553286 -0.524260
vn 0.920345 -0.386915 0.057121
vn 0.889641 -0.450719 0.073420
vn 0.889641 -0.450719 0.073420
vn 0.920345 -0.386915 0.057121
vn 0.913948 -0.337405 0.225514
vn 0.913948 -0.337405 0.225514
vn 0.935413 0.000000 0.353557
vn 0.935413 0.000000 0.353557
vn 0.940723 0.220118 0.258045
vn 0.940723 0.220118 0.258045
vn 0.957467 0.288499 0.005130
vn 0.957467 0.288499 0.005130
vn 0.948527 0.277593 -0.152440
vn 0.948527 0.277593 -0.152440
vn 0.423897 0.002971 -0.905706
vn 0.440202 0.674313 -0.592895
vn 0.374831 -0.704833 -0.602256
vn 0.515814 -0.854249 0.064760
vn 0.365074 -0.930368 0.033703
vn 0.594865 -0.578895 0.557689
vn 0.406203 -0.651590 0.640648
vn 0.555570 0.000000 0.831470
vn 0.384551 0.000000 0.923104
vn 0.648217 0.561625 0.514190
vn 0.435912 0.648534 0.624007
vn 0.655216 0.755119 0.022074
vn 0.447548 0.894182 0.011788
vn 0.000000 0.000000 -1.000000
vn 0.000000 0.707107 -0.707107
vn 0.000000 -0.707107 -0.707107
vn 0.000000 -1.000000 0.000000
vn 0.000000 -0.707107 0.707107
vn 0.000000 0.000000 1.000000
vn 0.000000 0.707107 0.707107
vn 0.000000 1.000000 0.000000
vn -0.384551 0.000000 -0.923104
vn -0.384551 0.652733 -0.652733
vn -0.384551 -0.652733 -0.652733
vn -0.384551 -0.923104 0.000000
vn -0.384551 -0.652733 0.652733
vn -0.384551 0.000000 0.923104
vn -0.384551 0.652733 0.652733
vn -0.384551 0.923104 0.000000
vn -0.705244 0.000000 -0.708964
vn -0.705244 0.501313 -0.501313
vn -0.705244 -0.501313 -0.501313
vn -0.705244 -0.708964 0.000000
vn -0.705244 -0.501313 0.501313
vn -0.705244 0.000000 0.708964
vn -0.705244 0.501313 0.501313
vn -0.705244 0.708964 0.000000
vn -0.485931 0.000000 -0.873997
vn -0.485931 0.618010 -0.618010
vn -0.485930 -0.618010 -0.618009
vn -0.485930 -0.873998 0.000000
vn -0.485930 -0.618010 0.618009
vn -0.485931 0.000000 0.873997
vn -0.485931 0.618010 0.618010
vn -0.485931 0.873997 0.000000
vn 1.000000 0.000000 0.000000
vn 0.980785 -0.195092 0.000000
vn 0.980785 -0.137951 0.137951
vn 0.980785 0.000000 0.195092
vn 0.980785 0.137951 0.137951
vn 0.980785 0.195092 0.000000
vn 0.000000 0.923880 0.382682
vn 0.000000 1.000000 0.000000
vn 0.000000 1.000000 0.000000
vn 0.000000 0.923880 0.382682
vn 0.244057 -0.867278 0.433896
vn 0.244057 -0.867278 0.433896
vn 0.244057 -0.867278 0.433896
vn 0.244057 -0.867278 0.433896
vn -0.041776 0.155855 -0.986896
vn -0.041776 0.155855 -0.986896
vn -0.041776 0.155855 -0.986896
vn -0.041776 0.155855 -0.986896
vn 0.000000 0.707107 -0.707107
vn 0.000000 0.707107 -0.707107
vn 0.252559 -0.961550 0.107871
vn 0.252559 -0.961550 0.107871
vn 0.252559 -0.961550 0.107871
vn 0.252559 -0.961550 0.107871
vn 0.000000 0.000000 -1.000000
vn 0.000000 0.000000 -1.000000
vn 0.000000 -0.382684 0.923879
vn 0.000000 -0.382684 0.923879
vn 0.000000 -0.382684 0.923879
vn 0.000000 -0.382684 0.923879
vn 0.000000 -0.707107 -0.707107
vn 0.000000 -0.707107 -0.707107
vn 0.000000 0.382684 0.923879
vn 0.000000 0.382684 0.923879
vn 0.000000 0.382684 0.923879
vn 0.000000 0.382684 0.923879
vn 0.000000 -1.000000 0.000000
vn 0.000000 -1.000000 0.000000
vn 0.121686 0.992047 -0.032177
vn 0.121686 0.992047 -0.032177
vn 0.121686 0.992047 -0.032177
vn 0.121686 0.992047 -0.032177
vn 0.000000 -0.923880 0.382682
vn 0.000000 -0.923880 0.382682
vn 0.000000 -0.226301 -0.974057
vn 0.000000 -0.226301 -0.974057
vn 0.000000 -0.226301 -0.974057
vn 0.000000 -0.226301 -0.974057
vn 0.114625 0.934486 0.337042
vn 0.114625 0.934486 0.337042
vn 0.114625 0.934486 0.337042
vn 0.114625 0.934486 0.337042
vn -0.739771 0.000000 -0.672859
vn -0.739771 0.475783 -0.475783
vn -0.739771 -0.475783 -0.475783
vn -0.739770 -0.672859 0.000000
vn -0.739771 -0.475783 0.475783
vn -0.739771 0.000000 0.672859
vn -0.739771 0.475783 0.475783
vn -0.739771 0.672859 0.000000
vn -1.000000 0.000000 0.000000
# 126 normals

usemtl lambert25SG
s 1
f 1/1/1 2/2/2 10/3/3 9/4/4
f 2/2/2 3/5/5 11/6/6 10/3/3
f 9/4/4 10/3/3 18/21/21 17/22/22
f 10/3/3 11/6/6 19/23/23 18/21/21
f 11/6/6 12/24/24 20/25/25 19/23/23
f 12/24/24 13/26/26 21/27/27 20/25/25
f 13/26/26 14/28/28 22/29/29 21/27/27
f 14/28/28 15/30/30 23/31/31 22/29/29
f 15/30/30 16/32/32 24/33/33 23/31/31
f 16/32/32 9/34/4 17/35/22 24/33/33
f 17/22/22 18/21/21 26/36/34 25/37/35
f 18/21/21 19/23/23 27/38/36 26/36/34
f 19/23/23 20/25/25 28/39/37 27/38/36
f 20/25/25 21/27/27 29/40/38 28/39/37
f 21/27/27 22/29/29 30/41/39 29/40/38
f 22/29/29 23/31/31 31/42/40 30/41/39
f 23/31/31 24/33/33 32/43/41 31/42/40
f 24/33/33 17/35/22 25/44/35 32/43/41
f 25/37/35 26/36/34 34/45/42 33/46/43
f 26/36/34 27/38/36 35/47/44 34/45/42
f 27/38/36 28/39/37 36/48/45 35/47/44
f 28/39/37 29/40/38 37/49/46 36/48/45
f 29/40/38 30/41/39 38/50/47 37/49/46
f 30/41/39 31/42/40 39/51/48 38/50/47
f 31/42/40 32/43/41 40/52/49 39/51/48
f 32/43/41 25/44/35 33/53/43 40/52/49
f 33/46/43 34/45/42 42/54/50 41/55/51
f 34/45/42 35/47/44 43/56/52 42/54/50
f 35/47/44 36/48/45 44/57/53 43/56/52
f 36/48/45 37/49/46 45/58/54 44/57/53
f 37/49/46 38/50/47 46/59/55 45/58/54
f 38/50/47 39/51/48 47/60/56 46/59/55
f 39/51/48 40/52/49 48/61/57 47/60/56
f 40/52/49 33/53/43 41/62/51 48/61/57
f 41/55/51 42/54/50 50/63/58 49/64/59
f 42/54/50 43/56/52 51/65/60 50/63/58
f 43/56/52 44/57/53 52/66/61 51/65/60
f 44/57/53 45/58/54 53/67/62 52/66/61
f 45/58/54 46/59/55 54/68/63 53/67/62
f 46/59/55 47/60/56 55/69/64 54/68/63
f 47/60/56 48/61/57 56/70/65 55/69/64
f 48/61/57 41/62/51 49/71/59 56/70/65
f 2/2/2 1/1/1 57/72/66
f 3/5/5 2/2/2 57/72/66
f 4/73/67 3/5/5 57/72/66
f 5/74/68 4/73/67 57/72/66
f 6/75/69 5/74/68 57/72/66
f 7/76/70 6/75/69 57/72/66
f 8/77/71 7/76/70 57/72/66
f 1/1/1 8/77/71 57/72/66
f 49/106/59 50/107/58 73/108/118 72/109/119
f 50/107/58 51/110/60 74/111/120 73/108/118
f 51/110/60 52/112/61 75/113/121 74/111/120
f 52/112/61 53/114/62 76/115/122 75/113/121
f 53/114/62 54/116/63 77/117/123 76/115/122
f 54/116/63 55/118/64 78/119/124 77/117/123
f 55/118/64 56/120/65 79/121/125 78/119/124
f 56/120/65 49/122/59 72/123/119 79/121/125
f 72/124/119 73/125/118 80/126/126
f 73/125/118 74/127/120 80/126/126
f 74/127/120 75/128/121 80/126/126
f 75/128/121 76/129/122 80/126/126
f 76/129/122 77/130/123 80/126/126
f 77/130/123 78/131/124 80/126/126
f 78/131/124 79/132/125 80/126/126
f 79/132/125 72/124/119 80/126/126
s 2
f 58/7/7 59/8/8 60/9/9 61/10/10
f 59/8/8 62/11/11 63/12/12 60/9/9
f 62/11/11 64/13/13 65/14/14 63/12/12
f 64/13/13 66/15/15 67/16/16 65/14/14
f 66/15/15 68/17/17 69/18/18 67/16/16
f 68/17/17 70/19/19 71/20/20 69/18/18
s 3
f 3/78/72 4/79/73 59/8/74 58/7/75
f 4/84/73 5/85/84 62/11/85 59/8/74
f 5/88/84 6/89/90 64/13/91 62/11/85
f 6/92/90 7/93/96 66/15/97 64/13/91
f 7/96/96 8/97/102 68/17/103 66/15/97
f 8/100/102 1/101/108 70/19/109 68/17/103
s 4
f 12/80/76 11/81/77 61/10/78 60/9/79
s 5
f 11/82/80 3/83/81 58/7/82 61/10/83
s 6
f 13/86/86 12/87/87 60/9/88 63/12/89
s 7
f 14/90/92 13/91/93 63/12/94 65/14/95
s 8
f 15/94/98 14/95/99 65/14/100 67/16/101
s 9
f 16/98/104 15/99/105 67/16/106 69/18/107
s 10
f 1/102/110 9/103/111 71/20/112 70/19/113
s 11
f 9/104/114 16/105/115 69/18/116 71/20/117

# 86 faces
