# Wavefront Obj file
# 
# verts: 10 uv-s: 12
mtllib Crymstal 2.mtl

g pCube15
#pivot 0.000000 0.000000 0.000000

v 0.000000 -2.017835 0.000000
v -0.500000 -0.672612 0.500000
v 0.500000 -0.672612 0.500000
v -0.500000 0.672611 0.500000
v 0.500000 0.672611 0.500000
v 0.000000 2.017835 0.000000
v -0.500000 0.672611 -0.500000
v 0.500000 0.672611 -0.500000
v -0.500000 -0.672612 -0.500000
v 0.500000 -0.672612 -0.500000
# 10 positions

vt 0.740904 0.776822
vt 0.543807 0.538882
vt 0.615904 0.422655
vt 0.441675 0.448919
vt 0.498223 0.354185
vt 0.296034 0.327248
vt 0.365773 0.524857
vt 0.244924 0.586343
vt 0.477296 0.642818
vt 0.403904 0.778213
vt 0.761290 0.362945
vt 0.541713 0.227593
# 12 texture coordinates

vn 0.000000 -0.348398 0.937347
vn 0.000000 -0.176993 0.984212
vn 0.000000 -0.176993 0.984212
vn 0.000000 0.176993 0.984212
vn 0.000000 0.176993 0.984212
vn 0.000000 0.348398 0.937347
vn 0.000000 0.348398 -0.937347
vn 0.000000 0.176993 -0.984212
vn 0.000000 0.176993 -0.984212
vn 0.000000 -0.176993 -0.984212
vn 0.000000 -0.176993 -0.984212
vn 0.000000 -0.348398 -0.937347
vn 0.937347 -0.348398 0.000000
vn 0.984212 -0.176993 0.000000
vn 0.984212 -0.176993 0.000000
vn 0.984212 0.176993 0.000000
vn 0.984212 0.176993 0.000000
vn 0.937347 0.348398 0.000000
vn -0.937347 -0.348398 0.000000
vn -0.984212 -0.176993 0.000000
vn -0.984212 -0.176993 0.000000
vn -0.984212 0.176993 0.000000
vn -0.984212 0.176993 0.000000
vn -0.937347 0.348398 0.000000
# 24 normals

usemtl lambert6SG
s 1
f 1/1/1 3/2/2 2/3/3
f 2/3/3 3/2/2 5/4/4 4/5/5
s 2
f 4/5/5 5/4/4 6/6/6
s 3
f 6/6/7 8/7/8 7/8/9
f 7/8/9 8/7/8 10/9/10 9/10/11
s 4
f 9/10/11 10/9/10 1/1/12
s 5
f 1/1/13 10/9/14 3/2/15
f 3/2/15 10/9/14 8/7/16 5/4/17
s 6
f 5/4/17 8/7/16 6/6/18
s 7
f 1/1/19 2/3/20 9/11/21
f 9/11/21 2/3/20 4/5/22 7/12/23
s 8
f 7/12/23 4/5/22 6/6/24

# 12 faces
