# Wavefront Obj file
# 
# verts: 124 uv-s: 183
mtllib Ceiling Light.mtl

g pCylinder5
#pivot 0.000000 0.000000 0.000000

v 1.202850 -1.300223 -1.202850
v 0.000000 -1.300223 -1.701087
v -1.202850 -1.300223 -1.202850
v -1.701087 -1.300223 0.000000
v -1.202850 -1.300223 1.202850
v 0.000000 -1.300223 1.701087
v 1.202850 -1.300223 1.202850
v 1.701087 -1.300223 0.000000
v 0.707107 0.451118 -0.707107
v 0.000000 0.451118 -1.000000
v -0.707107 0.451118 -0.707107
v -1.000000 0.451118 0.000000
v -0.707107 0.451118 0.707107
v 0.000000 0.451118 1.000000
v 0.707107 0.451118 0.707107
v 1.000000 0.451118 0.000000
v 0.000000 0.451118 0.000000
v 1.202850 -0.537843 -1.202850
v 0.000000 -0.537843 -1.701087
v -1.202850 -0.537843 -1.202850
v -1.701087 -0.537843 0.000000
v -1.202850 -0.537843 1.202850
v 0.000000 -0.537843 1.701087
v 1.202850 -0.537843 1.202850
v 1.701087 -0.537843 0.000000
v 0.875827 -0.340051 -0.875827
v 1.238607 -0.340051 0.000000
v 0.875827 -0.340051 0.875827
v 0.000000 -0.340051 1.238607
v -0.875827 -0.340051 0.875827
v -1.238607 -0.340051 0.000000
v -0.875827 -0.340051 -0.875827
v 0.000000 -0.340051 -1.238607
v 0.707107 -0.054052 -0.707107
v 1.000000 -0.054052 0.000000
v 0.707107 -0.054052 0.707107
v 0.000000 -0.054052 1.000000
v -0.707107 -0.054052 0.707107
v -1.000000 -0.054052 0.000000
v -0.707107 -0.054052 -0.707107
v 0.000000 -0.054052 -1.000000
v -1.029687 -1.300223 -1.029687
v 0.000000 -1.300223 -1.442493
v 1.026370 -1.300223 -1.026370
v 1.430180 -1.300223 0.000000
v 1.015969 -1.300223 1.015969
v 0.000000 -1.300223 1.445376
v -1.016678 -1.300223 1.016678
v -1.441101 -1.300223 0.000000
v 0.000000 -0.528597 -1.442493
v 1.026370 -0.528597 -1.026370
v 0.000000 -0.528597 0.000000
v -1.029687 -0.528597 -1.029687
v -1.441101 -0.528597 0.000000
v -1.016678 -0.528597 1.016678
v 0.000000 -0.528597 1.445376
v 1.015969 -0.528597 1.015969
v 1.430180 -0.528597 0.000000
v 0.270598 -1.945717 -0.270598
v 0.000000 -1.945717 -0.382683
v -0.270598 -1.945717 -0.270598
v -0.382684 -1.945717 0.000000
v -0.270598 -1.945717 0.270598
v 0.000000 -1.945717 0.382683
v 0.270598 -1.945717 0.270598
v 0.382683 -1.945717 0.000000
v 0.500000 -1.728944 -0.500000
v 0.000000 -1.728944 -0.707107
v -0.500000 -1.728944 -0.500000
v -0.707107 -1.728944 0.000000
v -0.500000 -1.728944 0.500000
v 0.000000 -1.728944 0.707107
v 0.500000 -1.728944 0.500000
v 0.707107 -1.728944 0.000000
v 0.653281 -1.404520 -0.653281
v 0.000000 -1.404520 -0.923879
v -0.653282 -1.404520 -0.653281
v -0.923880 -1.404520 0.000000
v -0.653282 -1.404520 0.653281
v 0.000000 -1.404520 0.923879
v 0.653281 -1.404520 0.653281
v 0.923879 -1.404520 0.000000
v 0.707107 -1.021837 -0.707107
v 0.000000 -1.021837 -1.000000
v -0.707107 -1.021837 -0.707107
v -1.000000 -1.021837 0.000000
v -0.707107 -1.021837 0.707107
v 0.000000 -1.021837 1.000000
v 0.707107 -1.021837 0.707107
v 1.000000 -1.021837 0.000000
v 0.653281 -0.639154 -0.653281
v 0.000000 -0.639154 -0.923879
v -0.653282 -0.639154 -0.653281
v -0.923880 -0.639154 0.000000
v -0.653282 -0.639154 0.653281
v 0.000000 -0.639154 0.923879
v 0.653281 -0.639154 0.653281
v 0.923879 -0.639154 0.000000
v 0.500000 -0.314730 -0.500000
v 0.000000 -0.314730 -0.707107
v -0.500000 -0.314730 -0.500000
v -0.707107 -0.314730 0.000000
v -0.500000 -0.314730 0.500000
v 0.000000 -0.314730 0.707107
v 0.500000 -0.314730 0.500000
v 0.707107 -0.314730 0.000000
v 0.270598 -0.097958 -0.270598
v 0.000000 -0.097958 -0.382683
v -0.270598 -0.097958 -0.270598
v -0.382684 -0.097958 0.000000
v -0.270598 -0.097958 0.270598
v 0.000000 -0.097958 0.382683
v 0.270598 -0.097958 0.270598
v 0.382683 -0.097958 0.000000
v 0.000000 -2.021837 0.000000
v 0.000000 -0.021837 0.000000
v -0.029372 0.151715 0.029372
v 0.029372 0.151715 0.029372
v -0.029372 2.021837 0.029372
v 0.029372 2.021837 0.029372
v -0.029372 2.021837 -0.029372
v 0.029372 2.021837 -0.029372
v -0.029372 0.151715 -0.029372
v 0.029372 0.151715 -0.029372
# 124 positions

vt 0.085906 0.473562
vt 0.116157 0.362108
vt 0.157953 0.380006
vt 0.135062 0.466992
vt 0.173490 0.273068
vt 0.207230 0.303734
vt 0.252855 0.205293
vt 0.276179 0.244585
vt 0.348122 0.163279
vt 0.359163 0.207632
vt 0.451377 0.150320
vt 0.449258 0.195964
vt 0.554129 0.167383
vt 0.538989 0.210373
vt 0.648635 0.213626
vt 0.621384 0.249169
vt 0.730740 0.291012
vt 0.686576 0.309871
vt 0.346252 0.413120
vt 0.440991 0.451525
vt 0.346258 0.546267
vt 0.251210 0.451228
vt 0.213239 0.546273
vt 0.252419 0.640114
vt 0.346264 0.679680
vt 0.440040 0.640040
vt 0.478269 0.546261
vt 0.760939 0.526036
vt 0.695826 0.553443
vt 0.695299 0.461141
vt 0.630404 0.526782
vt 0.602997 0.461669
vt 0.629659 0.396247
vt 0.694772 0.368839
vt 0.760194 0.395501
vt 0.787601 0.460614
vt 0.016844 0.451813
vt 0.052071 0.333964
vt 0.118738 0.227195
vt 0.213549 0.145358
vt 0.327717 0.094539
vt 0.451541 0.078610
vt 0.574724 0.098721
vt 0.687368 0.153132
vt 0.781337 0.235234
vt 0.657306 0.327093
vt 0.600405 0.277633
vt 0.528000 0.243787
vt 0.448366 0.231119
vt 0.368369 0.241576
vt 0.294755 0.274451
vt 0.233772 0.326854
vt 0.190768 0.393570
vt 0.169926 0.465301
vt 0.628248 0.364105
vt 0.574390 0.318843
vt 0.514040 0.289334
vt 0.447869 0.278497
vt 0.381416 0.287091
vt 0.320271 0.314349
vt 0.269571 0.357960
vt 0.233477 0.414258
vt 0.212778 0.479097
vt 0.536800 0.374048
vt 0.587610 0.483508
vt 0.564846 0.489987
vt 0.519434 0.387058
vt 0.596101 0.604550
vt 0.574440 0.602763
vt 0.564290 0.720947
vt 0.541774 0.710486
vt 0.492499 0.818205
vt 0.476181 0.801025
vt 0.391558 0.884267
vt 0.382491 0.863958
vt 0.274838 0.913689
vt 0.273369 0.889710
vt 0.155435 0.902581
vt 0.167145 0.881654
vt 0.448745 0.287773
vt 0.441036 0.311296
vt 0.502844 0.595374
vt 0.495601 0.508179
vt 0.458964 0.426567
vt 0.392968 0.358785
vt 0.168917 0.808698
vt 0.266797 0.815485
vt 0.353570 0.797608
vt 0.426116 0.749781
vt 0.477293 0.679180
vt 0.594800 0.615144
vt 0.637002 0.615144
vt 0.637002 0.657346
vt 0.594800 0.657346
vt 0.679205 0.615144
vt 0.679205 0.657346
vt 0.721407 0.615144
vt 0.721407 0.657346
vt 0.763610 0.615144
vt 0.763610 0.657346
vt 0.805812 0.615144
vt 0.805812 0.657346
vt 0.848015 0.615144
vt 0.848015 0.657346
vt 0.890217 0.615144
vt 0.890217 0.657346
vt 0.932420 0.615144
vt 0.932420 0.657346
vt 0.637002 0.699549
vt 0.594800 0.699549
vt 0.679205 0.699549
vt 0.721407 0.699549
vt 0.763610 0.699549
vt 0.805812 0.699549
vt 0.848015 0.699549
vt 0.890217 0.699549
vt 0.932420 0.699549
vt 0.637002 0.741751
vt 0.594800 0.741751
vt 0.679205 0.741751
vt 0.721407 0.741751
vt 0.763610 0.741751
vt 0.805812 0.741751
vt 0.848015 0.741751
vt 0.890217 0.741751
vt 0.932420 0.741751
vt 0.637002 0.783954
vt 0.594800 0.783954
vt 0.679205 0.783954
vt 0.721407 0.783954
vt 0.763610 0.783954
vt 0.805812 0.783954
vt 0.848015 0.783954
vt 0.890217 0.783954
vt 0.932420 0.783954
vt 0.637002 0.826156
vt 0.594800 0.826156
vt 0.679205 0.826156
vt 0.721407 0.826156
vt 0.763610 0.826156
vt 0.805812 0.826156
vt 0.848015 0.826156
vt 0.890217 0.826156
vt 0.932420 0.826156
vt 0.637002 0.868359
vt 0.594800 0.868359
vt 0.679205 0.868359
vt 0.721407 0.868359
vt 0.763610 0.868359
vt 0.805812 0.868359
vt 0.848015 0.868359
vt 0.890217 0.868359
vt 0.932420 0.868359
vt 0.615901 0.572941
vt 0.658103 0.572941
vt 0.700306 0.572941
vt 0.742508 0.572941
vt 0.784711 0.572941
vt 0.826913 0.572941
vt 0.869116 0.572941
vt 0.911318 0.572941
vt 0.615901 0.910561
vt 0.658103 0.910561
vt 0.700306 0.910561
vt 0.742508 0.910561
vt 0.784711 0.910561
vt 0.826913 0.910561
vt 0.869116 0.910561
vt 0.911318 0.910561
vt 0.803882 0.066166
vt 0.896186 0.066166
vt 0.896186 0.158469
vt 0.803882 0.158469
vt 0.896186 0.250773
vt 0.803882 0.250773
vt 0.896186 0.343076
vt 0.803882 0.343076
vt 0.896186 0.435380
vt 0.803882 0.435380
vt 0.988490 0.066166
vt 0.988490 0.158469
vt 0.711579 0.066166
vt 0.711579 0.158469
# 183 texture coordinates

vn 0.322465 0.538476 -0.778499
vn 0.322465 0.538476 -0.778499
vn 0.238789 0.781436 -0.576488
vn 0.238789 0.781436 -0.576488
vn -0.322465 0.538476 -0.778499
vn -0.322465 0.538476 -0.778499
vn -0.238789 0.781436 -0.576488
vn -0.238789 0.781436 -0.576488
vn -0.778499 0.538476 -0.322465
vn -0.778499 0.538476 -0.322465
vn -0.576488 0.781436 -0.238789
vn -0.576488 0.781436 -0.238789
vn -0.778499 0.538476 0.322465
vn -0.778499 0.538476 0.322465
vn -0.576488 0.781436 0.238789
vn -0.576488 0.781436 0.238789
vn -0.322465 0.538476 0.778499
vn -0.322465 0.538476 0.778499
vn -0.238789 0.781436 0.576488
vn -0.238789 0.781436 0.576488
vn 0.322465 0.538476 0.778499
vn 0.322465 0.538476 0.778499
vn 0.238789 0.781436 0.576488
vn 0.238789 0.781436 0.576488
vn 0.778499 0.538476 0.322465
vn 0.778499 0.538476 0.322465
vn 0.576488 0.781436 0.238789
vn 0.576488 0.781436 0.238789
vn 0.778499 0.538476 -0.322465
vn 0.778499 0.538476 -0.322465
vn 0.576488 0.781436 -0.238789
vn 0.576488 0.781436 -0.238789
vn 0.000000 -1.000000 0.000000
vn 0.000000 -1.000000 0.000000
vn 0.000000 -1.000000 0.000000
vn 0.000000 -1.000000 0.000000
vn 0.000000 -1.000000 0.000000
vn 0.000000 -1.000000 0.000000
vn 0.000000 -1.000000 0.000000
vn 0.000000 -1.000000 0.000000
vn 0.000000 -1.000000 0.000000
vn 0.000000 1.000000 0.000000
vn 0.000000 1.000000 0.000000
vn 0.000000 1.000000 0.000000
vn 0.000000 1.000000 0.000000
vn 0.000000 1.000000 0.000000
vn 0.000000 1.000000 0.000000
vn 0.000000 1.000000 0.000000
vn 0.000000 1.000000 0.000000
vn 0.000000 1.000000 0.000000
vn 0.382684 0.000000 -0.923880
vn 0.382684 0.000000 -0.923880
vn -0.382684 0.000000 -0.923880
vn -0.382684 0.000000 -0.923880
vn -0.923880 0.000000 -0.382684
vn -0.923880 0.000000 -0.382684
vn -0.923880 0.000000 0.382684
vn -0.923880 0.000000 0.382684
vn -0.382684 0.000000 0.923880
vn -0.382684 0.000000 0.923880
vn 0.382684 0.000000 0.923880
vn 0.382684 0.000000 0.923880
vn 0.923880 0.000000 0.382684
vn 0.923880 0.000000 0.382684
vn 0.923880 0.000000 -0.382684
vn 0.923880 0.000000 -0.382684
vn 0.874526 0.322468 -0.362240
vn 0.874526 0.322468 -0.362240
vn 0.874526 0.322468 0.362240
vn 0.874526 0.322468 0.362240
vn 0.362240 0.322468 0.874526
vn 0.362240 0.322468 0.874526
vn -0.362240 0.322468 0.874526
vn -0.362240 0.322468 0.874526
vn -0.874526 0.322468 0.362240
vn -0.874526 0.322468 0.362240
vn -0.874526 0.322468 -0.362240
vn -0.874526 0.322468 -0.362240
vn -0.362240 0.322468 -0.874526
vn -0.362240 0.322468 -0.874526
vn 0.362240 0.322468 -0.874526
vn 0.362240 0.322468 -0.874526
vn 0.923880 0.000000 -0.382683
vn 0.923880 0.000000 -0.382683
vn 0.923880 0.000000 0.382683
vn 0.923880 0.000000 0.382683
vn 0.382683 0.000000 0.923880
vn 0.382683 0.000000 0.923880
vn -0.382683 0.000000 0.923880
vn -0.382683 0.000000 0.923880
vn -0.923880 0.000000 0.382683
vn -0.923880 0.000000 0.382683
vn -0.923880 0.000000 -0.382683
vn -0.923880 0.000000 -0.382683
vn -0.382683 0.000000 -0.923880
vn -0.382683 0.000000 -0.923880
vn 0.382683 0.000000 -0.923880
vn 0.382683 0.000000 -0.923880
vn 0.000000 -1.000000 0.000000
vn 0.000000 -1.000000 0.000000
vn 0.000000 -1.000000 0.000000
vn 0.000000 -1.000000 0.000000
vn 0.000000 -1.000000 0.000000
vn 0.000000 -1.000000 0.000000
vn 0.000000 -1.000000 0.000000
vn 0.000000 -1.000000 0.000000
vn 0.000000 -1.000000 0.000000
vn 0.000000 -1.000000 0.000000
vn 0.000000 -1.000000 0.000000
vn 0.000000 -1.000000 0.000000
vn 0.000000 -1.000000 0.000000
vn 0.000000 -1.000000 0.000000
vn 0.000000 -1.000000 0.000000
vn 0.000000 -1.000000 0.000000
vn -0.375726 0.000000 0.926731
vn -0.375726 0.000000 0.926731
vn -0.375726 0.000000 0.926731
vn -0.375726 0.000000 0.926731
vn 0.372114 0.000000 0.928187
vn 0.372114 0.000000 0.928187
vn 0.372114 0.000000 0.928187
vn 0.372114 0.000000 0.928187
vn 0.928620 0.000000 0.371032
vn 0.928620 0.000000 0.371032
vn 0.928620 0.000000 0.371032
vn 0.928620 0.000000 0.371032
vn 0.922817 0.000000 -0.385240
vn 0.922817 0.000000 -0.385240
vn 0.922817 0.000000 -0.385240
vn 0.922817 0.000000 -0.385240
vn 0.388537 0.000000 -0.921433
vn 0.388537 0.000000 -0.921433
vn 0.388537 0.000000 -0.921433
vn 0.388537 0.000000 -0.921433
vn -0.389312 0.000000 -0.921106
vn -0.389312 0.000000 -0.921106
vn -0.389312 0.000000 -0.921106
vn -0.389312 0.000000 -0.921106
vn -0.925998 0.000000 -0.377530
vn -0.925998 0.000000 -0.377530
vn -0.925998 0.000000 -0.377530
vn -0.925998 0.000000 -0.377530
vn -0.930568 0.000000 0.366118
vn -0.930568 0.000000 0.366118
vn -0.930568 0.000000 0.366118
vn -0.930568 0.000000 0.366118
vn 0.269132 -0.924736 -0.269132
vn 0.000000 -0.924736 -0.380610
vn 0.000000 -0.709230 -0.704978
vn 0.498494 -0.709230 -0.498494
vn -0.269132 -0.924735 -0.269132
vn -0.498494 -0.709230 -0.498494
vn -0.380610 -0.924736 0.000000
vn -0.704977 -0.709230 0.000000
vn -0.269132 -0.924735 0.269132
vn -0.498494 -0.709230 0.498494
vn 0.000000 -0.924736 0.380610
vn 0.000000 -0.709230 0.704978
vn 0.269132 -0.924736 0.269132
vn 0.498494 -0.709230 0.498494
vn 0.380610 -0.924736 0.000000
vn 0.704978 -0.709230 0.000000
vn 0.000000 -0.384551 -0.923104
vn 0.652733 -0.384551 -0.652733
vn -0.652733 -0.384551 -0.652733
vn -0.923104 -0.384551 0.000000
vn -0.652733 -0.384551 0.652733
vn 0.000000 -0.384551 0.923104
vn 0.652733 -0.384551 0.652733
vn 0.923104 -0.384551 0.000000
vn 0.000000 0.000000 -1.000000
vn 0.707107 0.000000 -0.707107
vn -0.707107 0.000000 -0.707107
vn -1.000000 0.000000 0.000000
vn -0.707107 0.000000 0.707107
vn 0.000000 0.000000 1.000000
vn 0.707107 0.000000 0.707107
vn 1.000000 0.000000 0.000000
vn 0.000000 0.384551 -0.923104
vn 0.652733 0.384551 -0.652733
vn -0.652733 0.384551 -0.652733
vn -0.923104 0.384551 0.000000
vn -0.652733 0.384551 0.652733
vn 0.000000 0.384551 0.923104
vn 0.652733 0.384551 0.652733
vn 0.923104 0.384551 0.000000
vn 0.000000 0.709230 -0.704977
vn 0.498494 0.709230 -0.498494
vn -0.498494 0.709231 -0.498494
vn -0.704976 0.709231 0.000000
vn -0.498494 0.709231 0.498494
vn 0.000000 0.709230 0.704977
vn 0.498494 0.709230 0.498494
vn 0.704977 0.709230 0.000000
vn 0.000000 0.924735 -0.380611
vn 0.269132 0.924735 -0.269132
vn -0.269132 0.924735 -0.269133
vn -0.380611 0.924735 0.000000
vn -0.269132 0.924735 0.269133
vn 0.000000 0.924735 0.380611
vn 0.269132 0.924735 0.269132
vn 0.380611 0.924735 0.000000
vn 0.000000 -1.000000 0.000000
vn 0.000000 1.000000 0.000000
vn 0.000000 0.000000 1.000000
vn 0.000000 0.000000 1.000000
vn 0.000000 0.000000 1.000000
vn 0.000000 0.000000 1.000000
vn 0.000000 1.000000 0.000000
vn 0.000000 1.000000 0.000000
vn 0.000000 1.000000 0.000000
vn 0.000000 1.000000 0.000000
vn 0.000000 0.000000 -1.000000
vn 0.000000 0.000000 -1.000000
vn 0.000000 0.000000 -1.000000
vn 0.000000 0.000000 -1.000000
vn 0.000000 -1.000000 0.000000
vn 0.000000 -1.000000 0.000000
vn 0.000000 -1.000000 0.000000
vn 0.000000 -1.000000 0.000000
vn 1.000000 0.000000 0.000000
vn 1.000000 0.000000 0.000000
vn 1.000000 0.000000 0.000000
vn 1.000000 0.000000 0.000000
vn -1.000000 0.000000 0.000000
vn -1.000000 0.000000 0.000000
vn -1.000000 0.000000 0.000000
vn -1.000000 0.000000 0.000000
# 228 normals

usemtl lambert4SG
s 1
f 18/1/1 19/2/2 33/3/3 26/4/4
f 1/37/51 2/38/52 19/2/2 18/1/1
f 26/4/4 33/3/3 41/53/81 34/54/82
f 34/54/82 41/53/81 10/62/97 9/63/98
s 2
f 19/2/5 20/5/6 32/6/7 33/3/8
f 2/38/53 3/39/54 20/5/6 19/2/5
f 33/3/8 32/6/7 40/52/79 41/53/80
f 41/53/80 40/52/79 11/61/95 10/62/96
s 3
f 20/5/9 21/7/10 31/8/11 32/6/12
f 3/39/55 4/40/56 21/7/10 20/5/9
f 32/6/12 31/8/11 39/51/77 40/52/78
f 40/52/78 39/51/77 12/60/93 11/61/94
s 4
f 21/7/13 22/9/14 30/10/15 31/8/16
f 4/40/57 5/41/58 22/9/14 21/7/13
f 31/8/16 30/10/15 38/50/75 39/51/76
f 39/51/76 38/50/75 13/59/91 12/60/92
s 5
f 22/9/17 23/11/18 29/12/19 30/10/20
f 5/41/59 6/42/60 23/11/18 22/9/17
f 30/10/20 29/12/19 37/49/73 38/50/74
f 38/50/74 37/49/73 14/58/89 13/59/90
s 6
f 23/11/21 24/13/22 28/14/23 29/12/24
f 6/42/61 7/43/62 24/13/22 23/11/21
f 29/12/24 28/14/23 36/48/71 37/49/72
f 37/49/72 36/48/71 15/57/87 14/58/88
s 7
f 24/13/25 25/15/26 27/16/27 28/14/28
f 7/43/63 8/44/64 25/15/26 24/13/25
f 28/14/28 27/16/27 35/47/69 36/48/70
f 36/48/70 35/47/69 16/56/85 15/57/86
s 8
f 25/15/29 18/17/30 26/18/31 27/16/32
f 8/44/65 1/45/66 18/17/30 25/15/29
f 27/16/32 26/18/31 34/46/67 35/47/68
f 35/47/68 34/46/67 9/55/83 16/56/84
s 9
f 50/19/33 51/20/34 52/21/35
f 53/22/36 50/19/33 52/21/35
f 54/23/37 53/22/36 52/21/35
f 55/24/38 54/23/37 52/21/35
f 56/25/39 55/24/38 52/21/35
f 57/26/40 56/25/39 52/21/35
f 58/27/41 57/26/40 52/21/35
f 51/20/34 58/27/41 52/21/35
s 10
f 9/28/42 10/29/43 17/30/44
f 10/29/43 11/31/45 17/30/44
f 11/31/45 12/32/46 17/30/44
f 12/32/46 13/33/47 17/30/44
f 13/33/47 14/34/48 17/30/44
f 14/34/48 15/35/49 17/30/44
f 15/35/49 16/36/50 17/30/44
f 16/36/50 9/28/42 17/30/44
s 11
f 3/64/99 2/65/100 43/66/101 42/67/102
f 2/65/100 1/68/103 44/69/104 43/66/101
f 1/68/103 8/70/105 45/71/106 44/69/104
f 8/70/105 7/72/107 46/73/108 45/71/106
f 7/72/107 6/74/109 47/75/110 46/73/108
f 6/74/109 5/76/111 48/77/112 47/75/110
f 5/76/111 4/78/113 49/79/114 48/77/112
f 4/80/113 3/64/99 42/67/102 49/81/114
s 12
f 43/66/115 44/69/116 51/82/117 50/83/118
s 13
f 42/67/119 43/66/120 50/83/121 53/84/122
s 14
f 49/81/123 42/67/124 53/84/125 54/85/126
s 15
f 48/77/127 49/79/128 54/86/129 55/87/130
s 16
f 47/75/131 48/77/132 55/87/133 56/88/134
s 17
f 46/73/135 47/75/136 56/88/137 57/89/138
s 18
f 45/71/139 46/73/140 57/89/141 58/90/142
s 19
f 44/69/143 45/71/144 58/90/145 51/82/146
s 20
f 59/91/147 60/92/148 68/93/149 67/94/150
f 60/92/148 61/95/151 69/96/152 68/93/149
f 61/95/151 62/97/153 70/98/154 69/96/152
f 62/97/153 63/99/155 71/100/156 70/98/154
f 63/99/155 64/101/157 72/102/158 71/100/156
f 64/101/157 65/103/159 73/104/160 72/102/158
f 65/103/159 66/105/161 74/106/162 73/104/160
f 66/105/161 59/107/147 67/108/150 74/106/162
f 67/94/150 68/93/149 76/109/163 75/110/164
f 68/93/149 69/96/152 77/111/165 76/109/163
f 69/96/152 70/98/154 78/112/166 77/111/165
f 70/98/154 71/100/156 79/113/167 78/112/166
f 71/100/156 72/102/158 80/114/168 79/113/167
f 72/102/158 73/104/160 81/115/169 80/114/168
f 73/104/160 74/106/162 82/116/170 81/115/169
f 74/106/162 67/108/150 75/117/164 82/116/170
f 75/110/164 76/109/163 84/118/171 83/119/172
f 76/109/163 77/111/165 85/120/173 84/118/171
f 77/111/165 78/112/166 86/121/174 85/120/173
f 78/112/166 79/113/167 87/122/175 86/121/174
f 79/113/167 80/114/168 88/123/176 87/122/175
f 80/114/168 81/115/169 89/124/177 88/123/176
f 81/115/169 82/116/170 90/125/178 89/124/177
f 82/116/170 75/117/164 83/126/172 90/125/178
f 83/119/172 84/118/171 92/127/179 91/128/180
f 84/118/171 85/120/173 93/129/181 92/127/179
f 85/120/173 86/121/174 94/130/182 93/129/181
f 86/121/174 87/122/175 95/131/183 94/130/182
f 87/122/175 88/123/176 96/132/184 95/131/183
f 88/123/176 89/124/177 97/133/185 96/132/184
f 89/124/177 90/125/178 98/134/186 97/133/185
f 90/125/178 83/126/172 91/135/180 98/134/186
f 91/128/180 92/127/179 100/136/187 99/137/188
f 92/127/179 93/129/181 101/138/189 100/136/187
f 93/129/181 94/130/182 102/139/190 101/138/189
f 94/130/182 95/131/183 103/140/191 102/139/190
f 95/131/183 96/132/184 104/141/192 103/140/191
f 96/132/184 97/133/185 105/142/193 104/141/192
f 97/133/185 98/134/186 106/143/194 105/142/193
f 98/134/186 91/135/180 99/144/188 106/143/194
f 99/137/188 100/136/187 108/145/195 107/146/196
f 100/136/187 101/138/189 109/147/197 108/145/195
f 101/138/189 102/139/190 110/148/198 109/147/197
f 102/139/190 103/140/191 111/149/199 110/148/198
f 103/140/191 104/141/192 112/150/200 111/149/199
f 104/141/192 105/142/193 113/151/201 112/150/200
f 105/142/193 106/143/194 114/152/202 113/151/201
f 106/143/194 99/144/188 107/153/196 114/152/202
f 60/92/148 59/91/147 115/154/203
f 61/95/151 60/92/148 115/155/203
f 62/97/153 61/95/151 115/156/203
f 63/99/155 62/97/153 115/157/203
f 64/101/157 63/99/155 115/158/203
f 65/103/159 64/101/157 115/159/203
f 66/105/161 65/103/159 115/160/203
f 59/107/147 66/105/161 115/161/203
f 107/146/196 108/145/195 116/162/204
f 108/145/195 109/147/197 116/163/204
f 109/147/197 110/148/198 116/164/204
f 110/148/198 111/149/199 116/165/204
f 111/149/199 112/150/200 116/166/204
f 112/150/200 113/151/201 116/167/204
f 113/151/201 114/152/202 116/168/204
f 114/152/202 107/153/196 116/169/204
s 21
f 117/170/205 118/171/206 120/172/207 119/173/208
s 22
f 119/173/209 120/172/210 122/174/211 121/175/212
s 23
f 121/175/213 122/174/214 124/176/215 123/177/216
s 24
f 123/177/217 124/176/218 118/178/219 117/179/220
s 25
f 118/171/221 124/180/222 122/181/223 120/172/224
s 26
f 123/182/225 117/170/226 119/173/227 121/183/228

# 134 faces
