# Wavefront Obj file
# 
# verts: 94 uv-s: 151
mtllib FIRE.mtl

g pSphere7
#pivot 0.000000 0.000000 0.000000

v 0.270598 0.299525 -0.270598
v 0.000000 0.299525 -0.382683
v -0.270598 0.299525 -0.270598
v -0.382683 0.299525 0.000000
v -0.270598 0.299525 0.270598
v 0.000000 0.299525 0.382683
v 0.270598 0.299525 0.270598
v 0.382683 0.299525 0.000000
v 0.500000 0.516298 -0.500000
v 0.000000 0.516298 -0.707107
v -0.500000 0.516298 -0.500000
v -0.707107 0.516298 0.000000
v -0.500000 0.516298 0.500000
v 0.000000 0.516298 0.707107
v 0.500000 0.516298 0.500000
v 0.707107 0.516298 0.000000
v 0.653281 0.840721 -0.653281
v 0.000000 0.840721 -0.923879
v -0.653281 0.840721 -0.653281
v -0.923879 0.840721 0.000000
v -0.653281 0.840721 0.653281
v 0.000000 0.840721 0.923879
v 0.653281 0.840721 0.653281
v 0.923880 0.840721 0.000000
v 0.707107 1.223404 -0.707107
v 0.000000 1.223404 -1.000000
v -0.707107 1.223404 -0.707107
v -1.000000 1.223404 0.000000
v -0.707107 1.223404 0.707107
v 0.000000 1.223404 1.000000
v 0.707107 1.223404 0.707107
v 1.000000 1.223404 0.000000
v 0.653281 1.606088 -0.653281
v 0.000000 1.606088 -0.923879
v -0.653281 1.606088 -0.653281
v -0.923879 1.606088 0.000000
v -0.653281 1.606088 0.653281
v 0.000000 1.606088 0.923879
v 0.653281 1.606088 0.653281
v 0.923880 1.606088 0.000000
v 0.500000 1.930511 -0.500000
v 0.000000 1.930511 -0.707107
v -0.500000 1.930511 -0.500000
v -0.707107 2.449723 0.000000
v -0.500000 2.449723 0.500000
v 0.000000 2.449723 0.707107
v 0.500000 2.449723 0.500000
v 0.707107 2.449723 0.000000
v 0.270598 3.126738 -0.270598
v 0.000000 3.126738 -0.382683
v -0.270598 3.126738 -0.270598
v -0.382683 3.126738 0.000000
v -0.270598 3.126738 0.270598
v 0.000000 3.126738 0.382683
v 0.270598 3.126738 0.270598
v 0.382683 3.126738 0.000000
v 0.000000 0.223404 0.000000
v 0.000000 4.947041 0.000000
v -1.260061 0.313597 1.244135
v -1.186608 0.000000 1.351270
v -1.260061 -0.313597 1.244135
v -1.437390 -0.443493 0.985491
v -1.614720 -0.313597 0.726846
v -1.688172 0.000000 0.619712
v -1.614720 0.313597 0.726846
v -1.437390 0.443493 0.985491
v 1.614720 0.313597 -0.726846
v 1.688172 0.000000 -0.619712
v 1.614720 -0.313597 -0.726846
v 1.437390 -0.443493 -0.985491
v 1.260061 -0.313597 -1.244135
v 1.186608 0.000000 -1.351270
v 1.260061 0.313597 -1.244135
v 1.437390 0.443493 -0.985491
v -1.437390 0.000000 0.985491
v 1.437390 0.000000 -0.985491
v 1.474154 0.313597 0.981070
v 1.564134 0.000000 0.887386
v 1.474154 -0.313597 0.981070
v 1.256922 -0.443493 1.207241
v 1.039691 -0.313597 1.433412
v 0.949711 0.000000 1.527095
v 1.039691 0.313597 1.433412
v 1.256922 0.443493 1.207241
v -1.039691 0.313597 -1.433412
v -0.949711 0.000000 -1.527095
v -1.039691 -0.313597 -1.433412
v -1.256922 -0.443493 -1.207241
v -1.474154 -0.313597 -0.981070
v -1.564134 0.000000 -0.887386
v -1.474154 0.313597 -0.981070
v -1.256922 0.443493 -1.207241
v 1.256922 0.000000 1.207241
v -1.256922 0.000000 -1.207241
# 94 positions

vt 0.148370 0.122604
vt 0.229226 0.122604
vt 0.229226 0.203460
vt 0.148370 0.203460
vt 0.310082 0.122604
vt 0.310082 0.203460
vt 0.390937 0.122604
vt 0.390937 0.203460
vt 0.471793 0.122604
vt 0.471793 0.203460
vt 0.552649 0.122604
vt 0.552649 0.203460
vt 0.633504 0.122604
vt 0.633504 0.203460
vt 0.714360 0.122604
vt 0.714360 0.203460
vt 0.795215 0.122604
vt 0.795215 0.203460
vt 0.229226 0.284316
vt 0.148370 0.284316
vt 0.310082 0.284316
vt 0.390937 0.284316
vt 0.471793 0.284316
vt 0.552649 0.284316
vt 0.633504 0.284316
vt 0.714360 0.284316
vt 0.795215 0.284316
vt 0.229226 0.365171
vt 0.148370 0.365171
vt 0.310082 0.365171
vt 0.390937 0.365171
vt 0.471793 0.365171
vt 0.552649 0.365171
vt 0.633504 0.365171
vt 0.714360 0.365171
vt 0.795215 0.365171
vt 0.229226 0.446027
vt 0.148370 0.446027
vt 0.310082 0.446027
vt 0.390937 0.446027
vt 0.471793 0.446027
vt 0.552649 0.446027
vt 0.633504 0.446027
vt 0.714360 0.446027
vt 0.795215 0.446027
vt 0.229226 0.526883
vt 0.148370 0.526883
vt 0.310082 0.526883
vt 0.390937 0.526883
vt 0.471793 0.526883
vt 0.552649 0.526883
vt 0.633504 0.526883
vt 0.714360 0.526883
vt 0.795215 0.526883
vt 0.229226 0.607738
vt 0.148370 0.607738
vt 0.310082 0.607738
vt 0.390937 0.607738
vt 0.471793 0.607738
vt 0.552649 0.607738
vt 0.633504 0.607738
vt 0.714360 0.607738
vt 0.795215 0.607738
vt 0.188798 0.041749
vt 0.269654 0.041749
vt 0.350509 0.041749
vt 0.431365 0.041749
vt 0.512221 0.041749
vt 0.593076 0.041749
vt 0.673932 0.041749
vt 0.754788 0.041749
vt 0.188798 0.688594
vt 0.269654 0.688594
vt 0.350509 0.688594
vt 0.431365 0.688594
vt 0.512221 0.688594
vt 0.593076 0.688594
vt 0.673932 0.688594
vt 0.754788 0.688594
vt 0.035864 0.749974
vt 0.122147 0.749961
vt 0.122181 0.975428
vt 0.035898 0.975441
vt 0.208429 0.749948
vt 0.208463 0.975415
vt 0.294711 0.749935
vt 0.294746 0.975402
vt 0.380994 0.749922
vt 0.381028 0.975389
vt 0.467276 0.749909
vt 0.467310 0.975376
vt 0.553559 0.749896
vt 0.553593 0.975363
vt 0.639841 0.749883
vt 0.639875 0.975350
vt 0.726123 0.749870
vt 0.726158 0.975337
vt 0.911244 0.747835
vt 0.972257 0.808843
vt 0.868107 0.851989
vt 0.824961 0.747839
vt 0.763953 0.808852
vt 0.763957 0.895135
vt 0.824970 0.956143
vt 0.911252 0.956139
vt 0.972261 0.895126
vt 0.911252 0.956139
vt 0.824970 0.956143
vt 0.868107 0.851989
vt 0.763957 0.895134
vt 0.763953 0.808852
vt 0.824961 0.747839
vt 0.911244 0.747835
vt 0.972257 0.808843
vt 0.972261 0.895126
vt 0.035864 0.749974
vt 0.122147 0.749961
vt 0.122181 0.975428
vt 0.035898 0.975441
vt 0.208429 0.749948
vt 0.208463 0.975415
vt 0.294711 0.749935
vt 0.294746 0.975402
vt 0.380994 0.749922
vt 0.381028 0.975389
vt 0.467276 0.749909
vt 0.467310 0.975376
vt 0.553559 0.749896
vt 0.553593 0.975363
vt 0.639841 0.749883
vt 0.639875 0.975350
vt 0.726123 0.749870
vt 0.726158 0.975337
vt 0.911244 0.747835
vt 0.972257 0.808843
vt 0.868107 0.851989
vt 0.824961 0.747839
vt 0.763953 0.808852
vt 0.763957 0.895135
vt 0.824970 0.956143
vt 0.911252 0.956139
vt 0.972261 0.895126
vt 0.911252 0.956139
vt 0.824970 0.956143
vt 0.868107 0.851989
vt 0.763956 0.895135
vt 0.763953 0.808852
vt 0.824961 0.747839
vt 0.911244 0.747835
vt 0.972257 0.808844
vt 0.972261 0.895126
# 151 texture coordinates

vn 0.269133 -0.924735 -0.269133
vn 0.000000 -0.924735 -0.380612
vn 0.000000 -0.709230 -0.704977
vn 0.498494 -0.709230 -0.498494
vn -0.269133 -0.924735 -0.269133
vn -0.498494 -0.709230 -0.498494
vn -0.380612 -0.924735 0.000000
vn -0.704977 -0.709230 0.000000
vn -0.269133 -0.924735 0.269133
vn -0.498494 -0.709230 0.498494
vn 0.000000 -0.924735 0.380612
vn 0.000000 -0.709230 0.704977
vn 0.269133 -0.924735 0.269133
vn 0.498494 -0.709230 0.498494
vn 0.380612 -0.924735 0.000000
vn 0.704977 -0.709230 0.000000
vn 0.000000 -0.384551 -0.923104
vn 0.652733 -0.384551 -0.652733
vn -0.652733 -0.384551 -0.652733
vn -0.923104 -0.384551 0.000000
vn -0.652733 -0.384551 0.652733
vn 0.000000 -0.384551 0.923104
vn 0.652733 -0.384551 0.652733
vn 0.923104 -0.384551 0.000000
vn 0.000000 -0.000000 -1.000000
vn 0.707107 -0.000000 -0.707107
vn -0.707107 -0.000000 -0.707107
vn -1.000000 -0.000000 0.000000
vn -0.707107 -0.000000 0.707107
vn 0.000000 -0.000000 1.000000
vn 0.707107 -0.000000 0.707107
vn 1.000000 -0.000000 0.000000
vn 0.000000 0.384551 -0.923104
vn 0.651449 0.324501 -0.685794
vn -0.651449 0.324501 -0.685793
vn -0.967661 0.250449 -0.030126
vn -0.689448 0.222087 0.689448
vn 0.000000 0.222087 0.975027
vn 0.689448 0.222087 0.689448
vn 0.967661 0.250448 -0.030126
vn 0.000000 0.415435 -0.909623
vn 0.605195 0.364768 -0.707590
vn -0.605195 0.364768 -0.707590
vn -0.933285 0.349921 -0.080835
vn -0.664323 0.342564 0.664323
vn 0.000000 0.342564 0.939495
vn 0.664323 0.342564 0.664323
vn 0.933285 0.349922 -0.080835
vn 0.000000 0.233866 -0.972269
vn 0.649813 0.245328 -0.719415
vn -0.649813 0.245328 -0.719415
vn -0.952753 0.299639 -0.049786
vn -0.669481 0.321855 0.669481
vn 0.000000 0.321854 0.946789
vn 0.669481 0.321855 0.669481
vn 0.952753 0.299639 -0.049786
vn 0.000000 -1.000000 0.000000
vn 0.000000 1.000000 0.000000
vn 0.522426 0.382684 0.761987
vn 0.522426 0.382684 0.761987
vn 0.522426 0.382684 0.761987
vn 0.522426 0.382684 0.761987
vn 0.522426 -0.382684 0.761987
vn 0.522426 -0.382684 0.761987
vn 0.522426 -0.382684 0.761987
vn 0.522426 -0.382684 0.761987
vn 0.216397 -0.923879 0.315626
vn 0.216397 -0.923879 0.315626
vn 0.216397 -0.923879 0.315626
vn 0.216397 -0.923879 0.315626
vn -0.216397 -0.923879 -0.315626
vn -0.216397 -0.923879 -0.315626
vn -0.216397 -0.923879 -0.315626
vn -0.216397 -0.923879 -0.315626
vn -0.522426 -0.382684 -0.761987
vn -0.522426 -0.382684 -0.761987
vn -0.522426 -0.382684 -0.761987
vn -0.522426 -0.382684 -0.761987
vn -0.522426 0.382684 -0.761987
vn -0.522426 0.382684 -0.761987
vn -0.522426 0.382684 -0.761987
vn -0.522426 0.382684 -0.761987
vn -0.216396 0.923879 -0.315626
vn -0.216396 0.923879 -0.315626
vn -0.216396 0.923879 -0.315626
vn -0.216396 0.923879 -0.315626
vn 0.216396 0.923879 0.315626
vn 0.216396 0.923879 0.315626
vn 0.216396 0.923879 0.315626
vn 0.216396 0.923879 0.315626
vn -0.824768 0.000000 0.565471
vn -0.824769 -0.000000 0.565470
vn -0.824769 0.000000 0.565470
vn -0.824769 0.000000 0.565470
vn -0.824769 0.000000 0.565470
vn -0.824769 0.000000 0.565470
vn -0.824769 0.000000 0.565470
vn -0.824769 -0.000000 0.565470
vn -0.824769 0.000000 0.565470
vn 0.824769 -0.000000 -0.565470
vn 0.824769 0.000000 -0.565470
vn 0.824769 0.000000 -0.565470
vn 0.824769 0.000000 -0.565470
vn 0.824769 0.000000 -0.565470
vn 0.824769 0.000000 -0.565470
vn 0.824768 0.000000 -0.565471
vn 0.824769 -0.000000 -0.565470
vn 0.824769 0.000000 -0.565470
vn 0.639980 0.382683 -0.666317
vn 0.639980 0.382683 -0.666317
vn 0.639980 0.382683 -0.666317
vn 0.639980 0.382683 -0.666317
vn 0.639980 -0.382683 -0.666317
vn 0.639980 -0.382683 -0.666317
vn 0.639980 -0.382683 -0.666317
vn 0.639980 -0.382683 -0.666317
vn 0.265089 -0.923879 -0.275998
vn 0.265089 -0.923879 -0.275998
vn 0.265089 -0.923879 -0.275998
vn 0.265089 -0.923879 -0.275998
vn -0.265089 -0.923879 0.275998
vn -0.265089 -0.923879 0.275998
vn -0.265089 -0.923879 0.275998
vn -0.265089 -0.923879 0.275998
vn -0.639980 -0.382683 0.666317
vn -0.639980 -0.382683 0.666317
vn -0.639980 -0.382683 0.666317
vn -0.639980 -0.382683 0.666317
vn -0.639980 0.382683 0.666317
vn -0.639980 0.382683 0.666317
vn -0.639980 0.382683 0.666317
vn -0.639980 0.382683 0.666317
vn -0.265089 0.923880 0.275998
vn -0.265089 0.923880 0.275998
vn -0.265089 0.923880 0.275998
vn -0.265089 0.923880 0.275998
vn 0.265089 0.923880 -0.275998
vn 0.265089 0.923880 -0.275998
vn 0.265089 0.923880 -0.275998
vn 0.265089 0.923880 -0.275998
vn 0.721217 0.000000 0.692709
vn 0.721216 -0.000001 0.692710
vn 0.721217 0.000000 0.692710
vn 0.721216 0.000001 0.692710
vn 0.721216 0.000000 0.692710
vn 0.721217 -0.000000 0.692709
vn 0.721217 0.000000 0.692709
vn 0.721217 0.000000 0.692709
vn 0.721216 0.000000 0.692710
vn -0.721217 0.000000 -0.692709
vn -0.721217 0.000000 -0.692709
vn -0.721217 0.000000 -0.692710
vn -0.721217 -0.000000 -0.692709
vn -0.721216 0.000000 -0.692710
vn -0.721216 0.000001 -0.692710
vn -0.721217 0.000000 -0.692709
vn -0.721216 -0.000001 -0.692710
vn -0.721216 0.000000 -0.692710
# 158 normals

usemtl lambert6SG
s 1
f 1/1/1 2/2/2 10/3/3 9/4/4
f 2/2/2 3/5/5 11/6/6 10/3/3
f 3/5/5 4/7/7 12/8/8 11/6/6
f 4/7/7 5/9/9 13/10/10 12/8/8
f 5/9/9 6/11/11 14/12/12 13/10/10
f 6/11/11 7/13/13 15/14/14 14/12/12
f 7/13/13 8/15/15 16/16/16 15/14/14
f 8/15/15 1/17/1 9/18/4 16/16/16
f 9/4/4 10/3/3 18/19/17 17/20/18
f 10/3/3 11/6/6 19/21/19 18/19/17
f 11/6/6 12/8/8 20/22/20 19/21/19
f 12/8/8 13/10/10 21/23/21 20/22/20
f 13/10/10 14/12/12 22/24/22 21/23/21
f 14/12/12 15/14/14 23/25/23 22/24/22
f 15/14/14 16/16/16 24/26/24 23/25/23
f 16/16/16 9/18/4 17/27/18 24/26/24
f 17/20/18 18/19/17 26/28/25 25/29/26
f 18/19/17 19/21/19 27/30/27 26/28/25
f 19/21/19 20/22/20 28/31/28 27/30/27
f 20/22/20 21/23/21 29/32/29 28/31/28
f 21/23/21 22/24/22 30/33/30 29/32/29
f 22/24/22 23/25/23 31/34/31 30/33/30
f 23/25/23 24/26/24 32/35/32 31/34/31
f 24/26/24 17/27/18 25/36/26 32/35/32
f 25/29/26 26/28/25 34/37/33 33/38/34
f 26/28/25 27/30/27 35/39/35 34/37/33
f 27/30/27 28/31/28 36/40/36 35/39/35
f 28/31/28 29/32/29 37/41/37 36/40/36
f 29/32/29 30/33/30 38/42/38 37/41/37
f 30/33/30 31/34/31 39/43/39 38/42/38
f 31/34/31 32/35/32 40/44/40 39/43/39
f 32/35/32 25/36/26 33/45/34 40/44/40
f 33/38/34 34/37/33 42/46/41 41/47/42
f 34/37/33 35/39/35 43/48/43 42/46/41
f 35/39/35 36/40/36 44/49/44 43/48/43
f 36/40/36 37/41/37 45/50/45 44/49/44
f 37/41/37 38/42/38 46/51/46 45/50/45
f 38/42/38 39/43/39 47/52/47 46/51/46
f 39/43/39 40/44/40 48/53/48 47/52/47
f 40/44/40 33/45/34 41/54/42 48/53/48
f 41/47/42 42/46/41 50/55/49 49/56/50
f 42/46/41 43/48/43 51/57/51 50/55/49
f 43/48/43 44/49/44 52/58/52 51/57/51
f 44/49/44 45/50/45 53/59/53 52/58/52
f 45/50/45 46/51/46 54/60/54 53/59/53
f 46/51/46 47/52/47 55/61/55 54/60/54
f 47/52/47 48/53/48 56/62/56 55/61/55
f 48/53/48 41/54/42 49/63/50 56/62/56
f 2/2/2 1/1/1 57/64/57
f 3/5/5 2/2/2 57/65/57
f 4/7/7 3/5/5 57/66/57
f 5/9/9 4/7/7 57/67/57
f 6/11/11 5/9/9 57/68/57
f 7/13/13 6/11/11 57/69/57
f 8/15/15 7/13/13 57/70/57
f 1/17/1 8/15/15 57/71/57
f 49/56/50 50/55/49 58/72/58
f 50/55/49 51/57/51 58/73/58
f 51/57/51 52/58/52 58/74/58
f 52/58/52 53/59/53 58/75/58
f 53/59/53 54/60/54 58/76/58
f 54/60/54 55/61/55 58/77/58
f 55/61/55 56/62/56 58/78/58
f 56/62/56 49/63/50 58/79/58
s 2
f 59/80/59 60/81/60 68/82/61 67/83/62
s 3
f 60/81/63 61/84/64 69/85/65 68/82/66
s 4
f 61/84/67 62/86/68 70/87/69 69/85/70
s 5
f 62/86/71 63/88/72 71/89/73 70/87/74
s 6
f 63/88/75 64/90/76 72/91/77 71/89/78
s 7
f 64/90/79 65/92/80 73/93/81 72/91/82
s 8
f 65/92/83 66/94/84 74/95/85 73/93/86
s 9
f 66/94/87 59/96/88 67/97/89 74/95/90
s 10
f 60/98/91 59/99/92 75/100/93
f 61/101/94 60/98/91 75/100/93
f 62/102/95 61/101/94 75/100/93
f 63/103/96 62/102/95 75/100/93
f 64/104/97 63/103/96 75/100/93
f 65/105/98 64/104/97 75/100/93
f 66/106/99 65/105/98 75/100/93
f 59/99/92 66/106/99 75/100/93
s 11
f 67/107/100 68/108/101 76/109/102
f 68/108/101 69/110/103 76/109/102
f 69/110/103 70/111/104 76/109/102
f 70/111/104 71/112/105 76/109/102
f 71/112/105 72/113/106 76/109/102
f 72/113/106 73/114/107 76/109/102
f 73/114/107 74/115/108 76/109/102
f 74/115/108 67/107/100 76/109/102
s 12
f 77/116/109 78/117/110 86/118/111 85/119/112
s 13
f 78/117/113 79/120/114 87/121/115 86/118/116
s 14
f 79/120/117 80/122/118 88/123/119 87/121/120
s 15
f 80/122/121 81/124/122 89/125/123 88/123/124
s 16
f 81/124/125 82/126/126 90/127/127 89/125/128
s 17
f 82/126/129 83/128/130 91/129/131 90/127/132
s 18
f 83/128/133 84/130/134 92/131/135 91/129/136
s 19
f 84/130/137 77/132/138 85/133/139 92/131/140
s 20
f 78/134/141 77/135/142 93/136/143
f 79/137/144 78/134/141 93/136/143
f 80/138/145 79/137/144 93/136/143
f 81/139/146 80/138/145 93/136/143
f 82/140/147 81/139/146 93/136/143
f 83/141/148 82/140/147 93/136/143
f 84/142/149 83/141/148 93/136/143
f 77/135/142 84/142/149 93/136/143
s 21
f 85/143/150 86/144/151 94/145/152
f 86/144/151 87/146/153 94/145/152
f 87/146/153 88/147/154 94/145/152
f 88/147/154 89/148/155 94/145/152
f 89/148/155 90/149/156 94/145/152
f 90/149/156 91/150/157 94/145/152
f 91/150/157 92/151/158 94/145/152
f 92/151/158 85/143/150 94/145/152

# 112 faces
