# Wavefront Obj file
# 
# verts: 83 uv-s: 127
mtllib Mushroom Doorhandle.mtl

g pSphere10
#pivot 0.000000 0.000000 0.000000

v 1.403474 0.270598 -0.270598
v 1.403474 0.000000 -0.382683
v 1.403474 -0.270598 -0.270598
v 1.403474 -0.382683 0.000000
v 1.403474 -0.270598 0.270598
v 1.403474 0.000000 0.382683
v 1.403474 0.270598 0.270598
v 1.403474 0.382683 0.000000
v 1.233297 0.500000 -0.500000
v 1.233297 0.000000 -0.707107
v 1.233297 -0.500000 -0.500000
v 1.233297 -0.707107 0.000000
v 1.233297 -0.500000 0.500000
v 1.233297 0.000000 0.707107
v 1.233297 0.500000 0.500000
v 1.233297 0.707107 0.000000
v 0.978610 0.653281 -0.653281
v 0.978610 0.000000 -0.923879
v 0.978610 -0.653281 -0.653281
v 0.978610 -0.923879 0.000000
v 0.978610 -0.653281 0.653281
v 0.978610 0.000000 0.923879
v 0.978610 0.653281 0.653281
v 0.978610 0.923880 0.000000
v 0.678186 0.729835 -0.729835
v 0.678186 0.000000 -1.032142
v 0.678186 -0.729835 -0.729835
v 0.678186 -1.032142 0.000000
v 0.678186 -0.729835 0.729835
v 0.678186 0.000000 1.032142
v 0.678186 0.729835 0.729835
v 0.678186 1.032142 0.000000
v 1.463232 0.000000 0.000000
v 0.560745 0.667370 -0.667370
v 0.560745 0.000000 -0.943804
v 0.560745 -0.667370 -0.667370
v 0.560745 -0.943804 0.000000
v 0.560745 -0.667370 0.667370
v 0.560745 0.000000 0.943804
v 0.560745 0.667370 0.667370
v 0.560745 0.943804 0.000000
v 0.798798 0.685497 -0.685497
v 0.798798 0.000000 -0.969440
v 0.798798 -0.685497 -0.685497
v 0.798798 -0.969440 0.000000
v 0.798798 -0.685497 0.685497
v 0.798798 0.000000 0.969440
v 0.798798 0.685497 0.685497
v 0.798798 0.969440 0.000000
v 0.560745 -0.019146 -0.935873
v 0.548757 -0.005428 0.224957
v 0.548757 0.134839 0.168757
v 0.548757 0.197681 0.016575
v 0.548757 0.126396 -0.127427
v 0.548757 -0.007744 -0.178437
v 0.548757 -0.143896 -0.123173
v 0.548757 -0.207846 0.016591
v 0.548757 -0.148070 0.158905
v -0.193895 0.067593 -0.112990
v -0.289528 -0.026442 -0.168544
v -0.385161 -0.120476 -0.112990
v -0.424773 -0.159427 0.021130
v -0.385161 -0.120476 0.155250
v -0.289528 -0.026442 0.210804
v -0.193895 0.067593 0.155250
v -0.154283 0.106543 0.021130
v -0.399796 0.319074 -0.081795
v -0.533769 0.312786 -0.137349
v -0.667741 0.306497 -0.081795
v -0.723235 0.303892 0.052325
v -0.667741 0.306497 0.186444
v -0.533769 0.312786 0.241999
v -0.399796 0.319074 0.186444
v -0.344303 0.321679 0.052325
v -0.431053 0.704031 -0.081795
v -0.565025 0.697742 -0.137349
v -0.698998 0.691453 -0.081795
v -0.754491 0.688848 0.052325
v -0.698998 0.691453 0.186444
v -0.565025 0.697742 0.241999
v -0.431053 0.704031 0.186444
v -0.375561 0.706636 0.052325
v -0.565025 0.697742 0.052325
# 83 positions

vt 0.238855 0.405270
vt 0.260443 0.464225
vt 0.203013 0.506740
vt 0.162399 0.414933
vt 0.306768 0.502474
vt 0.279486 0.566622
vt 0.364742 0.510581
vt 0.379786 0.582245
vt 0.409069 0.230732
vt 0.358680 0.210940
vt 0.365856 0.146938
vt 0.453712 0.179840
vt 0.304006 0.220635
vt 0.277316 0.160587
vt 0.259826 0.257818
vt 0.204351 0.216452
vt 0.238855 0.315676
vt 0.163274 0.305517
vt 0.155272 0.543817
vt 0.100880 0.426736
vt 0.254593 0.621304
vt 0.383562 0.647200
vt 0.370588 0.091588
vt 0.486237 0.129238
vt 0.255486 0.109129
vt 0.159128 0.179670
vt 0.102731 0.292512
vt 0.066444 0.433814
vt 0.128453 0.565001
vt 0.107803 0.581532
vt 0.039902 0.439500
vt 0.240138 0.652035
vt 0.228985 0.675658
vt 0.379171 0.682830
vt 0.378032 0.709091
vt 0.498883 0.098545
vt 0.372870 0.060266
vt 0.374596 0.036150
vt 0.509894 0.076868
vt 0.243359 0.079875
vt 0.234131 0.057141
vt 0.133910 0.158432
vt 0.114607 0.141704
vt 0.068903 0.284517
vt 0.042867 0.277982
vt 0.321770 0.408296
vt 0.330421 0.426647
vt 0.345713 0.435566
vt 0.359650 0.282520
vt 0.343230 0.282695
vt 0.327456 0.293272
vt 0.320152 0.312364
vt 0.348526 0.360477
vt 0.633334 0.511190
vt 0.495232 0.374353
vt 0.528374 0.359581
vt 0.647170 0.479846
vt 0.528572 0.355103
vt 0.495232 0.166076
vt 0.635051 0.021774
vt 0.655217 0.053212
vt 0.529111 0.180768
vt 0.704965 0.036216
vt 0.877098 0.075451
vt 0.859515 0.101970
vt 0.705223 0.069032
vt 0.981151 0.219411
vt 0.950116 0.227448
vt 0.960519 0.398181
vt 0.931758 0.382810
vt 0.821437 0.517962
vt 0.810568 0.486511
vt 0.791278 0.298866
vt 0.795689 0.264772
vt 0.761438 0.322675
vt 0.723825 0.317015
vt 0.701301 0.290004
vt 0.702126 0.252662
vt 0.728743 0.224321
vt 0.774127 0.236724
vt 0.740339 0.229678
vt 0.772418 0.559963
vt 0.816157 0.575975
vt 0.757291 0.839564
vt 0.725496 0.810812
vt 0.860474 0.589962
vt 0.783183 0.868114
vt 0.906029 0.603903
vt 0.813843 0.889420
vt 0.447898 0.545126
vt 0.501772 0.536992
vt 0.545195 0.863033
vt 0.506704 0.881921
vt 0.557638 0.528096
vt 0.579254 0.834779
vt 0.664816 0.528096
vt 0.619470 0.806338
vt 0.721139 0.542168
vt 0.675837 0.796608
vt 0.712257 0.911908
vt 0.695521 0.892740
vt 0.722709 0.932263
vt 0.732998 0.951715
vt 0.611494 0.941433
vt 0.596181 0.963064
vt 0.624700 0.918631
vt 0.641804 0.896726
vt 0.668207 0.884846
vt 0.684881 0.940735
vt 0.679980 0.932196
vt 0.689761 0.953336
vt 0.695514 0.967497
vt 0.654009 0.968795
vt 0.645114 0.987296
vt 0.661344 0.951414
vt 0.667647 0.937671
vt 0.674000 0.930636
vt 0.329089 0.811127
vt 0.336198 0.901283
vt 0.219876 0.874311
vt 0.298281 0.966931
vt 0.209575 0.994631
vt 0.165375 1.012576
vt 0.085985 0.934285
vt 0.085076 0.825984
vt 0.157642 0.750678
vt 0.257946 0.747257
# 127 texture coordinates

vn 0.949968 0.220863 -0.220863
vn 0.949968 0.000000 -0.312348
vn 0.782865 0.000000 -0.622191
vn 0.782865 0.439956 -0.439956
vn 0.949968 -0.220863 -0.220863
vn 0.782865 -0.439956 -0.439956
vn 0.949968 -0.312348 0.000000
vn 0.782865 -0.622191 0.000000
vn 0.949968 -0.220863 0.220863
vn 0.782865 -0.439956 0.439956
vn 0.949968 0.000000 0.312348
vn 0.782865 0.000000 0.622191
vn 0.949968 0.220863 0.220863
vn 0.782865 0.439956 0.439956
vn 0.949968 0.312348 0.000000
vn 0.782865 0.622191 0.000000
vn 0.461628 0.000000 -0.887074
vn 0.461627 0.627256 -0.627256
vn 0.461627 -0.627256 -0.627256
vn 0.461628 -0.887074 0.000000
vn 0.461627 -0.627256 0.627256
vn 0.461628 0.000000 0.887074
vn 0.461627 0.627256 0.627256
vn 0.461627 0.887074 0.000000
vn 0.356434 0.660664 -0.660664
vn 0.356434 0.000000 -0.934320
vn -0.209243 -0.077719 -0.974770
vn -0.086213 0.704474 -0.704474
vn 0.356434 -0.660664 -0.660664
vn -0.086214 -0.704474 -0.704474
vn 0.356434 -0.934320 0.000000
vn -0.086213 -0.996277 0.000000
vn 0.356434 -0.660664 0.660664
vn -0.086213 -0.704474 0.704474
vn 0.356434 0.000000 0.934320
vn -0.086213 0.000000 0.996277
vn 0.356434 0.660664 0.660664
vn -0.086213 0.704474 0.704474
vn 0.356433 0.934321 0.000000
vn -0.086213 0.996277 0.000000
vn 1.000000 0.000000 0.000000
vn -0.813109 0.002285 -0.582107
vn -0.896932 0.312585 -0.312737
vn -0.882788 -0.176776 -0.435242
vn -0.896781 -0.442475 0.000018
vn -0.896851 -0.312780 -0.312774
vn -0.896703 -0.312992 0.312985
vn -0.896689 -0.000044 0.442661
vn -0.896736 0.312900 0.312984
vn -0.896840 0.442354 -0.000006
vn -0.752843 0.494162 0.434778
vn -0.747972 -0.003717 0.663720
vn -0.757102 0.653193 -0.011645
vn -0.749895 0.486748 -0.448032
vn -0.744698 0.001667 -0.667400
vn -0.735454 -0.497504 -0.459997
vn -0.736528 -0.676386 -0.005450
vn -0.734340 -0.507973 0.450232
vn -0.032059 0.041064 -0.998642
vn 0.242569 0.660052 -0.710979
vn -0.348710 -0.586942 -0.730685
vn -0.492969 -0.870031 -0.005337
vn -0.321581 -0.628108 0.708566
vn 0.000080 -0.032682 0.999466
vn 0.279571 0.627824 0.726414
vn 0.368781 0.929481 -0.008136
vn -0.018979 0.039199 -0.999051
vn 0.638470 0.295386 -0.710706
vn -0.674739 -0.212508 -0.706801
vn -0.945727 -0.324961 -0.000648
vn -0.658396 -0.254511 0.708335
vn 0.013997 -0.029402 0.999470
vn 0.663071 0.238539 0.709532
vn 0.923226 0.384251 0.001954
vn -0.034443 0.733730 -0.678567
vn 0.438681 0.763420 -0.474076
vn -0.519085 0.703368 -0.485617
vn -0.723243 0.690593 0.000001
vn -0.519086 0.703367 0.485617
vn -0.034443 0.733731 0.678566
vn 0.438683 0.763420 0.474076
vn 0.631321 0.775522 0.000001
vn -0.046891 0.998900 0.000000
# 83 normals

usemtl lambert24SG
f 1/1/1 2/2/2 10/3/3 9/4/4
f 2/2/2 3/5/5 11/6/6 10/3/3
f 3/5/5 4/7/7 12/8/8 11/6/6
f 4/9/7 5/10/9 13/11/10 12/12/8
f 5/10/9 6/13/11 14/14/12 13/11/10
f 6/13/11 7/15/13 15/16/14 14/14/12
f 7/15/13 8/17/15 16/18/16 15/16/14
f 8/17/15 1/1/1 9/4/4 16/18/16
f 9/4/4 10/3/3 18/19/17 17/20/18
f 10/3/3 11/6/6 19/21/19 18/19/17
f 11/6/6 12/8/8 20/22/20 19/21/19
f 12/12/8 13/11/10 21/23/21 20/24/20
f 13/11/10 14/14/12 22/25/22 21/23/21
f 14/14/12 15/16/14 23/26/23 22/25/22
f 15/16/14 16/18/16 24/27/24 23/26/23
f 16/18/16 9/4/4 17/20/18 24/27/24
f 42/28/25 43/29/26 26/30/27 25/31/28
f 43/29/26 44/32/29 27/33/30 26/30/27
f 44/32/29 45/34/31 28/35/32 27/33/30
f 45/36/31 46/37/33 29/38/34 28/39/32
f 46/37/33 47/40/35 30/41/36 29/38/34
f 47/40/35 48/42/37 31/43/38 30/41/36
f 48/42/37 49/44/39 32/45/40 31/43/38
f 49/44/39 42/28/25 25/31/28 32/45/40
f 2/2/2 1/1/1 33/46/41
f 3/5/5 2/2/2 33/47/41
f 4/7/7 3/5/5 33/48/41
f 5/10/9 4/9/7 33/49/41
f 6/13/11 5/10/9 33/50/41
f 7/15/13 6/13/11 33/51/41
f 8/17/15 7/15/13 33/52/41
f 1/1/1 8/17/15 33/53/41
f 25/54/28 26/55/27 35/56/42 34/57/43
f 26/55/27 50/58/44 35/56/42
f 27/59/30 28/60/32 37/61/45 36/62/46
f 28/63/32 29/64/34 38/65/47 37/66/45
f 29/64/34 30/67/36 39/68/48 38/65/47
f 30/67/36 31/69/38 40/70/49 39/68/48
f 31/69/38 32/71/40 41/72/50 40/70/49
f 32/71/40 25/54/28 34/57/43 41/72/50
f 17/20/18 18/19/17 43/29/26 42/28/25
f 18/19/17 19/21/19 44/32/29 43/29/26
f 19/21/19 20/22/20 45/34/31 44/32/29
f 20/24/20 21/23/21 46/37/33 45/36/31
f 21/23/21 22/25/22 47/40/35 46/37/33
f 22/25/22 23/26/23 48/42/37 47/40/35
f 23/26/23 24/27/24 49/44/39 48/42/37
f 24/27/24 17/20/18 42/28/25 49/44/39
f 26/55/27 27/59/30 36/62/46 50/58/44
f 40/70/49 52/73/51 51/74/52 39/68/48
f 41/72/50 53/75/53 52/73/51 40/70/49
f 34/57/43 54/76/54 53/75/53 41/72/50
f 35/56/42 50/58/44 55/77/55 54/76/54 34/57/43
f 56/78/56 55/77/55 50/58/44 36/62/46
f 57/79/57 56/78/56 36/62/46 37/61/45
f 58/80/58 57/81/57 37/66/45 38/65/47
f 39/68/48 51/74/52 58/80/58 38/65/47
f 54/82/54 55/83/55 60/84/59 59/85/60
f 55/83/55 56/86/56 61/87/61 60/84/59
f 56/86/56 57/88/57 62/89/62 61/87/61
f 57/90/57 58/91/58 63/92/63 62/93/62
f 58/91/58 51/94/52 64/95/64 63/92/63
f 51/94/52 52/96/51 65/97/65 64/95/64
f 52/96/51 53/98/53 66/99/66 65/97/65
f 53/98/53 54/82/54 59/85/60 66/99/66
f 59/85/60 60/84/59 68/100/67 67/101/68
f 60/84/59 61/87/61 69/102/69 68/100/67
f 61/87/61 62/89/62 70/103/70 69/102/69
f 62/93/62 63/92/63 71/104/71 70/105/70
f 63/92/63 64/95/64 72/106/72 71/104/71
f 64/95/64 65/97/65 73/107/73 72/106/72
f 65/97/65 66/99/66 74/108/74 73/107/73
f 66/99/66 59/85/60 67/101/68 74/108/74
f 67/101/68 68/100/67 76/109/75 75/110/76
f 68/100/67 69/102/69 77/111/77 76/109/75
f 69/102/69 70/103/70 78/112/78 77/111/77
f 70/105/70 71/104/71 79/113/79 78/114/78
f 71/104/71 72/106/72 80/115/80 79/113/79
f 72/106/72 73/107/73 81/116/81 80/115/80
f 73/107/73 74/108/74 82/117/82 81/116/81
f 74/108/74 67/101/68 75/110/76 82/117/82
f 75/118/76 76/119/75 83/120/83
f 76/119/75 77/121/77 83/120/83
f 77/121/77 78/122/78 83/120/83
f 78/123/78 79/124/79 83/120/83
f 79/124/79 80/125/80 83/120/83
f 80/125/80 81/126/81 83/120/83
f 81/126/81 82/127/82 83/120/83
f 82/127/82 75/118/76 83/120/83

# 89 faces
