# Wavefront Obj file
# 
# verts: 28 uv-s: 60
mtllib Tarot Table.mtl

g pCube5
#pivot 0.000000 0.000000 0.000000

v -8.351772 -1.319015 3.755321
v 8.295546 -1.319015 3.755321
v -8.351772 -0.726968 3.755321
v 8.295546 -0.726968 3.755321
v -2.316679 -0.054777 -1.990881
v 2.443538 -0.054777 -1.990881
v -2.316679 -0.646824 -1.990881
v 2.443538 -0.646824 -1.990881
v -0.028113 -0.296023 3.755321
v 0.063429 -0.296023 -1.990881
v 0.063429 0.296023 -1.990881
v -0.028113 0.296023 3.755321
v -6.687041 -0.763666 3.755321
v -1.840658 -0.390028 -1.990881
v -1.840658 0.202019 -1.990881
v -6.687041 -0.171620 3.755321
v -4.023470 -0.296023 3.755321
v -4.023470 0.296023 3.755321
v -1.079023 0.296023 -1.990881
v -1.079023 -0.296023 -1.990881
v 6.630814 -0.763666 3.755321
v 6.630814 -0.171620 3.755321
v 1.967516 0.202019 -1.990881
v 1.967516 -0.390028 -1.990881
v 3.967244 -0.296023 3.755321
v 1.205882 -0.296023 -1.990881
v 1.205882 0.296023 -1.990881
v 3.967244 0.296023 3.755321
# 28 positions

vt 0.704515 0.281582
vt 0.690426 0.278024
vt 0.783231 0.153139
vt 0.798172 0.155226
vt 0.857136 0.822248
vt 0.644342 0.528518
vt 0.804127 0.403453
vt 0.889929 0.795870
vt 0.423837 0.497311
vt 0.439114 0.510956
vt 0.419902 0.528667
vt 0.404692 0.515023
vt 0.477002 0.362454
vt 0.190889 0.135146
vt 0.218903 0.103321
vt 0.610022 0.207228
vt 0.311758 0.619940
vt 0.387708 0.521500
vt 0.402859 0.535128
vt 0.324660 0.631787
vt 0.492910 0.396306
vt 0.633012 0.237949
vt 0.646898 0.249677
vt 0.508432 0.409890
vt 0.200325 0.589407
vt 0.125042 0.190973
vt 0.158762 0.165271
vt 0.364650 0.467807
vt 0.488981 0.414855
vt 0.504488 0.428464
vt 0.489893 0.450831
vt 0.474438 0.437208
vt 0.798876 0.885082
vt 0.407101 0.792874
vt 0.534922 0.635285
vt 0.825848 0.852777
vt 0.262276 0.786865
vt 0.253107 0.777424
vt 0.369661 0.656025
vt 0.380229 0.664076
vt 0.035471 0.253162
vt 0.006998 0.726781
vt 0.262361 0.978526
vt 0.733261 0.971162
vt 0.177051 0.848362
vt 0.185270 0.858557
vt 0.531379 0.465450
vt 0.543739 0.471217
vt 0.589632 0.581902
vt 0.841492 0.837512
vt 0.464428 0.480983
vt 0.449062 0.467349
vt 0.174825 0.150208
vt 0.420826 0.415130
vt 0.833146 0.076355
vt 0.848438 0.077553
vt 0.992111 0.261755
vt 0.977035 0.731624
vt 0.287461 0.018524
vt 0.761045 0.024365
# 60 texture coordinates

vn 0.000000 0.000000 1.000000
vn 0.000000 0.000000 1.000000
vn 0.000000 0.000000 1.000000
vn 0.000000 0.000000 1.000000
vn 0.081015 0.996053 -0.036277
vn 0.081015 0.996053 -0.036277
vn 0.255258 0.954557 -0.153830
vn 0.255258 0.954557 -0.153830
vn 0.000000 0.000000 -1.000000
vn 0.000000 0.000000 -1.000000
vn 0.000000 0.000000 -1.000000
vn 0.000000 0.000000 -1.000000
vn -0.081015 -0.996053 0.036277
vn -0.081015 -0.996053 0.036277
vn -0.255258 -0.954557 0.153831
vn -0.255258 -0.954557 0.153831
vn 0.700627 0.000000 -0.713528
vn 0.700627 0.000000 -0.713528
vn 0.700627 0.000000 -0.713528
vn 0.700627 0.000000 -0.713528
vn -0.689560 0.000000 -0.724228
vn -0.689560 0.000000 -0.724228
vn -0.689560 0.000000 -0.724228
vn -0.689560 0.000000 -0.724228
vn 0.254828 -0.953377 0.161663
vn 0.254828 -0.953377 0.161663
vn 0.080992 -0.995958 0.038847
vn 0.080992 -0.995958 0.038847
vn 0.000000 0.000000 -1.000000
vn 0.000000 0.000000 -1.000000
vn 0.000000 0.000000 -1.000000
vn 0.000000 0.000000 -1.000000
vn -0.254828 0.953377 -0.161663
vn -0.254828 0.953377 -0.161663
vn -0.080992 0.995958 -0.038847
vn -0.080992 0.995958 -0.038847
vn 0.000000 0.000000 1.000000
vn 0.000000 0.000000 1.000000
vn 0.000000 0.000000 1.000000
vn 0.000000 0.000000 1.000000
vn 0.344053 -0.906898 0.243234
vn 0.344053 -0.906898 0.243234
vn 0.000000 0.000000 -1.000000
vn 0.000000 0.000000 -1.000000
vn -0.344053 0.906898 -0.243234
vn -0.344053 0.906898 -0.243234
vn 0.000000 0.000000 1.000000
vn 0.000000 0.000000 1.000000
vn 0.000000 0.000000 1.000000
vn 0.000000 0.000000 1.000000
vn 0.000000 1.000000 0.000000
vn 0.000000 1.000000 0.000000
vn 0.000000 0.000000 -1.000000
vn 0.000000 0.000000 -1.000000
vn 0.000000 -1.000000 0.000000
vn 0.000000 -1.000000 0.000000
vn 0.000000 0.000000 1.000000
vn 0.000000 0.000000 1.000000
vn 0.344953 0.909272 -0.232879
vn 0.344953 0.909272 -0.232879
vn 0.000000 0.000000 -1.000000
vn 0.000000 0.000000 -1.000000
vn -0.344953 -0.909271 0.232880
vn -0.344953 -0.909271 0.232880
# 64 normals

usemtl lambert7SG
s 1
f 28/1/1 25/2/2 21/3/3 22/4/4
f 16/37/37 13/38/38 17/39/39 18/40/40
f 1/45/47 13/38/38 16/37/37 3/46/48
f 18/40/40 17/39/39 9/47/49 12/48/50
f 22/4/4 21/3/3 2/55/57 4/56/58
f 12/48/50 9/47/49 25/2/2 28/1/1
s 2
f 27/5/5 28/6/6 22/7/7 23/8/8
f 15/33/33 16/34/34 18/35/35 19/36/36
f 3/43/45 16/34/34 15/33/33 5/44/46
f 19/36/36 18/35/35 12/49/51 11/50/52
f 23/8/8 22/7/7 4/57/59 6/58/60
f 11/50/52 12/49/51 28/6/6 27/5/5
s 3
f 26/9/9 27/10/10 23/11/11 24/12/12
f 14/29/29 15/30/30 19/31/31 20/32/32
f 5/24/43 15/30/30 14/29/29 7/21/44
f 20/32/32 19/31/31 11/51/53 10/52/54
f 24/12/12 23/11/11 6/19/61 8/18/62
f 10/52/54 11/51/53 27/10/10 26/9/9
s 4
f 25/13/13 26/14/14 24/15/15 21/16/16
f 13/25/25 14/26/26 20/27/27 17/28/28
f 7/41/41 14/26/26 13/25/25 1/42/42
f 17/28/28 20/27/27 10/53/55 9/54/56
f 21/16/16 24/15/15 8/59/63 2/60/64
f 9/54/56 10/53/55 26/14/14 25/13/13
s 5
f 2/17/17 8/18/18 6/19/19 4/20/20
s 6
f 7/21/21 1/22/22 3/23/23 5/24/24

# 26 faces
